SeanSlab-CondensedThin.ufo
<glyph name="space" format="1">
  <advance width="291"/>
  <unicode hex="0020"/>
  <outline>
    <contour>
      <point x="149" y="670" type="move" name="top"/>
    </contour>
    <contour>
      <point x="150" y="-79" type="move" name="bottom"/>
    </contour>
  </outline>
</glyph>
<glyph name="exclam" format="1">
  <advance width="216"/>
  <unicode hex="0021"/>
  <outline>
    <contour>
      <point x="121" y="229" type="line"/>
      <point x="124" y="722" type="line"/>
      <point x="92" y="722" type="line"/>
      <point x="95" y="229" type="line"/>
    </contour>
    <contour>
      <point x="127" y="13" type="curve"/>
      <point x="127" y="24"/>
      <point x="120" y="30"/>
      <point x="108" y="30" type="curve"/>
      <point x="97" y="30"/>
      <point x="91" y="23"/>
      <point x="91" y="13" type="curve"/>
      <point x="127" y="13"/>
      <point x="91" y="13"/>
      <point x="127" y="13" type="curve"/>
      <point x="127" y="1"/>
      <point x="120" y="-5"/>
      <point x="108" y="-5" type="curve"/>
      <point x="97" y="-5"/>
      <point x="91" y="1"/>
      <point x="91" y="13" type="curve"/>
      <point x="127" y="13"/>
      <point x="91" y="13"/>
    </contour>
  </outline>
</glyph>
<glyph name="quotedbl" format="1">
  <advance width="346"/>
  <unicode hex="0022"/>
  <outline>
    <contour>
      <point x="120" y="535" type="line"/>
      <point x="123" y="723" type="line"/>
      <point x="92" y="723" type="line"/>
      <point x="95" y="535" type="line"/>
    </contour>
    <contour>
      <point x="251" y="535" type="line"/>
      <point x="254" y="723" type="line"/>
      <point x="223" y="723" type="line"/>
      <point x="226" y="535" type="line"/>
    </contour>
  </outline>
</glyph>
<glyph name="numbersign" format="1">
  <advance width="505"/>
  <unicode hex="0023"/>
  <outline>
    <contour>
      <point x="48" y="247" type="curve"/>
      <point x="400" y="247" type="curve"/>
      <point x="405" y="270" type="curve"/>
      <point x="53" y="270" type="curve"/>
    </contour>
    <contour>
      <point x="99" y="491" type="curve"/>
      <point x="451" y="491" type="curve"/>
      <point x="456" y="513" type="curve"/>
      <point x="104" y="513" type="curve"/>
    </contour>
    <contour>
      <point x="281" y="39" type="curve"/>
      <point x="433" y="722" type="curve"/>
      <point x="408" y="722" type="curve"/>
      <point x="256" y="39" type="curve"/>
    </contour>
    <contour>
      <point x="105" y="46" type="curve"/>
      <point x="254" y="722" type="curve"/>
      <point x="229" y="722" type="curve"/>
      <point x="81" y="46" type="curve"/>
    </contour>
  </outline>
</glyph>
<glyph name="quotesingle" format="1">
  <advance width="214"/>
  <unicode hex="0027"/>
  <outline>
    <contour>
      <point x="120" y="535" type="line"/>
      <point x="123" y="723" type="line"/>
      <point x="92" y="723" type="line"/>
      <point x="95" y="535" type="line"/>
    </contour>
  </outline>
</glyph>
<glyph name="parenright" format="1">
  <advance width="273"/>
  <unicode hex="0029"/>
  <outline>
    <contour>
      <point x="31" y="-267" type="curve"/>
      <point x="166" y="-72"/>
      <point x="216" y="90"/>
      <point x="216" y="327" type="curve"/>
      <point x="216" y="557"/>
      <point x="173" y="718"/>
      <point x="34" y="903" type="curve"/>
      <point x="17" y="890"/>
      <point x="34" y="903"/>
      <point x="17" y="890" type="curve"/>
      <point x="150" y="706"/>
      <point x="189" y="549"/>
      <point x="189" y="326" type="curve"/>
      <point x="189" y="97"/>
      <point x="141" y="-61"/>
      <point x="13" y="-252" type="curve"/>
      <point x="31" y="-267"/>
      <point x="13" y="-252"/>
    </contour>
  </outline>
</glyph>
<glyph name="asterisk" format="1">
  <advance width="539"/>
  <unicode hex="002A"/>
  <outline>
    <contour>
      <point x="282" y="528" type="line"/>
      <point x="285" y="716" type="line"/>
      <point x="255" y="716" type="line"/>
      <point x="258" y="528" type="line"/>
    </contour>
    <contour>
      <point x="274" y="517" type="line"/>
      <point x="454" y="572" type="line"/>
      <point x="444" y="601" type="line"/>
      <point x="266" y="539" type="line"/>
    </contour>
    <contour>
      <point x="260" y="521" type="line"/>
      <point x="369" y="367" type="line"/>
      <point x="393" y="385" type="line"/>
      <point x="280" y="535" type="line"/>
    </contour>
    <contour>
      <point x="260" y="535" type="line"/>
      <point x="146" y="385" type="line"/>
      <point x="171" y="367" type="line"/>
      <point x="279" y="521" type="line"/>
    </contour>
    <contour>
      <point x="273" y="539" type="line"/>
      <point x="95" y="601" type="line"/>
      <point x="86" y="572" type="line"/>
      <point x="266" y="517" type="line"/>
    </contour>
  </outline>
</glyph>
<glyph name="plus" format="1">
  <advance width="594"/>
  <unicode hex="002B"/>
  <outline>
    <contour>
      <point x="56" y="297" type="curve"/>
      <point x="538" y="297" type="line"/>
      <point x="538" y="322"/>
      <point x="538" y="297"/>
      <point x="538" y="322" type="curve"/>
      <point x="56" y="322" type="line"/>
      <point x="56" y="297"/>
      <point x="56" y="322"/>
    </contour>
    <contour>
      <point x="310" y="18" type="curve"/>
      <point x="310" y="588" type="line"/>
      <point x="284" y="588"/>
      <point x="310" y="588"/>
      <point x="284" y="588" type="curve"/>
      <point x="284" y="18" type="line"/>
      <point x="310" y="18"/>
      <point x="284" y="18"/>
    </contour>
  </outline>
</glyph>
<glyph name="comma" format="1">
  <advance width="182"/>
  <unicode hex="002C"/>
  <outline>
    <contour>
      <point x="31" y="-109" type="line"/>
      <point x="79" y="-109"/>
      <point x="94" y="-63"/>
      <point x="94" y="-20" type="curve"/>
      <point x="94" y="9"/>
      <point x="90" y="35"/>
      <point x="70" y="35" type="curve"/>
      <point x="56" y="35"/>
      <point x="49" y="28"/>
      <point x="49" y="16" type="curve"/>
      <point x="49" y="6"/>
      <point x="53" y="0"/>
      <point x="65" y="-5" type="curve"/>
      <point x="65" y="-26"/>
      <point x="67" y="-84"/>
      <point x="31" y="-85" type="curve"/>
    </contour>
  </outline>
</glyph>
<glyph name="hyphen" format="1">
  <advance width="376"/>
  <unicode hex="002D"/>
  <outline>
    <contour>
      <point x="87" y="260" type="curve"/>
      <point x="155" y="260"/>
      <point x="223" y="260"/>
      <point x="290" y="260" type="curve"/>
      <point x="290" y="285"/>
      <point x="290" y="260"/>
      <point x="290" y="285" type="curve"/>
      <point x="223" y="285"/>
      <point x="155" y="285"/>
      <point x="87" y="285" type="curve"/>
      <point x="87" y="260"/>
      <point x="87" y="285"/>
    </contour>
  </outline>
</glyph>
<glyph name="period" format="1">
  <advance width="204"/>
  <unicode hex="002E"/>
  <outline>
    <contour>
      <point x="120" y="13" type="curve"/>
      <point x="120" y="24"/>
      <point x="113" y="30"/>
      <point x="101" y="30" type="curve"/>
      <point x="90" y="30"/>
      <point x="84" y="23"/>
      <point x="84" y="13" type="curve"/>
      <point x="120" y="13"/>
      <point x="84" y="13"/>
      <point x="120" y="13" type="curve"/>
      <point x="120" y="1"/>
      <point x="113" y="-5"/>
      <point x="101" y="-5" type="curve"/>
      <point x="90" y="-5"/>
      <point x="84" y="1"/>
      <point x="84" y="13" type="curve"/>
      <point x="120" y="13"/>
      <point x="84" y="13"/>
    </contour>
  </outline>
</glyph>
<glyph name="slash" format="1">
  <advance width="401"/>
  <unicode hex="002F"/>
  <outline>
    <contour>
      <point x="64" y="-66" type="curve"/>
      <point x="163" y="236"/>
      <point x="263" y="540"/>
      <point x="363" y="842" type="curve"/>
      <point x="337" y="842"/>
      <point x="363" y="842"/>
      <point x="337" y="842" type="curve"/>
      <point x="237" y="540"/>
      <point x="138" y="236"/>
      <point x="38" y="-66" type="curve"/>
      <point x="64" y="-66"/>
      <point x="38" y="-66"/>
    </contour>
  </outline>
</glyph>
<glyph name="zero" format="1">
  <advance width="537"/>
  <unicode hex="0030"/>
  <outline>
    <contour>
      <point x="94" y="360" type="curve"/>
      <point x="94" y="546"/>
      <point x="114" y="703"/>
      <point x="267" y="703" type="curve"/>
      <point x="423" y="703"/>
      <point x="442" y="547"/>
      <point x="442" y="363" type="curve"/>
      <point x="442" y="178"/>
      <point x="419" y="19"/>
      <point x="271" y="19" type="curve"/>
      <point x="123" y="19"/>
      <point x="94" y="175"/>
      <point x="94" y="360" type="curve"/>
      <point x="70" y="360"/>
      <point x="92" y="360"/>
      <point x="68" y="360" type="curve"/>
      <point x="68" y="160"/>
      <point x="96" y="-5"/>
      <point x="269" y="-5" type="curve"/>
      <point x="443" y="-5"/>
      <point x="468" y="162"/>
      <point x="468" y="363" type="curve"/>
      <point x="468" y="562"/>
      <point x="442" y="727"/>
      <point x="271" y="727" type="curve"/>
      <point x="96" y="727"/>
      <point x="68" y="561"/>
      <point x="68" y="360" type="curve"/>
      <point x="92" y="360"/>
      <point x="70" y="360"/>
    </contour>
  </outline>
</glyph>
<glyph name="one" format="1">
  <advance width="341"/>
  <unicode hex="0031"/>
  <outline>
    <contour>
      <point x="200" y="0" type="curve"/>
      <point x="239" y="0"/>
      <point x="276" y="0"/>
      <point x="315" y="0" type="curve"/>
      <point x="315" y="23"/>
      <point x="315" y="0"/>
      <point x="315" y="23" type="curve"/>
      <point x="200" y="23"/>
      <point x="315" y="23"/>
      <point x="200" y="23" type="curve"/>
      <point x="200" y="0"/>
      <point x="200" y="23"/>
    </contour>
    <contour>
      <point x="200" y="23" type="curve"/>
      <point x="78" y="23"/>
      <point x="200" y="23"/>
      <point x="78" y="23" type="curve"/>
      <point x="78" y="0"/>
      <point x="78" y="23"/>
      <point x="78" y="0" type="curve"/>
      <point x="119" y="0"/>
      <point x="159" y="0"/>
      <point x="200" y="0" type="curve"/>
      <point x="200" y="23"/>
      <point x="200" y="0"/>
    </contour>
    <contour>
      <point x="63" y="540" type="curve"/>
      <point x="210" y="713"/>
      <point x="63" y="540"/>
      <point x="210" y="713" type="curve"/>
      <point x="187" y="722"/>
      <point x="210" y="713"/>
      <point x="187" y="722" type="curve"/>
      <point x="46" y="556"/>
      <point x="187" y="722"/>
      <point x="46" y="556" type="curve"/>
      <point x="63" y="540"/>
      <point x="46" y="556"/>
    </contour>
    <contour>
      <point x="212" y="0" type="curve"/>
      <point x="212" y="241"/>
      <point x="212" y="481"/>
      <point x="212" y="722" type="curve"/>
      <point x="187" y="722"/>
      <point x="212" y="722"/>
      <point x="187" y="722" type="curve"/>
      <point x="187" y="481"/>
      <point x="187" y="241"/>
      <point x="187" y="0" type="curve"/>
      <point x="212" y="0"/>
      <point x="187" y="0"/>
    </contour>
  </outline>
</glyph>
<glyph name="two" format="1">
  <advance width="424"/>
  <unicode hex="0032"/>
  <outline>
    <contour>
      <point x="351" y="23" type="curve"/>
      <point x="351" y="143"/>
      <point x="351" y="23"/>
      <point x="351" y="142" type="curve"/>
      <point x="329" y="142"/>
      <point x="351" y="142"/>
      <point x="329" y="142" type="curve"/>
      <point x="329" y="23"/>
      <point x="329" y="143"/>
      <point x="329" y="23" type="curve"/>
      <point x="351" y="23"/>
      <point x="329" y="23"/>
    </contour>
    <contour>
      <point x="50" y="0" type="curve"/>
      <point x="165" y="0"/>
      <point x="248" y="0"/>
      <point x="351" y="0" type="curve"/>
      <point x="351" y="23"/>
      <point x="351" y="0"/>
      <point x="351" y="23" type="curve"/>
      <point x="244" y="23"/>
      <point x="157" y="23"/>
      <point x="50" y="23" type="curve"/>
      <point x="50" y="0"/>
      <point x="50" y="23"/>
    </contour>
    <contour>
      <point x="84" y="563" type="curve"/>
      <point x="112" y="636"/>
      <point x="138" y="703"/>
      <point x="212" y="703" type="curve"/>
      <point x="298" y="703"/>
      <point x="325" y="626"/>
      <point x="325" y="526" type="curve"/>
      <point x="325" y="406"/>
      <point x="247" y="292"/>
      <point x="209" y="237" type="curve"/>
      <point x="156" y="166"/>
      <point x="103" y="94"/>
      <point x="50" y="23" type="curve"/>
      <point x="61" y="0"/>
      <point x="50" y="23"/>
      <point x="61" y="0" type="curve"/>
      <point x="116" y="73"/>
      <point x="171" y="146"/>
      <point x="225" y="220" type="curve"/>
      <point x="268" y="279"/>
      <point x="351" y="399"/>
      <point x="351" y="527" type="curve"/>
      <point x="351" y="642"/>
      <point x="315" y="727"/>
      <point x="213" y="727" type="curve"/>
      <point x="129" y="727"/>
      <point x="90" y="657"/>
      <point x="61" y="573" type="curve"/>
      <point x="84" y="563"/>
      <point x="61" y="573"/>
    </contour>
  </outline>
</glyph>
<glyph name="four" format="1">
  <advance width="459"/>
  <unicode hex="0034"/>
  <outline>
    <contour>
      <point x="272" y="23" type="line"/>
      <point x="159" y="23" type="line"/>
      <point x="159" y="0" type="line"/>
      <point x="272" y="0" type="line"/>
    </contour>
    <contour>
      <point x="272" y="0" type="line"/>
      <point x="375" y="0" type="line"/>
      <point x="375" y="23" type="line"/>
      <point x="272" y="23" type="line"/>
    </contour>
    <contour>
      <point x="52" y="277" type="line"/>
      <point x="284" y="722" type="line"/>
      <point x="259" y="722" type="line"/>
      <point x="32" y="288" type="line"/>
    </contour>
    <contour>
      <point x="407" y="288" type="line"/>
      <point x="32" y="288" type="line"/>
      <point x="32" y="265" type="line"/>
      <point x="407" y="265" type="line"/>
    </contour>
    <contour>
      <point x="284" y="0" type="line"/>
      <point x="284" y="722" type="line"/>
      <point x="259" y="722" type="line"/>
      <point x="259" y="0" type="line"/>
    </contour>
  </outline>
</glyph>
<glyph name="five" format="1">
  <advance width="401"/>
  <unicode hex="0035"/>
  <outline>
    <contour>
      <point x="91" y="722" type="curve"/>
      <point x="91" y="619"/>
      <point x="91" y="516"/>
      <point x="91" y="406" type="curve"/>
      <point x="115" y="395"/>
      <point x="91" y="406"/>
      <point x="115" y="395" type="curve"/>
      <point x="115" y="497"/>
      <point x="115" y="598"/>
      <point x="115" y="699" type="curve"/>
      <point x="91" y="722"/>
      <point x="115" y="699"/>
    </contour>
    <contour>
      <point x="115" y="395" type="curve"/>
      <point x="130" y="407"/>
      <point x="163" y="422"/>
      <point x="189" y="422" type="curve"/>
      <point x="284" y="422"/>
      <point x="316" y="330"/>
      <point x="316" y="224" type="curve"/>
      <point x="316" y="117"/>
      <point x="277" y="19"/>
      <point x="182" y="19" type="curve"/>
      <point x="137" y="19"/>
      <point x="110" y="35"/>
      <point x="70" y="63" type="curve"/>
      <point x="56" y="44"/>
      <point x="70" y="63"/>
      <point x="56" y="44" type="curve"/>
      <point x="94" y="13"/>
      <point x="132" y="-5"/>
      <point x="181" y="-5" type="curve"/>
      <point x="292" y="-5"/>
      <point x="342" y="101"/>
      <point x="342" y="224" type="curve"/>
      <point x="342" y="343"/>
      <point x="300" y="446"/>
      <point x="192" y="446" type="curve"/>
      <point x="154" y="446"/>
      <point x="112" y="430"/>
      <point x="91" y="406" type="curve"/>
      <point x="115" y="395"/>
      <point x="91" y="406"/>
    </contour>
    <contour>
      <point x="324" y="722" type="curve"/>
      <point x="243" y="722"/>
      <point x="172" y="722"/>
      <point x="91" y="722" type="curve"/>
      <point x="115" y="699"/>
      <point x="91" y="722"/>
      <point x="115" y="699" type="curve"/>
      <point x="188" y="699"/>
      <point x="251" y="699"/>
      <point x="324" y="699" type="curve"/>
      <point x="324" y="722"/>
      <point x="324" y="699"/>
    </contour>
  </outline>
</glyph>
<glyph name="seven" format="1">
  <advance width="408"/>
  <unicode hex="0037"/>
  <outline>
    <contour>
      <point x="73" y="601" type="curve"/>
      <point x="73" y="721" type="curve"/>
      <point x="51" y="721" type="curve"/>
      <point x="51" y="601" type="curve"/>
    </contour>
    <contour>
      <point x="51" y="699" type="curve"/>
      <point x="389" y="699" type="curve"/>
      <point x="389" y="722" type="curve"/>
      <point x="51" y="722" type="curve"/>
    </contour>
    <contour>
      <point x="372" y="722" type="curve"/>
      <point x="85" y="0" type="curve"/>
      <point x="113" y="0" type="curve"/>
      <point x="389" y="699" type="curve"/>
    </contour>
  </outline>
</glyph>
<glyph name="eight" format="1">
  <advance width="427"/>
  <unicode hex="0038"/>
  <outline>
    <contour>
      <point x="80" y="565" type="curve"/>
      <point x="80" y="471"/>
      <point x="129" y="424"/>
      <point x="206" y="369" type="curve"/>
      <point x="285" y="313"/>
      <point x="335" y="260"/>
      <point x="335" y="168" type="curve"/>
      <point x="335" y="81"/>
      <point x="296" y="19"/>
      <point x="213" y="19" type="curve"/>
      <point x="129" y="19"/>
      <point x="92" y="81"/>
      <point x="92" y="168" type="curve"/>
      <point x="92" y="262"/>
      <point x="143" y="312"/>
      <point x="223" y="369" type="curve"/>
      <point x="297" y="424"/>
      <point x="347" y="471"/>
      <point x="347" y="563" type="curve"/>
      <point x="347" y="661"/>
      <point x="307" y="727"/>
      <point x="213" y="727" type="curve"/>
      <point x="121" y="727"/>
      <point x="80" y="660"/>
      <point x="80" y="565" type="curve"/>
      <point x="105" y="565"/>
      <point x="80" y="565"/>
      <point x="105" y="565" type="curve"/>
      <point x="105" y="643"/>
      <point x="137" y="703"/>
      <point x="212" y="703" type="curve"/>
      <point x="290" y="703"/>
      <point x="322" y="645"/>
      <point x="322" y="563" type="curve"/>
      <point x="322" y="482"/>
      <point x="276" y="436"/>
      <point x="206" y="387" type="curve"/>
      <point x="121" y="325"/>
      <point x="66" y="273"/>
      <point x="66" y="168" type="curve"/>
      <point x="66" y="65"/>
      <point x="112" y="-5"/>
      <point x="212" y="-5" type="curve"/>
      <point x="311" y="-5"/>
      <point x="361" y="63"/>
      <point x="361" y="168" type="curve"/>
      <point x="361" y="272"/>
      <point x="307" y="326"/>
      <point x="223" y="387" type="curve"/>
      <point x="153" y="438"/>
      <point x="105" y="482"/>
      <point x="105" y="565" type="curve"/>
      <point x="80" y="565"/>
      <point x="105" y="565"/>
    </contour>
  </outline>
</glyph>
<glyph name="nine" format="1">
  <advance width="440"/>
  <unicode hex="0039"/>
  <outline>
    <contour>
      <point x="357" y="489" type="curve"/>
      <point x="336" y="420"/>
      <point x="300" y="337"/>
      <point x="214" y="337" type="curve"/>
      <point x="122" y="337"/>
      <point x="90" y="416"/>
      <point x="90" y="520" type="curve"/>
      <point x="90" y="620"/>
      <point x="122" y="703"/>
      <point x="209" y="703" type="curve"/>
      <point x="317" y="703"/>
      <point x="352" y="601"/>
      <point x="352" y="480" type="curve"/>
      <point x="352" y="258"/>
      <point x="267" y="100"/>
      <point x="62" y="9" type="curve"/>
      <point x="73" y="-15"/>
      <point x="62" y="9"/>
      <point x="73" y="-15" type="curve"/>
      <point x="287" y="79"/>
      <point x="378" y="242"/>
      <point x="378" y="481" type="curve"/>
      <point x="378" y="619"/>
      <point x="336" y="727"/>
      <point x="211" y="727" type="curve"/>
      <point x="104" y="727"/>
      <point x="64" y="636"/>
      <point x="64" y="519" type="curve"/>
      <point x="64" y="402"/>
      <point x="105" y="313"/>
      <point x="211" y="313" type="curve"/>
      <point x="307" y="313"/>
      <point x="345" y="385"/>
      <point x="373" y="481" type="curve"/>
      <point x="357" y="489"/>
      <point x="373" y="481"/>
    </contour>
  </outline>
</glyph>
<glyph name="colon" format="1">
  <advance width="210"/>
  <unicode hex="003A"/>
  <outline>
    <contour>
      <point x="123" y="409" type="curve"/>
      <point x="123" y="420"/>
      <point x="116" y="426"/>
      <point x="104" y="426" type="curve"/>
      <point x="93" y="426"/>
      <point x="87" y="419"/>
      <point x="87" y="409" type="curve"/>
      <point x="123" y="409"/>
      <point x="87" y="409"/>
      <point x="123" y="409" type="curve"/>
      <point x="123" y="397"/>
      <point x="116" y="391"/>
      <point x="104" y="391" type="curve"/>
      <point x="93" y="391"/>
      <point x="87" y="397"/>
      <point x="87" y="409" type="curve"/>
      <point x="123" y="409"/>
      <point x="87" y="409"/>
    </contour>
    <contour>
      <point x="123" y="14" type="curve"/>
      <point x="123" y="25"/>
      <point x="116" y="31"/>
      <point x="104" y="31" type="curve"/>
      <point x="93" y="31"/>
      <point x="87" y="24"/>
      <point x="87" y="14" type="curve"/>
      <point x="123" y="14"/>
      <point x="87" y="14"/>
      <point x="123" y="14" type="curve"/>
      <point x="123" y="2"/>
      <point x="116" y="-4"/>
      <point x="104" y="-4" type="curve"/>
      <point x="93" y="-4"/>
      <point x="87" y="2"/>
      <point x="87" y="14" type="curve"/>
      <point x="123" y="14"/>
      <point x="87" y="14"/>
    </contour>
  </outline>
</glyph>
<glyph name="semicolon" format="1">
  <advance width="246"/>
  <unicode hex="003B"/>
  <outline>
    <contour>
      <point x="94" y="-103" type="line"/>
      <point x="118" y="-79"/>
      <point x="138" y="-52"/>
      <point x="138" y="-4" type="curve"/>
      <point x="138" y="16"/>
      <point x="135" y="34"/>
      <point x="116" y="34" type="curve"/>
      <point x="103" y="34"/>
      <point x="96" y="27"/>
      <point x="96" y="15" type="curve"/>
      <point x="96" y="5"/>
      <point x="100" y="-1"/>
      <point x="111" y="-6" type="curve"/>
      <point x="111" y="-27"/>
      <point x="101" y="-63"/>
      <point x="78" y="-86" type="curve"/>
    </contour>
    <contour>
      <point x="142" y="427" type="curve"/>
      <point x="142" y="439"/>
      <point x="135" y="445"/>
      <point x="123" y="445" type="curve"/>
      <point x="112" y="445"/>
      <point x="106" y="438"/>
      <point x="106" y="427" type="curve"/>
      <point x="142" y="427"/>
      <point x="106" y="427"/>
      <point x="142" y="427" type="curve"/>
      <point x="142" y="416"/>
      <point x="135" y="410"/>
      <point x="123" y="410" type="curve"/>
      <point x="112" y="410"/>
      <point x="106" y="416"/>
      <point x="106" y="427" type="curve"/>
      <point x="142" y="427"/>
      <point x="106" y="427"/>
    </contour>
  </outline>
</glyph>
<glyph name="less" format="1">
  <advance width="532"/>
  <unicode hex="003C"/>
  <outline>
    <contour>
      <point x="467" y="582" type="curve"/>
      <point x="325" y="492"/>
      <point x="183" y="402"/>
      <point x="41" y="312" type="curve"/>
      <point x="41" y="288"/>
      <point x="41" y="312"/>
      <point x="41" y="288" type="curve"/>
      <point x="183" y="378"/>
      <point x="325" y="468"/>
      <point x="467" y="558" type="curve"/>
      <point x="467" y="582"/>
      <point x="467" y="558"/>
    </contour>
    <contour>
      <point x="474" y="48" type="curve"/>
      <point x="329" y="136"/>
      <point x="185" y="224"/>
      <point x="41" y="312" type="curve"/>
      <point x="41" y="288"/>
      <point x="41" y="312"/>
      <point x="41" y="288" type="curve"/>
      <point x="185" y="200"/>
      <point x="329" y="112"/>
      <point x="474" y="24" type="curve"/>
      <point x="474" y="48"/>
      <point x="474" y="24"/>
    </contour>
  </outline>
</glyph>
<glyph name="equal" format="1">
  <advance width="616"/>
  <unicode hex="003D"/>
  <outline>
    <contour>
      <point x="88" y="206" type="curve"/>
      <point x="234" y="206"/>
      <point x="381" y="206"/>
      <point x="528" y="206" type="curve"/>
      <point x="528" y="229"/>
      <point x="528" y="206"/>
      <point x="528" y="229" type="curve"/>
      <point x="381" y="229"/>
      <point x="234" y="229"/>
      <point x="88" y="229" type="curve"/>
      <point x="88" y="206"/>
      <point x="88" y="229"/>
    </contour>
    <contour>
      <point x="88" y="428" type="curve"/>
      <point x="234" y="428"/>
      <point x="381" y="428"/>
      <point x="528" y="428" type="curve"/>
      <point x="528" y="451"/>
      <point x="528" y="428"/>
      <point x="528" y="451" type="curve"/>
      <point x="381" y="451"/>
      <point x="234" y="451"/>
      <point x="88" y="451" type="curve"/>
      <point x="88" y="428"/>
      <point x="88" y="451"/>
    </contour>
  </outline>
</glyph>
<glyph name="question" format="1">
  <advance width="398"/>
  <unicode hex="003F"/>
  <outline>
    <contour>
      <point x="171" y="334" type="curve"/>
      <point x="171" y="297"/>
      <point x="171" y="258"/>
      <point x="171" y="221" type="curve"/>
      <point x="196" y="221"/>
      <point x="171" y="221"/>
      <point x="196" y="221" type="curve"/>
      <point x="196" y="258"/>
      <point x="196" y="297"/>
      <point x="196" y="334" type="curve"/>
      <point x="171" y="334"/>
      <point x="196" y="334"/>
    </contour>
    <contour>
      <point x="82" y="621" type="line"/>
      <point x="101" y="657"/>
      <point x="133" y="686"/>
      <point x="184" y="686" type="curve"/>
      <point x="271" y="686"/>
      <point x="307" y="612"/>
      <point x="307" y="519" type="curve"/>
      <point x="307" y="418"/>
      <point x="268" y="334"/>
      <point x="176" y="334" type="curve"/>
      <point x="176" y="311"/>
      <point x="176" y="334"/>
      <point x="176" y="311" type="curve"/>
      <point x="283" y="311"/>
      <point x="333" y="404"/>
      <point x="333" y="519" type="curve"/>
      <point x="333" y="624"/>
      <point x="285" y="710"/>
      <point x="186" y="710" type="curve"/>
      <point x="121" y="710"/>
      <point x="87" y="676"/>
      <point x="64" y="633" type="curve"/>
    </contour>
    <contour>
      <point x="201" y="13" type="curve"/>
      <point x="201" y="24"/>
      <point x="194" y="30"/>
      <point x="182" y="30" type="curve"/>
      <point x="171" y="30"/>
      <point x="165" y="23"/>
      <point x="165" y="13" type="curve"/>
      <point x="201" y="13"/>
      <point x="165" y="13"/>
      <point x="201" y="13" type="curve"/>
      <point x="201" y="1"/>
      <point x="194" y="-5"/>
      <point x="182" y="-5" type="curve"/>
      <point x="171" y="-5"/>
      <point x="165" y="1"/>
      <point x="165" y="13" type="curve"/>
      <point x="201" y="13"/>
      <point x="165" y="13"/>
    </contour>
  </outline>
</glyph>
<glyph name="at" format="1">
  <advance width="608"/>
  <unicode hex="0040"/>
  <outline>
    <contour>
      <point x="421" y="-103" type="curve"/>
      <point x="387" y="-131"/>
      <point x="358" y="-140"/>
      <point x="313" y="-140" type="curve"/>
      <point x="144" y="-140"/>
      <point x="86" y="2"/>
      <point x="86" y="189" type="curve"/>
      <point x="86" y="373"/>
      <point x="146" y="514"/>
      <point x="311" y="514" type="curve"/>
      <point x="465" y="514"/>
      <point x="519" y="379"/>
      <point x="519" y="208" type="curve"/>
      <point x="519" y="122"/>
      <point x="518" y="44"/>
      <point x="468" y="44" type="curve"/>
      <point x="408" y="44"/>
      <point x="408" y="116"/>
      <point x="408" y="194" type="curve"/>
      <point x="408" y="290"/>
      <point x="386" y="367"/>
      <point x="302" y="367" type="curve"/>
      <point x="214" y="367"/>
      <point x="186" y="292"/>
      <point x="186" y="195" type="curve"/>
      <point x="186" y="92"/>
      <point x="208" y="11"/>
      <point x="299" y="11" type="curve"/>
      <point x="382" y="11"/>
      <point x="396" y="90"/>
      <point x="404" y="184" type="curve"/>
      <point x="389" y="186"/>
      <point x="404" y="184"/>
      <point x="389" y="186" type="curve"/>
      <point x="376" y="111"/>
      <point x="365" y="34"/>
      <point x="302" y="34" type="curve"/>
      <point x="223" y="34"/>
      <point x="210" y="107"/>
      <point x="210" y="196" type="curve"/>
      <point x="210" y="280"/>
      <point x="227" y="345"/>
      <point x="299" y="345" type="curve"/>
      <point x="371" y="345"/>
      <point x="385" y="277"/>
      <point x="385" y="193" type="curve"/>
      <point x="385" y="102"/>
      <point x="387" y="23"/>
      <point x="466" y="23" type="curve"/>
      <point x="548" y="23"/>
      <point x="545" y="109"/>
      <point x="545" y="209" type="curve"/>
      <point x="545" y="397"/>
      <point x="486" y="538"/>
      <point x="313" y="538" type="curve"/>
      <point x="129" y="538"/>
      <point x="60" y="389"/>
      <point x="60" y="188" type="curve"/>
      <point x="60" y="-13"/>
      <point x="128" y="-163"/>
      <point x="311" y="-163" type="curve"/>
      <point x="361" y="-163"/>
      <point x="394" y="-154"/>
      <point x="433" y="-124" type="curve"/>
      <point x="421" y="-103"/>
      <point x="433" y="-124"/>
    </contour>
  </outline>
</glyph>
<glyph name="A" format="1">
  <advance width="599"/>
  <unicode hex="0041"/>
  <outline>
    <contour>
      <point x="89" y="23" type="curve"/>
      <point x="-43" y="23"/>
      <point x="109" y="23"/>
      <point x="-23" y="23" type="curve"/>
      <point x="-23" y="0"/>
      <point x="-23" y="23"/>
      <point x="-23" y="0" type="curve"/>
      <point x="21" y="0"/>
      <point x="45" y="0"/>
      <point x="89" y="0" type="curve"/>
      <point x="89" y="23"/>
      <point x="89" y="0"/>
    </contour>
    <contour>
      <point x="89" y="0" type="curve"/>
      <point x="135" y="0"/>
      <point x="70" y="0"/>
      <point x="207" y="0" type="curve"/>
      <point x="207" y="23"/>
      <point x="207" y="0"/>
      <point x="207" y="23" type="curve"/>
      <point x="70" y="23"/>
      <point x="227" y="23"/>
      <point x="89" y="23" type="curve"/>
      <point x="89" y="0"/>
      <point x="89" y="23"/>
    </contour>
    <contour>
      <point x="473" y="0" type="curve"/>
      <point x="517" y="0"/>
      <point x="541" y="0"/>
      <point x="585" y="0" type="curve"/>
      <point x="585" y="23"/>
      <point x="585" y="0"/>
      <point x="585" y="23" type="curve"/>
      <point x="453" y="23"/>
      <point x="605" y="23"/>
      <point x="473" y="23" type="curve"/>
      <point x="473" y="0"/>
      <point x="473" y="23"/>
    </contour>
    <contour>
      <point x="473" y="23" type="curve"/>
      <point x="334" y="23"/>
      <point x="492" y="23"/>
      <point x="354" y="23" type="curve"/>
      <point x="354" y="0"/>
      <point x="354" y="23"/>
      <point x="354" y="0" type="curve"/>
      <point x="400" y="0"/>
      <point x="427" y="0"/>
      <point x="473" y="0" type="curve"/>
      <point x="473" y="23"/>
      <point x="473" y="0"/>
    </contour>
    <contour>
      <point x="407" y="277" type="curve"/>
      <point x="326" y="277"/>
      <point x="247" y="277"/>
      <point x="166" y="277" type="curve"/>
      <point x="155" y="253"/>
      <point x="166" y="277"/>
      <point x="155" y="253" type="curve"/>
      <point x="242" y="253"/>
      <point x="329" y="253"/>
      <point x="416" y="253" type="curve"/>
      <point x="407" y="277"/>
      <point x="416" y="253"/>
    </contour>
    <contour>
      <point x="493" y="0" type="curve"/>
      <point x="430" y="241"/>
      <point x="367" y="481"/>
      <point x="304" y="722" type="curve"/>
      <point x="281" y="722"/>
      <point x="304" y="722"/>
      <point x="281" y="722" type="curve"/>
      <point x="343" y="481"/>
      <point x="405" y="241"/>
      <point x="467" y="0" type="curve"/>
      <point x="493" y="0"/>
      <point x="467" y="0"/>
    </contour>
    <contour>
      <point x="95" y="0" type="curve"/>
      <point x="164" y="241"/>
      <point x="233" y="481"/>
      <point x="302" y="722" type="curve"/>
      <point x="279" y="722"/>
      <point x="302" y="722"/>
      <point x="279" y="722" type="curve"/>
      <point x="209" y="481"/>
      <point x="138" y="241"/>
      <point x="67" y="0" type="curve"/>
      <point x="95" y="0"/>
      <point x="67" y="0"/>
    </contour>
    <contour>
      <point x="291" y="825" type="move" name="top"/>
    </contour>
    <contour>
      <point x="493" y="0" type="move" name="bottom"/>
    </contour>
  </outline>
</glyph>
<glyph name="C" format="1">
  <advance width="517"/>
  <unicode hex="0043"/>
  <outline>
    <contour>
      <point x="434" y="655" type="curve"/>
      <point x="434" y="535"/>
      <point x="434" y="655"/>
      <point x="434" y="535" type="curve"/>
      <point x="457" y="535"/>
      <point x="434" y="535"/>
      <point x="457" y="535" type="curve"/>
      <point x="457" y="655"/>
      <point x="457" y="535"/>
      <point x="457" y="655" type="curve"/>
      <point x="434" y="655"/>
      <point x="457" y="655"/>
    </contour>
    <contour>
      <point x="457" y="655" type="curve"/>
      <point x="413" y="694"/>
      <point x="361" y="727"/>
      <point x="297" y="727" type="curve"/>
      <point x="112" y="727"/>
      <point x="67" y="558"/>
      <point x="67" y="344" type="curve"/>
      <point x="67" y="149"/>
      <point x="111" y="-5"/>
      <point x="282" y="-5" type="curve"/>
      <point x="367" y="-5"/>
      <point x="417" y="34"/>
      <point x="471" y="96" type="curve"/>
      <point x="454" y="114"/>
      <point x="470" y="96"/>
      <point x="453" y="114" type="curve"/>
      <point x="405" y="58"/>
      <point x="359" y="22"/>
      <point x="283" y="22" type="curve"/>
      <point x="128" y="22"/>
      <point x="92" y="166"/>
      <point x="92" y="345" type="curve"/>
      <point x="92" y="542"/>
      <point x="131" y="702"/>
      <point x="295" y="702" type="curve"/>
      <point x="354" y="702"/>
      <point x="403" y="673"/>
      <point x="443" y="637" type="curve"/>
      <point x="457" y="655"/>
      <point x="443" y="637"/>
    </contour>
    <contour>
      <point x="294" y="825" type="move" name="top"/>
    </contour>
    <contour>
      <point x="282" y="-5" type="move" name="bottom"/>
    </contour>
  </outline>
</glyph>
<glyph name="D" format="1">
  <advance width="581"/>
  <unicode hex="0044"/>
  <outline>
    <contour>
      <point x="153" y="23" type="curve"/>
      <point x="21" y="23"/>
      <point x="173" y="23"/>
      <point x="41" y="23" type="curve"/>
      <point x="41" y="0"/>
      <point x="41" y="23"/>
      <point x="41" y="0" type="curve"/>
      <point x="85" y="0"/>
      <point x="109" y="0"/>
      <point x="153" y="0" type="curve"/>
      <point x="153" y="23"/>
      <point x="153" y="0"/>
    </contour>
    <contour>
      <point x="153" y="722" type="curve"/>
      <point x="109" y="722"/>
      <point x="85" y="722"/>
      <point x="41" y="722" type="curve"/>
      <point x="41" y="699"/>
      <point x="41" y="722"/>
      <point x="41" y="699" type="curve"/>
      <point x="173" y="699"/>
      <point x="21" y="699"/>
      <point x="153" y="699" type="curve"/>
      <point x="153" y="722"/>
      <point x="153" y="699"/>
    </contour>
    <contour>
      <point x="140" y="722" type="curve"/>
      <point x="140" y="481"/>
      <point x="140" y="241"/>
      <point x="140" y="0" type="curve"/>
      <point x="165" y="0"/>
      <point x="140" y="0"/>
      <point x="165" y="0" type="curve"/>
      <point x="165" y="241"/>
      <point x="165" y="481"/>
      <point x="165" y="722" type="curve"/>
      <point x="140" y="722"/>
      <point x="165" y="722"/>
    </contour>
    <contour>
      <point x="153" y="0" type="curve"/>
      <point x="199" y="0"/>
      <point x="227" y="0"/>
      <point x="272" y="0" type="curve"/>
      <point x="454" y="0"/>
      <point x="518" y="153"/>
      <point x="518" y="356" type="curve"/>
      <point x="518" y="565"/>
      <point x="450" y="722"/>
      <point x="263" y="722" type="curve"/>
      <point x="222" y="722"/>
      <point x="195" y="722"/>
      <point x="153" y="722" type="curve"/>
      <point x="153" y="713"/>
      <point x="153" y="708"/>
      <point x="153" y="699" type="curve"/>
      <point x="195" y="699"/>
      <point x="221" y="699"/>
      <point x="262" y="699" type="curve"/>
      <point x="435" y="699"/>
      <point x="493" y="551"/>
      <point x="493" y="355" type="curve"/>
      <point x="493" y="167"/>
      <point x="440" y="23"/>
      <point x="274" y="23" type="curve"/>
      <point x="229" y="23"/>
      <point x="199" y="23"/>
      <point x="153" y="23" type="curve"/>
      <point x="153" y="14"/>
      <point x="153" y="9"/>
    </contour>
    <contour>
      <point x="248" y="824" type="move" name="top"/>
    </contour>
  </outline>
</glyph>
<glyph name="G" format="1">
  <advance width="577"/>
  <unicode hex="0047"/>
  <outline>
    <contour>
      <point x="472" y="642" type="curve"/>
      <point x="472" y="522"/>
      <point x="472" y="652"/>
      <point x="472" y="532" type="curve"/>
      <point x="495" y="532"/>
      <point x="472" y="532"/>
      <point x="495" y="532" type="curve"/>
      <point x="495" y="652"/>
      <point x="495" y="522"/>
      <point x="495" y="642" type="curve"/>
      <point x="472" y="642"/>
      <point x="495" y="642"/>
    </contour>
    <contour>
      <point x="499" y="320" type="curve"/>
      <point x="448" y="320"/>
      <point x="396" y="320"/>
      <point x="345" y="320" type="curve"/>
      <point x="345" y="297"/>
      <point x="345" y="320"/>
      <point x="345" y="297" type="curve"/>
      <point x="396" y="297"/>
      <point x="448" y="297"/>
      <point x="499" y="297" type="curve"/>
      <point x="499" y="320"/>
      <point x="499" y="297"/>
    </contour>
    <contour>
      <point x="507" y="77" type="curve"/>
      <point x="507" y="158"/>
      <point x="507" y="238"/>
      <point x="507" y="320" type="curve"/>
      <point x="484" y="320"/>
      <point x="507" y="320"/>
      <point x="484" y="320" type="curve"/>
      <point x="484" y="238"/>
      <point x="484" y="158"/>
      <point x="484" y="77" type="curve"/>
      <point x="507" y="77"/>
      <point x="484" y="77"/>
    </contour>
    <contour>
      <point x="495" y="642" type="curve"/>
      <point x="437" y="696"/>
      <point x="378" y="727"/>
      <point x="299" y="727" type="curve"/>
      <point x="119" y="727"/>
      <point x="64" y="570"/>
      <point x="64" y="365" type="curve"/>
      <point x="64" y="154"/>
      <point x="122" y="-5"/>
      <point x="307" y="-5" type="curve"/>
      <point x="391" y="-5"/>
      <point x="442" y="24"/>
      <point x="507" y="77" type="curve"/>
      <point x="491" y="98"/>
      <point x="507" y="77"/>
      <point x="491" y="98" type="curve"/>
      <point x="447" y="56"/>
      <point x="383" y="20"/>
      <point x="307" y="20" type="curve"/>
      <point x="136" y="20"/>
      <point x="90" y="172"/>
      <point x="90" y="367" type="curve"/>
      <point x="90" y="554"/>
      <point x="136" y="702"/>
      <point x="299" y="702" type="curve"/>
      <point x="372" y="702"/>
      <point x="427" y="673"/>
      <point x="482" y="623" type="curve"/>
      <point x="495" y="642"/>
      <point x="482" y="623"/>
    </contour>
    <contour>
      <point x="297" y="825" type="move" name="top"/>
    </contour>
    <contour>
      <point x="307" y="-79" type="move" name="bottom"/>
    </contour>
  </outline>
</glyph>
<glyph name="J" format="1">
  <advance width="376"/>
  <unicode hex="004A"/>
  <outline>
    <contour>
      <point x="239" y="722" type="curve"/>
      <point x="195" y="722"/>
      <point x="171" y="722"/>
      <point x="127" y="722" type="curve"/>
      <point x="127" y="699"/>
      <point x="127" y="722"/>
      <point x="127" y="699" type="curve"/>
      <point x="259" y="699"/>
      <point x="107" y="699"/>
      <point x="239" y="699" type="curve"/>
      <point x="239" y="722"/>
      <point x="239" y="699"/>
    </contour>
    <contour>
      <point x="239" y="699" type="curve"/>
      <point x="371" y="699"/>
      <point x="219" y="699"/>
      <point x="351" y="699" type="curve"/>
      <point x="351" y="722"/>
      <point x="351" y="699"/>
      <point x="351" y="722" type="curve"/>
      <point x="307" y="722"/>
      <point x="283" y="722"/>
      <point x="239" y="722" type="curve"/>
      <point x="239" y="699"/>
      <point x="239" y="722"/>
    </contour>
    <contour>
      <point x="31" y="38" type="curve"/>
      <point x="56" y="14"/>
      <point x="83" y="-5"/>
      <point x="122" y="-5" type="curve"/>
      <point x="228" y="-5"/>
      <point x="251" y="83"/>
      <point x="251" y="214" type="curve"/>
      <point x="251" y="406"/>
      <point x="251" y="530"/>
      <point x="251" y="722" type="curve"/>
      <point x="240" y="722"/>
      <point x="236" y="722"/>
      <point x="225" y="722" type="curve"/>
      <point x="225" y="530"/>
      <point x="225" y="406"/>
      <point x="225" y="214" type="curve"/>
      <point x="225" y="107"/>
      <point x="215" y="18"/>
      <point x="122" y="18" type="curve"/>
      <point x="88" y="18"/>
      <point x="65" y="37"/>
      <point x="44" y="56" type="curve"/>
      <point x="39" y="49"/>
      <point x="36" y="45"/>
    </contour>
  </outline>
</glyph>
<glyph name="K" format="1">
  <advance width="537"/>
  <unicode hex="004B"/>
  <outline>
    <contour>
      <point x="409" y="722" type="curve"/>
      <point x="365" y="722"/>
      <point x="360" y="722"/>
      <point x="316" y="722" type="curve"/>
      <point x="316" y="699"/>
      <point x="316" y="722"/>
      <point x="316" y="699" type="curve"/>
      <point x="448" y="699"/>
      <point x="277" y="699"/>
      <point x="409" y="699" type="curve"/>
      <point x="409" y="722"/>
      <point x="409" y="699"/>
    </contour>
    <contour>
      <point x="425" y="0" type="curve"/>
      <point x="469" y="0"/>
      <point x="483" y="0"/>
      <point x="527" y="0" type="curve"/>
      <point x="527" y="23"/>
      <point x="527" y="0"/>
      <point x="527" y="23" type="curve"/>
      <point x="394" y="23"/>
      <point x="557" y="23"/>
      <point x="425" y="23" type="curve"/>
      <point x="425" y="0"/>
      <point x="425" y="23"/>
    </contour>
    <contour>
      <point x="409" y="699" type="curve"/>
      <point x="541" y="699"/>
      <point x="379" y="699"/>
      <point x="511" y="699" type="curve"/>
      <point x="511" y="722"/>
      <point x="511" y="699"/>
      <point x="511" y="722" type="curve"/>
      <point x="467" y="722"/>
      <point x="453" y="722"/>
      <point x="409" y="722" type="curve"/>
      <point x="409" y="699"/>
      <point x="409" y="722"/>
    </contour>
    <contour>
      <point x="152" y="722" type="curve"/>
      <point x="108" y="722"/>
      <point x="84" y="722"/>
      <point x="40" y="722" type="curve"/>
      <point x="40" y="699"/>
      <point x="40" y="722"/>
      <point x="40" y="699" type="curve"/>
      <point x="172" y="699"/>
      <point x="20" y="699"/>
      <point x="152" y="699" type="curve"/>
      <point x="152" y="722"/>
      <point x="152" y="699"/>
    </contour>
    <contour>
      <point x="152" y="699" type="curve"/>
      <point x="284" y="699"/>
      <point x="122" y="699"/>
      <point x="254" y="699" type="curve"/>
      <point x="254" y="722"/>
      <point x="254" y="699"/>
      <point x="254" y="722" type="curve"/>
      <point x="210" y="722"/>
      <point x="196" y="722"/>
      <point x="152" y="722" type="curve"/>
      <point x="152" y="699"/>
      <point x="152" y="722"/>
    </contour>
    <contour>
      <point x="152" y="0" type="curve"/>
      <point x="196" y="0"/>
      <point x="122" y="0"/>
      <point x="254" y="0" type="curve"/>
      <point x="254" y="23"/>
      <point x="254" y="0"/>
      <point x="254" y="23" type="curve"/>
      <point x="122" y="23"/>
      <point x="284" y="23"/>
      <point x="152" y="23" type="curve"/>
      <point x="152" y="0"/>
      <point x="152" y="23"/>
    </contour>
    <contour>
      <point x="152" y="23" type="curve"/>
      <point x="20" y="23"/>
      <point x="172" y="23"/>
      <point x="40" y="23" type="curve"/>
      <point x="40" y="0"/>
      <point x="40" y="23"/>
      <point x="40" y="0" type="curve"/>
      <point x="84" y="0"/>
      <point x="108" y="0"/>
      <point x="152" y="0" type="curve"/>
      <point x="152" y="23"/>
      <point x="152" y="0"/>
    </contour>
    <contour>
      <point x="402" y="722" type="curve"/>
      <point x="150" y="380" type="line"/>
      <point x="185" y="380"/>
      <point x="146" y="380"/>
      <point x="181" y="380" type="curve"/>
      <point x="437" y="721" type="line"/>
      <point x="397" y="721"/>
      <point x="442" y="722"/>
    </contour>
    <contour>
      <point x="165" y="0" type="curve"/>
      <point x="165" y="722" type="line"/>
      <point x="140" y="722"/>
      <point x="165" y="722"/>
      <point x="140" y="722" type="curve"/>
      <point x="140" y="481"/>
      <point x="140" y="241"/>
      <point x="140" y="0" type="curve"/>
      <point x="165" y="0"/>
      <point x="140" y="0"/>
    </contour>
    <contour>
      <point x="454" y="1" type="curve"/>
      <point x="181" y="380" type="line"/>
      <point x="146" y="380"/>
      <point x="185" y="380"/>
      <point x="150" y="380" type="curve"/>
      <point x="418" y="0" type="line"/>
      <point x="459" y="0"/>
      <point x="413" y="1"/>
    </contour>
    <contour>
      <point x="306" y="-79" type="move" name="bottom"/>
    </contour>
  </outline>
</glyph>
<glyph name="L" format="1">
  <advance width="487"/>
  <unicode hex="004C"/>
  <outline>
    <contour>
      <point x="447" y="11" type="curve"/>
      <point x="447" y="131"/>
      <point x="447" y="2"/>
      <point x="447" y="122" type="curve"/>
      <point x="425" y="122"/>
      <point x="447" y="122"/>
      <point x="425" y="122" type="curve"/>
      <point x="425" y="2"/>
      <point x="425" y="131"/>
      <point x="425" y="11" type="curve"/>
      <point x="447" y="11"/>
      <point x="425" y="11"/>
    </contour>
    <contour>
      <point x="151" y="23" type="curve"/>
      <point x="19" y="23"/>
      <point x="171" y="23"/>
      <point x="39" y="23" type="curve"/>
      <point x="39" y="0"/>
      <point x="39" y="23"/>
      <point x="39" y="0" type="curve"/>
      <point x="83" y="0"/>
      <point x="107" y="0"/>
      <point x="151" y="0" type="curve"/>
      <point x="151" y="23"/>
      <point x="151" y="0"/>
    </contour>
    <contour>
      <point x="151" y="722" type="curve"/>
      <point x="107" y="722"/>
      <point x="83" y="722"/>
      <point x="39" y="722" type="curve"/>
      <point x="39" y="699"/>
      <point x="39" y="722"/>
      <point x="39" y="699" type="curve"/>
      <point x="171" y="699"/>
      <point x="19" y="699"/>
      <point x="151" y="699" type="curve"/>
      <point x="151" y="722"/>
      <point x="151" y="699"/>
    </contour>
    <contour>
      <point x="151" y="699" type="curve"/>
      <point x="283" y="699"/>
      <point x="131" y="699"/>
      <point x="263" y="699" type="curve"/>
      <point x="263" y="722"/>
      <point x="263" y="699"/>
      <point x="263" y="722" type="curve"/>
      <point x="219" y="722"/>
      <point x="195" y="722"/>
      <point x="151" y="722" type="curve"/>
      <point x="151" y="699"/>
      <point x="151" y="722"/>
    </contour>
    <contour>
      <point x="165" y="0" type="curve"/>
      <point x="165" y="241"/>
      <point x="165" y="481"/>
      <point x="165" y="722" type="curve"/>
      <point x="140" y="722"/>
      <point x="165" y="722"/>
      <point x="140" y="722" type="curve"/>
      <point x="140" y="481"/>
      <point x="140" y="241"/>
      <point x="140" y="0" type="curve"/>
      <point x="165" y="0"/>
      <point x="140" y="0"/>
    </contour>
    <contour>
      <point x="151" y="0" type="curve"/>
      <point x="250" y="0"/>
      <point x="348" y="0"/>
      <point x="447" y="0" type="curve"/>
      <point x="447" y="23"/>
      <point x="447" y="0"/>
      <point x="447" y="23" type="curve"/>
      <point x="348" y="23"/>
      <point x="250" y="23"/>
      <point x="151" y="23" type="curve"/>
      <point x="151" y="0"/>
      <point x="151" y="23"/>
    </contour>
    <contour>
      <point x="153" y="825" type="move" name="top"/>
    </contour>
    <contour>
      <point x="263" y="-79" type="move" name="bottom"/>
    </contour>
  </outline>
</glyph>
<glyph name="M" format="1">
  <advance width="758"/>
  <unicode hex="004D"/>
  <outline>
    <contour>
      <point x="621" y="0" type="curve"/>
      <point x="665" y="0"/>
      <point x="690" y="0"/>
      <point x="734" y="0" type="curve"/>
      <point x="734" y="23"/>
      <point x="734" y="0"/>
      <point x="734" y="23" type="curve"/>
      <point x="602" y="23"/>
      <point x="753" y="23"/>
      <point x="621" y="23" type="curve"/>
      <point x="621" y="0"/>
      <point x="621" y="23"/>
    </contour>
    <contour>
      <point x="621" y="23" type="curve"/>
      <point x="489" y="23"/>
      <point x="641" y="23"/>
      <point x="508" y="23" type="curve"/>
      <point x="508" y="0"/>
      <point x="508" y="23"/>
      <point x="508" y="0" type="curve"/>
      <point x="552" y="0"/>
      <point x="576" y="0"/>
      <point x="621" y="0" type="curve"/>
      <point x="621" y="23"/>
      <point x="621" y="0"/>
    </contour>
    <contour>
      <point x="138" y="23" type="curve"/>
      <point x="6" y="23"/>
      <point x="158" y="23"/>
      <point x="26" y="23" type="curve"/>
      <point x="26" y="0"/>
      <point x="26" y="23"/>
      <point x="26" y="0" type="curve"/>
      <point x="70" y="0"/>
      <point x="94" y="0"/>
      <point x="138" y="0" type="curve"/>
      <point x="138" y="23"/>
      <point x="138" y="0"/>
    </contour>
    <contour>
      <point x="180" y="722" type="curve"/>
      <point x="135" y="722"/>
      <point x="111" y="722"/>
      <point x="67" y="722" type="curve"/>
      <point x="67" y="699"/>
      <point x="67" y="722"/>
      <point x="67" y="699" type="curve"/>
      <point x="200" y="699"/>
      <point x="47" y="699"/>
      <point x="180" y="699" type="curve"/>
      <point x="180" y="722"/>
      <point x="180" y="699"/>
    </contour>
    <contour>
      <point x="578" y="699" type="curve"/>
      <point x="710" y="699"/>
      <point x="559" y="699"/>
      <point x="691" y="699" type="curve"/>
      <point x="691" y="722"/>
      <point x="691" y="699"/>
      <point x="691" y="722" type="curve"/>
      <point x="647" y="722"/>
      <point x="622" y="722"/>
      <point x="578" y="722" type="curve"/>
      <point x="578" y="699"/>
      <point x="578" y="722"/>
    </contour>
    <contour>
      <point x="138" y="0" type="curve"/>
      <point x="182" y="0"/>
      <point x="118" y="0"/>
      <point x="250" y="0" type="curve"/>
      <point x="250" y="23"/>
      <point x="250" y="0"/>
      <point x="250" y="23" type="curve"/>
      <point x="118" y="23"/>
      <point x="270" y="23"/>
      <point x="138" y="23" type="curve"/>
      <point x="138" y="0"/>
      <point x="138" y="23"/>
    </contour>
    <contour>
      <point x="633" y="0" type="curve"/>
      <point x="618" y="241"/>
      <point x="604" y="481"/>
      <point x="589" y="722" type="curve"/>
      <point x="566" y="722"/>
      <point x="589" y="722"/>
      <point x="566" y="722" type="curve"/>
      <point x="580" y="481"/>
      <point x="594" y="241"/>
      <point x="608" y="0" type="curve"/>
      <point x="633" y="0"/>
      <point x="608" y="0"/>
    </contour>
    <contour>
      <point x="151" y="0" type="curve"/>
      <point x="164" y="241"/>
      <point x="177" y="481"/>
      <point x="190" y="722" type="curve"/>
      <point x="167" y="722"/>
      <point x="190" y="722"/>
      <point x="167" y="722" type="curve"/>
      <point x="153" y="481"/>
      <point x="139" y="241"/>
      <point x="125" y="0" type="curve"/>
      <point x="151" y="0"/>
      <point x="125" y="0"/>
    </contour>
    <contour>
      <point x="389" y="0" type="curve"/>
      <point x="323" y="241"/>
      <point x="257" y="481"/>
      <point x="192" y="722" type="curve"/>
      <point x="168" y="722"/>
      <point x="192" y="722"/>
      <point x="168" y="722" type="curve"/>
      <point x="234" y="481"/>
      <point x="299" y="241"/>
      <point x="364" y="0" type="curve"/>
      <point x="389" y="0"/>
      <point x="364" y="0"/>
    </contour>
    <contour>
      <point x="396" y="0" type="curve"/>
      <point x="460" y="241"/>
      <point x="524" y="481"/>
      <point x="588" y="722" type="curve"/>
      <point x="565" y="722"/>
      <point x="588" y="722"/>
      <point x="565" y="722" type="curve"/>
      <point x="500" y="481"/>
      <point x="435" y="241"/>
      <point x="370" y="0" type="curve"/>
      <point x="396" y="0"/>
      <point x="370" y="0"/>
    </contour>
  </outline>
</glyph>
<glyph name="P" format="1">
  <advance width="476"/>
  <unicode hex="0050"/>
  <outline>
    <contour>
      <point x="153" y="722" type="curve"/>
      <point x="109" y="722"/>
      <point x="85" y="722"/>
      <point x="41" y="722" type="curve"/>
      <point x="41" y="699"/>
      <point x="41" y="722"/>
      <point x="41" y="699" type="curve"/>
      <point x="173" y="699"/>
      <point x="21" y="699"/>
      <point x="153" y="699" type="curve"/>
      <point x="153" y="722"/>
      <point x="153" y="699"/>
    </contour>
    <contour>
      <point x="153" y="23" type="curve"/>
      <point x="21" y="23"/>
      <point x="173" y="23"/>
      <point x="41" y="23" type="curve"/>
      <point x="41" y="0"/>
      <point x="41" y="23"/>
      <point x="41" y="0" type="curve"/>
      <point x="85" y="0"/>
      <point x="109" y="0"/>
      <point x="153" y="0" type="curve"/>
      <point x="153" y="23"/>
      <point x="153" y="0"/>
    </contour>
    <contour>
      <point x="153" y="0" type="curve"/>
      <point x="197" y="0"/>
      <point x="134" y="0"/>
      <point x="266" y="0" type="curve"/>
      <point x="266" y="23"/>
      <point x="266" y="0"/>
      <point x="266" y="23" type="curve"/>
      <point x="134" y="23"/>
      <point x="286" y="23"/>
      <point x="153" y="23" type="curve"/>
      <point x="153" y="0"/>
      <point x="153" y="23"/>
    </contour>
    <contour>
      <point x="150" y="325" type="curve"/>
      <point x="182" y="300"/>
      <point x="219" y="280"/>
      <point x="262" y="280" type="curve"/>
      <point x="370" y="282"/>
      <point x="419" y="369"/>
      <point x="419" y="494" type="curve"/>
      <point x="419" y="621"/>
      <point x="363" y="722"/>
      <point x="246" y="722" type="curve"/>
      <point x="216" y="722"/>
      <point x="186" y="722"/>
      <point x="155" y="722" type="curve"/>
      <point x="155" y="699"/>
      <point x="155" y="722"/>
      <point x="155" y="699" type="curve"/>
      <point x="184" y="699"/>
      <point x="213" y="699"/>
      <point x="242" y="699" type="curve"/>
      <point x="347" y="699"/>
      <point x="394" y="607"/>
      <point x="394" y="493" type="curve"/>
      <point x="394" y="388"/>
      <point x="355" y="304"/>
      <point x="263" y="304" type="curve"/>
      <point x="220" y="304"/>
      <point x="193" y="320"/>
      <point x="159" y="346" type="curve"/>
      <point x="150" y="326"/>
      <point x="159" y="345"/>
    </contour>
    <contour>
      <point x="165" y="0" type="curve"/>
      <point x="165" y="241"/>
      <point x="165" y="481"/>
      <point x="165" y="722" type="curve"/>
      <point x="140" y="722"/>
      <point x="165" y="722"/>
      <point x="140" y="722" type="curve"/>
      <point x="140" y="481"/>
      <point x="140" y="241"/>
      <point x="140" y="0" type="curve"/>
      <point x="165" y="0"/>
      <point x="140" y="0"/>
    </contour>
  </outline>
</glyph>
<glyph name="R" format="1">
  <advance width="599"/>
  <unicode hex="0052"/>
  <outline>
    <contour>
      <point x="467" y="0" type="curve"/>
      <point x="511" y="0"/>
      <point x="535" y="0"/>
      <point x="579" y="0" type="curve"/>
      <point x="579" y="23"/>
      <point x="579" y="0"/>
      <point x="579" y="23" type="curve"/>
      <point x="447" y="23"/>
      <point x="599" y="23"/>
      <point x="467" y="23" type="curve"/>
      <point x="467" y="0"/>
      <point x="467" y="23"/>
    </contour>
    <contour>
      <point x="151" y="722" type="curve"/>
      <point x="107" y="722"/>
      <point x="83" y="722"/>
      <point x="39" y="722" type="curve"/>
      <point x="39" y="699"/>
      <point x="39" y="722"/>
      <point x="39" y="699" type="curve"/>
      <point x="171" y="699"/>
      <point x="19" y="699"/>
      <point x="151" y="699" type="curve"/>
      <point x="151" y="722"/>
      <point x="151" y="699"/>
    </contour>
    <contour>
      <point x="151" y="23" type="curve"/>
      <point x="19" y="23"/>
      <point x="171" y="23"/>
      <point x="39" y="23" type="curve"/>
      <point x="39" y="0"/>
      <point x="39" y="23"/>
      <point x="39" y="0" type="curve"/>
      <point x="83" y="0"/>
      <point x="107" y="0"/>
      <point x="151" y="0" type="curve"/>
      <point x="151" y="23"/>
      <point x="151" y="0"/>
    </contour>
    <contour>
      <point x="151" y="0" type="curve"/>
      <point x="195" y="0"/>
      <point x="132" y="0"/>
      <point x="265" y="0" type="curve"/>
      <point x="265" y="23"/>
      <point x="265" y="0"/>
      <point x="265" y="23" type="curve"/>
      <point x="132" y="23"/>
      <point x="284" y="23"/>
      <point x="151" y="23" type="curve"/>
      <point x="151" y="0"/>
      <point x="151" y="23"/>
    </contour>
    <contour>
      <point x="282" y="354" type="curve"/>
      <point x="342" y="236"/>
      <point x="402" y="118"/>
      <point x="461" y="0" type="curve"/>
      <point x="491" y="0"/>
      <point x="459" y="0"/>
      <point x="489" y="0" type="curve"/>
      <point x="430" y="118"/>
      <point x="370" y="236"/>
      <point x="310" y="354" type="curve"/>
      <point x="280" y="354"/>
      <point x="312" y="354"/>
    </contour>
    <contour>
      <point x="165" y="0" type="curve"/>
      <point x="165" y="241"/>
      <point x="165" y="481"/>
      <point x="165" y="722" type="curve"/>
      <point x="140" y="722"/>
      <point x="165" y="722"/>
      <point x="140" y="722" type="curve"/>
      <point x="140" y="481"/>
      <point x="140" y="241"/>
      <point x="140" y="0" type="curve"/>
      <point x="165" y="0"/>
      <point x="140" y="0"/>
    </contour>
    <contour>
      <point x="154" y="340" type="curve"/>
      <point x="194" y="340"/>
      <point x="233" y="340"/>
      <point x="273" y="340" type="curve"/>
      <point x="381" y="340"/>
      <point x="431" y="420"/>
      <point x="431" y="537" type="curve"/>
      <point x="431" y="650"/>
      <point x="378" y="722"/>
      <point x="270" y="722" type="curve"/>
      <point x="228" y="722"/>
      <point x="196" y="722"/>
      <point x="154" y="722" type="curve"/>
      <point x="154" y="699"/>
      <point x="154" y="722"/>
      <point x="154" y="699" type="curve"/>
      <point x="194" y="699"/>
      <point x="225" y="699"/>
      <point x="266" y="699" type="curve"/>
      <point x="360" y="699"/>
      <point x="405" y="634"/>
      <point x="405" y="535" type="curve"/>
      <point x="405" y="434"/>
      <point x="367" y="362"/>
      <point x="276" y="362" type="curve"/>
      <point x="236" y="362"/>
      <point x="194" y="362"/>
      <point x="154" y="362" type="curve"/>
      <point x="154" y="340"/>
      <point x="154" y="362"/>
    </contour>
    <contour>
      <point x="243" y="825" type="move" name="top"/>
    </contour>
    <contour>
      <point x="298" y="-79" type="move" name="bottom"/>
    </contour>
  </outline>
</glyph>
<glyph name="T" format="1">
  <advance width="530"/>
  <unicode hex="0054"/>
  <outline>
    <contour>
      <point x="48" y="710" type="curve"/>
      <point x="48" y="590"/>
      <point x="48" y="720"/>
      <point x="48" y="600" type="curve"/>
      <point x="71" y="600"/>
      <point x="48" y="600"/>
      <point x="71" y="600" type="curve"/>
      <point x="71" y="720"/>
      <point x="71" y="590"/>
      <point x="71" y="710" type="curve"/>
      <point x="48" y="710"/>
      <point x="71" y="710"/>
    </contour>
    <contour>
      <point x="459" y="710" type="curve"/>
      <point x="459" y="590"/>
      <point x="459" y="720"/>
      <point x="459" y="600" type="curve"/>
      <point x="482" y="600"/>
      <point x="459" y="600"/>
      <point x="482" y="600" type="curve"/>
      <point x="482" y="720"/>
      <point x="482" y="590"/>
      <point x="482" y="710" type="curve"/>
      <point x="459" y="710"/>
      <point x="482" y="710"/>
    </contour>
    <contour>
      <point x="265" y="0" type="curve"/>
      <point x="306" y="0"/>
      <point x="337" y="0"/>
      <point x="377" y="0" type="curve"/>
      <point x="377" y="23"/>
      <point x="377" y="0"/>
      <point x="377" y="23" type="curve"/>
      <point x="256" y="23"/>
      <point x="386" y="23"/>
      <point x="265" y="23" type="curve"/>
      <point x="265" y="0"/>
      <point x="265" y="23"/>
    </contour>
    <contour>
      <point x="265" y="23" type="curve"/>
      <point x="143" y="23"/>
      <point x="274" y="23"/>
      <point x="152" y="23" type="curve"/>
      <point x="152" y="0"/>
      <point x="152" y="23"/>
      <point x="152" y="0" type="curve"/>
      <point x="193" y="0"/>
      <point x="224" y="0"/>
      <point x="265" y="0" type="curve"/>
      <point x="265" y="23"/>
      <point x="265" y="0"/>
    </contour>
    <contour>
      <point x="277" y="0" type="curve"/>
      <point x="277" y="237"/>
      <point x="277" y="473"/>
      <point x="277" y="710" type="curve"/>
      <point x="252" y="710"/>
      <point x="277" y="710"/>
      <point x="252" y="710" type="curve"/>
      <point x="252" y="473"/>
      <point x="252" y="237"/>
      <point x="252" y="0" type="curve"/>
      <point x="277" y="0"/>
      <point x="252" y="0"/>
    </contour>
    <contour>
      <point x="48" y="697" type="curve"/>
      <point x="193" y="697"/>
      <point x="338" y="697"/>
      <point x="482" y="697" type="curve"/>
      <point x="482" y="722"/>
      <point x="482" y="697"/>
      <point x="482" y="722" type="curve"/>
      <point x="338" y="722"/>
      <point x="193" y="722"/>
      <point x="48" y="722" type="curve"/>
      <point x="48" y="697"/>
      <point x="48" y="722"/>
    </contour>
    <contour>
      <point x="265" y="825" type="move" name="top"/>
    </contour>
    <contour>
      <point x="266" y="-79" type="move" name="bottom"/>
    </contour>
  </outline>
</glyph>
<glyph name="V" format="1">
  <advance width="603"/>
  <unicode hex="0056"/>
  <outline>
    <contour>
      <point x="472" y="722" type="curve"/>
      <point x="431" y="722"/>
      <point x="397" y="722"/>
      <point x="355" y="722" type="curve"/>
      <point x="355" y="699"/>
      <point x="355" y="722"/>
      <point x="355" y="699" type="curve"/>
      <point x="481" y="699"/>
      <point x="346" y="699"/>
      <point x="472" y="699" type="curve"/>
      <point x="472" y="722"/>
      <point x="472" y="699"/>
    </contour>
    <contour>
      <point x="93" y="722" type="curve"/>
      <point x="53" y="722"/>
      <point x="21" y="722"/>
      <point x="-19" y="722" type="curve"/>
      <point x="-19" y="699"/>
      <point x="-19" y="722"/>
      <point x="-19" y="699" type="curve"/>
      <point x="102" y="699"/>
      <point x="-28" y="699"/>
      <point x="93" y="699" type="curve"/>
      <point x="93" y="722"/>
      <point x="93" y="699"/>
    </contour>
    <contour>
      <point x="473" y="699" type="curve"/>
      <point x="595" y="699"/>
      <point x="464" y="699"/>
      <point x="586" y="699" type="curve"/>
      <point x="586" y="722"/>
      <point x="586" y="699"/>
      <point x="586" y="722" type="curve"/>
      <point x="545" y="722"/>
      <point x="513" y="722"/>
      <point x="473" y="722" type="curve"/>
      <point x="473" y="699"/>
      <point x="473" y="722"/>
    </contour>
    <contour>
      <point x="93" y="699" type="curve"/>
      <point x="221" y="699"/>
      <point x="84" y="699"/>
      <point x="212" y="699" type="curve"/>
      <point x="212" y="722"/>
      <point x="212" y="699"/>
      <point x="212" y="722" type="curve"/>
      <point x="170" y="722"/>
      <point x="135" y="722"/>
      <point x="93" y="722" type="curve"/>
      <point x="93" y="699"/>
      <point x="93" y="722"/>
    </contour>
    <contour>
      <point x="468" y="722" type="curve"/>
      <point x="403" y="481"/>
      <point x="338" y="241"/>
      <point x="273" y="0" type="curve"/>
      <point x="301" y="0"/>
      <point x="273" y="0"/>
      <point x="301" y="0" type="curve"/>
      <point x="366" y="241"/>
      <point x="430" y="481"/>
      <point x="495" y="722" type="curve"/>
      <point x="468" y="722"/>
      <point x="495" y="722"/>
    </contour>
    <contour>
      <point x="71" y="722" type="curve"/>
      <point x="137" y="481"/>
      <point x="203" y="241"/>
      <point x="269" y="0" type="curve"/>
      <point x="297" y="0"/>
      <point x="269" y="0"/>
      <point x="297" y="0" type="curve"/>
      <point x="231" y="241"/>
      <point x="165" y="481"/>
      <point x="100" y="722" type="curve"/>
      <point x="71" y="722"/>
      <point x="100" y="722"/>
    </contour>
  </outline>
</glyph>
<glyph name="bracketleft" format="1">
  <advance width="235"/>
  <unicode hex="005B"/>
  <outline>
    <contour>
      <point x="196" y="771" type="curve"/>
      <point x="161" y="771"/>
      <point x="124" y="771"/>
      <point x="88" y="771" type="curve"/>
      <point x="86" y="771"/>
      <point x="83" y="771"/>
      <point x="81" y="771" type="curve"/>
      <point x="81" y="769"/>
      <point x="81" y="767"/>
      <point x="81" y="764" type="curve"/>
      <point x="81" y="470"/>
      <point x="81" y="175"/>
      <point x="81" y="-119" type="curve"/>
      <point x="81" y="-121"/>
      <point x="81" y="-123"/>
      <point x="81" y="-124" type="curve"/>
      <point x="83" y="-124"/>
      <point x="86" y="-124"/>
      <point x="87" y="-124" type="curve"/>
      <point x="123" y="-124"/>
      <point x="160" y="-124"/>
      <point x="196" y="-124" type="curve"/>
      <point x="196" y="-99"/>
      <point x="196" y="-124"/>
      <point x="196" y="-99" type="curve"/>
      <point x="160" y="-99"/>
      <point x="123" y="-99"/>
      <point x="87" y="-99" type="curve"/>
      <point x="106" y="-99"/>
      <point x="87" y="-99"/>
      <point x="106" y="-99" type="curve"/>
      <point x="106" y="-119"/>
      <point x="106" y="-99"/>
      <point x="106" y="-119" type="curve"/>
      <point x="106" y="175"/>
      <point x="106" y="470"/>
      <point x="106" y="764" type="curve"/>
      <point x="106" y="746"/>
      <point x="106" y="764"/>
      <point x="106" y="746" type="curve"/>
      <point x="88" y="746"/>
      <point x="106" y="746"/>
      <point x="88" y="746" type="curve"/>
      <point x="124" y="746"/>
      <point x="161" y="746"/>
      <point x="196" y="746" type="curve"/>
      <point x="196" y="771"/>
      <point x="196" y="746"/>
    </contour>
  </outline>
</glyph>
<glyph name="backslash" format="1">
  <advance width="383"/>
  <unicode hex="005C"/>
  <outline>
    <contour>
      <point x="343" y="-68" type="curve"/>
      <point x="251" y="236"/>
      <point x="159" y="540"/>
      <point x="68" y="844" type="curve"/>
      <point x="41" y="844"/>
      <point x="68" y="844"/>
      <point x="41" y="844" type="curve"/>
      <point x="133" y="540"/>
      <point x="224" y="236"/>
      <point x="316" y="-68" type="curve"/>
      <point x="343" y="-68"/>
      <point x="316" y="-68"/>
    </contour>
  </outline>
</glyph>
<glyph name="bracketright" format="1">
  <advance width="236"/>
  <unicode hex="005D"/>
  <outline>
    <contour>
      <point x="39" y="746" type="curve"/>
      <point x="75" y="746"/>
      <point x="111" y="746"/>
      <point x="147" y="746" type="curve"/>
      <point x="144" y="749"/>
      <point x="140" y="751"/>
      <point x="138" y="755" type="curve"/>
      <point x="135" y="758"/>
      <point x="132" y="761"/>
      <point x="130" y="764" type="curve"/>
      <point x="130" y="470"/>
      <point x="129" y="175"/>
      <point x="130" y="-119" type="curve"/>
      <point x="132" y="-115"/>
      <point x="136" y="-112"/>
      <point x="139" y="-108" type="curve"/>
      <point x="141" y="-105"/>
      <point x="145" y="-103"/>
      <point x="147" y="-99" type="curve"/>
      <point x="111" y="-99"/>
      <point x="75" y="-99"/>
      <point x="39" y="-99" type="curve"/>
      <point x="39" y="-124"/>
      <point x="39" y="-99"/>
      <point x="39" y="-124" type="curve"/>
      <point x="75" y="-124"/>
      <point x="111" y="-124"/>
      <point x="147" y="-124" type="curve"/>
      <point x="155" y="-124"/>
      <point x="147" y="-124"/>
      <point x="155" y="-124" type="curve"/>
      <point x="155" y="-119"/>
      <point x="155" y="-124"/>
      <point x="155" y="-119" type="curve"/>
      <point x="155" y="175"/>
      <point x="155" y="470"/>
      <point x="155" y="764" type="curve"/>
      <point x="155" y="771"/>
      <point x="155" y="764"/>
      <point x="155" y="771" type="curve"/>
      <point x="147" y="771"/>
      <point x="155" y="771"/>
      <point x="147" y="771" type="curve"/>
      <point x="111" y="771"/>
      <point x="75" y="771"/>
      <point x="39" y="771" type="curve"/>
      <point x="39" y="746"/>
      <point x="39" y="771"/>
    </contour>
  </outline>
</glyph>
<glyph name="asciicircum" format="1">
  <advance width="418"/>
  <unicode hex="005E"/>
  <outline>
    <contour>
      <point x="99" y="466" type="curve"/>
      <point x="140" y="581"/>
      <point x="181" y="695"/>
      <point x="221" y="809" type="curve"/>
      <point x="196" y="809"/>
      <point x="221" y="809"/>
      <point x="196" y="809" type="curve"/>
      <point x="155" y="695"/>
      <point x="115" y="581"/>
      <point x="74" y="466" type="curve"/>
      <point x="99" y="466"/>
      <point x="74" y="466"/>
    </contour>
    <contour>
      <point x="345" y="466" type="curve"/>
      <point x="305" y="577"/>
      <point x="261" y="699"/>
      <point x="221" y="809" type="curve"/>
      <point x="196" y="809"/>
      <point x="221" y="809"/>
      <point x="196" y="809" type="curve"/>
      <point x="236" y="699"/>
      <point x="280" y="577"/>
      <point x="320" y="466" type="curve"/>
      <point x="345" y="466"/>
      <point x="320" y="466"/>
    </contour>
  </outline>
</glyph>
<glyph name="underscore" format="1">
  <advance width="478"/>
  <unicode hex="005F"/>
  <outline>
    <contour>
      <point x="-1" y="-210" type="curve"/>
      <point x="159" y="-210"/>
      <point x="318" y="-210"/>
      <point x="477" y="-210" type="curve"/>
      <point x="477" y="-187"/>
      <point x="477" y="-210"/>
      <point x="477" y="-187" type="curve"/>
      <point x="318" y="-187"/>
      <point x="159" y="-187"/>
      <point x="-1" y="-187" type="curve"/>
      <point x="-1" y="-210"/>
      <point x="-1" y="-187"/>
    </contour>
  </outline>
</glyph>
<glyph name="b" format="1">
  <advance width="491"/>
  <unicode hex="0062"/>
  <outline>
    <contour>
      <point x="120" y="800" type="curve"/>
      <point x="79" y="800"/>
      <point x="47" y="800"/>
      <point x="7" y="800" type="curve"/>
      <point x="7" y="777"/>
      <point x="7" y="800"/>
      <point x="7" y="777" type="curve"/>
      <point x="128" y="777"/>
      <point x="-2" y="777"/>
      <point x="120" y="777" type="curve"/>
      <point x="120" y="800"/>
      <point x="120" y="777"/>
    </contour>
    <contour>
      <point x="125" y="404" type="curve"/>
      <point x="140" y="450"/>
      <point x="192" y="515"/>
      <point x="262" y="515" type="curve"/>
      <point x="368" y="515"/>
      <point x="402" y="398"/>
      <point x="402" y="269" type="curve"/>
      <point x="402" y="144"/>
      <point x="361" y="18"/>
      <point x="262" y="18" type="curve"/>
      <point x="202" y="18"/>
      <point x="152" y="71"/>
      <point x="126" y="136" type="curve"/>
      <point x="108" y="122"/>
      <point x="129" y="131"/>
      <point x="111" y="117" type="curve"/>
      <point x="141" y="49"/>
      <point x="191" y="-5"/>
      <point x="262" y="-5" type="curve"/>
      <point x="388" y="-5"/>
      <point x="427" y="122"/>
      <point x="427" y="270" type="curve"/>
      <point x="427" y="412"/>
      <point x="390" y="538"/>
      <point x="262" y="538" type="curve"/>
      <point x="183" y="538"/>
      <point x="129" y="479"/>
      <point x="112" y="429" type="curve"/>
      <point x="125" y="411"/>
      <point x="112" y="422"/>
    </contour>
    <contour>
      <point x="130" y="0" type="curve"/>
      <point x="130" y="267"/>
      <point x="130" y="533"/>
      <point x="130" y="800" type="curve"/>
      <point x="105" y="800"/>
      <point x="130" y="800"/>
      <point x="105" y="800" type="curve"/>
      <point x="105" y="533"/>
      <point x="105" y="267"/>
      <point x="105" y="0" type="curve"/>
      <point x="130" y="0"/>
      <point x="105" y="0"/>
    </contour>
    <contour>
      <point x="120" y="23" type="curve"/>
      <point x="-2" y="23"/>
      <point x="128" y="23"/>
      <point x="7" y="23" type="curve"/>
      <point x="7" y="0"/>
      <point x="7" y="23"/>
      <point x="7" y="0" type="curve"/>
      <point x="47" y="0"/>
      <point x="79" y="0"/>
      <point x="120" y="0" type="curve"/>
      <point x="120" y="23"/>
      <point x="120" y="0"/>
    </contour>
  </outline>
</glyph>
<glyph name="c" format="1">
  <advance width="410"/>
  <unicode hex="0063"/>
  <outline>
    <contour>
      <point x="326" y="473" type="curve"/>
      <point x="326" y="353"/>
      <point x="326" y="483"/>
      <point x="326" y="363" type="curve"/>
      <point x="349" y="363"/>
      <point x="326" y="363"/>
      <point x="349" y="363" type="curve"/>
      <point x="349" y="483"/>
      <point x="349" y="353"/>
      <point x="349" y="473" type="curve"/>
      <point x="326" y="473"/>
      <point x="349" y="473"/>
    </contour>
    <contour>
      <point x="349" y="473" type="curve"/>
      <point x="319" y="507"/>
      <point x="279" y="538"/>
      <point x="233" y="538" type="curve"/>
      <point x="99" y="538"/>
      <point x="63" y="422"/>
      <point x="63" y="267" type="curve"/>
      <point x="63" y="112"/>
      <point x="97" y="-5"/>
      <point x="231" y="-5" type="curve"/>
      <point x="285" y="-5"/>
      <point x="329" y="35"/>
      <point x="357" y="88" type="curve"/>
      <point x="338" y="100"/>
      <point x="357" y="88"/>
      <point x="338" y="100" type="curve"/>
      <point x="318" y="63"/>
      <point x="279" y="18"/>
      <point x="232" y="18" type="curve"/>
      <point x="115" y="18"/>
      <point x="89" y="128"/>
      <point x="89" y="267" type="curve"/>
      <point x="89" y="406"/>
      <point x="119" y="515"/>
      <point x="232" y="515" type="curve"/>
      <point x="272" y="515"/>
      <point x="308" y="486"/>
      <point x="334" y="457" type="curve"/>
      <point x="349" y="473"/>
      <point x="334" y="457"/>
    </contour>
    <contour>
      <point x="230" y="670" type="move" name="top"/>
    </contour>
    <contour>
      <point x="231" y="-5" type="move" name="bottom"/>
    </contour>
  </outline>
</glyph>
<glyph name="f" format="1">
  <advance width="349"/>
  <unicode hex="0066"/>
  <outline>
    <contour>
      <point x="318" y="777" type="curve"/>
      <point x="318" y="657"/>
      <point x="318" y="787"/>
      <point x="318" y="667" type="curve"/>
      <point x="340" y="667"/>
      <point x="318" y="667"/>
      <point x="340" y="667" type="curve"/>
      <point x="340" y="787"/>
      <point x="340" y="657"/>
      <point x="340" y="777" type="curve"/>
      <point x="318" y="777"/>
      <point x="340" y="777"/>
    </contour>
    <contour>
      <point x="168" y="0" type="curve"/>
      <point x="208" y="0"/>
      <point x="240" y="0"/>
      <point x="280" y="0" type="curve"/>
      <point x="280" y="23"/>
      <point x="280" y="0"/>
      <point x="280" y="23" type="curve"/>
      <point x="159" y="23"/>
      <point x="289" y="23"/>
      <point x="168" y="23" type="curve"/>
      <point x="168" y="0"/>
      <point x="168" y="23"/>
    </contour>
    <contour>
      <point x="168" y="23" type="curve"/>
      <point x="47" y="23"/>
      <point x="177" y="23"/>
      <point x="56" y="23" type="curve"/>
      <point x="56" y="0"/>
      <point x="56" y="23"/>
      <point x="56" y="0" type="curve"/>
      <point x="96" y="0"/>
      <point x="128" y="0"/>
      <point x="168" y="0" type="curve"/>
      <point x="168" y="23"/>
      <point x="168" y="0"/>
    </contour>
    <contour>
      <point x="38" y="510" type="curve"/>
      <point x="303" y="510" type="line"/>
      <point x="303" y="533"/>
      <point x="303" y="510"/>
      <point x="303" y="533" type="curve"/>
      <point x="38" y="533" type="line"/>
      <point x="38" y="510"/>
      <point x="38" y="533"/>
    </contour>
    <contour>
      <point x="181" y="0" type="curve"/>
      <point x="181" y="640" type="line"/>
      <point x="181" y="717"/>
      <point x="200" y="783"/>
      <point x="264" y="783" type="curve"/>
      <point x="289" y="783"/>
      <point x="311" y="773"/>
      <point x="331" y="759" type="curve"/>
      <point x="340" y="777"/>
      <point x="331" y="759"/>
      <point x="340" y="777" type="curve"/>
      <point x="318" y="793"/>
      <point x="291" y="805"/>
      <point x="264" y="805" type="curve"/>
      <point x="185" y="805"/>
      <point x="154" y="729"/>
      <point x="155" y="640" type="curve"/>
      <point x="155" y="0" type="line"/>
      <point x="181" y="0"/>
      <point x="155" y="0"/>
    </contour>
  </outline>
</glyph>
<glyph name="h" format="1">
  <advance width="496"/>
  <unicode hex="0068"/>
  <outline>
    <contour>
      <point x="379" y="0" type="curve"/>
      <point x="420" y="0"/>
      <point x="452" y="0"/>
      <point x="492" y="0" type="curve"/>
      <point x="492" y="23"/>
      <point x="492" y="0"/>
      <point x="492" y="23" type="curve"/>
      <point x="371" y="23"/>
      <point x="501" y="23"/>
      <point x="379" y="23" type="curve"/>
      <point x="379" y="0"/>
      <point x="379" y="23"/>
    </contour>
    <contour>
      <point x="119" y="0" type="curve"/>
      <point x="153" y="0"/>
      <point x="111" y="0"/>
      <point x="214" y="0" type="curve"/>
      <point x="214" y="23"/>
      <point x="214" y="0"/>
      <point x="214" y="23" type="curve"/>
      <point x="111" y="23"/>
      <point x="222" y="23"/>
      <point x="119" y="23" type="curve"/>
      <point x="119" y="0"/>
      <point x="119" y="23"/>
    </contour>
    <contour>
      <point x="119" y="800" type="curve"/>
      <point x="79" y="800"/>
      <point x="47" y="800"/>
      <point x="7" y="800" type="curve"/>
      <point x="7" y="777"/>
      <point x="7" y="800"/>
      <point x="7" y="777" type="curve"/>
      <point x="128" y="777"/>
      <point x="-2" y="777"/>
      <point x="119" y="777" type="curve"/>
      <point x="119" y="800"/>
      <point x="119" y="777"/>
    </contour>
    <contour>
      <point x="119" y="23" type="curve"/>
      <point x="-2" y="23"/>
      <point x="128" y="23"/>
      <point x="7" y="23" type="curve"/>
      <point x="7" y="0"/>
      <point x="7" y="23"/>
      <point x="7" y="0" type="curve"/>
      <point x="47" y="0"/>
      <point x="79" y="0"/>
      <point x="119" y="0" type="curve"/>
      <point x="119" y="23"/>
      <point x="119" y="0"/>
    </contour>
    <contour>
      <point x="126" y="352" type="curve"/>
      <point x="139" y="426"/>
      <point x="190" y="515"/>
      <point x="266" y="515" type="curve"/>
      <point x="351" y="515"/>
      <point x="368" y="437"/>
      <point x="368" y="341" type="curve"/>
      <point x="368" y="228"/>
      <point x="368" y="114"/>
      <point x="368" y="0" type="curve"/>
      <point x="393" y="0"/>
      <point x="368" y="0"/>
      <point x="393" y="0" type="curve"/>
      <point x="393" y="115"/>
      <point x="393" y="229"/>
      <point x="393" y="344" type="curve"/>
      <point x="393" y="454"/>
      <point x="367" y="538"/>
      <point x="270" y="538" type="curve"/>
      <point x="185" y="538"/>
      <point x="124" y="452"/>
      <point x="113" y="370" type="curve"/>
      <point x="129" y="355"/>
      <point x="110" y="367"/>
    </contour>
    <contour>
      <point x="132" y="0" type="curve"/>
      <point x="132" y="267"/>
      <point x="132" y="533"/>
      <point x="132" y="800" type="curve"/>
      <point x="107" y="800"/>
      <point x="132" y="800"/>
      <point x="107" y="800" type="curve"/>
      <point x="107" y="533"/>
      <point x="107" y="267"/>
      <point x="107" y="0" type="curve"/>
      <point x="132" y="0"/>
      <point x="107" y="0"/>
    </contour>
  </outline>
</glyph>
<glyph name="j" format="1">
  <advance width="246"/>
  <unicode hex="006A"/>
  <outline>
    <contour>
      <point x="132" y="533" type="curve"/>
      <point x="91" y="533"/>
      <point x="59" y="533"/>
      <point x="19" y="533" type="curve"/>
      <point x="19" y="510"/>
      <point x="19" y="533"/>
      <point x="19" y="510" type="curve"/>
      <point x="141" y="510"/>
      <point x="10" y="510"/>
      <point x="132" y="510" type="curve"/>
      <point x="132" y="533"/>
      <point x="132" y="510"/>
    </contour>
    <contour>
      <point x="7" y="-301" type="curve"/>
      <point x="13" y="-302"/>
      <point x="21" y="-304"/>
      <point x="29" y="-304" type="curve"/>
      <point x="106" y="-304"/>
      <point x="145" y="-227"/>
      <point x="145" y="-142" type="curve"/>
      <point x="145" y="83"/>
      <point x="145" y="308"/>
      <point x="145" y="533" type="curve"/>
      <point x="119" y="533"/>
      <point x="145" y="533"/>
      <point x="119" y="533" type="curve"/>
      <point x="119" y="308"/>
      <point x="119" y="83"/>
      <point x="119" y="-142" type="curve"/>
      <point x="119" y="-207"/>
      <point x="90" y="-277"/>
      <point x="30" y="-277" type="curve"/>
      <point x="24" y="-277"/>
      <point x="16" y="-276"/>
      <point x="12" y="-275" type="curve"/>
      <point x="8" y="-297"/>
      <point x="11" y="-279"/>
    </contour>
    <contour>
      <point x="151" y="686" type="curve"/>
      <point x="151" y="697"/>
      <point x="144" y="703"/>
      <point x="133" y="703" type="curve"/>
      <point x="122" y="703"/>
      <point x="115" y="696"/>
      <point x="115" y="686" type="curve"/>
      <point x="151" y="686"/>
      <point x="115" y="686"/>
      <point x="151" y="686" type="curve"/>
      <point x="151" y="674"/>
      <point x="144" y="668"/>
      <point x="133" y="668" type="curve"/>
      <point x="122" y="668"/>
      <point x="115" y="674"/>
      <point x="115" y="686" type="curve"/>
      <point x="151" y="686"/>
      <point x="115" y="686"/>
    </contour>
  </outline>
</glyph>
<glyph name="l" format="1">
  <advance width="260"/>
  <unicode hex="006C"/>
  <outline>
    <contour>
      <point x="130" y="23" type="curve"/>
      <point x="8" y="23"/>
      <point x="130" y="23"/>
      <point x="8" y="23" type="curve"/>
      <point x="8" y="0"/>
      <point x="8" y="23"/>
      <point x="8" y="0" type="curve"/>
      <point x="49" y="0"/>
      <point x="89" y="0"/>
      <point x="130" y="0" type="curve"/>
      <point x="130" y="23"/>
      <point x="130" y="0"/>
    </contour>
    <contour>
      <point x="131" y="800" type="curve"/>
      <point x="90" y="800"/>
      <point x="50" y="800"/>
      <point x="9" y="800" type="curve"/>
      <point x="9" y="777"/>
      <point x="9" y="800"/>
      <point x="9" y="777" type="curve"/>
      <point x="131" y="777"/>
      <point x="9" y="777"/>
      <point x="131" y="777" type="curve"/>
      <point x="131" y="800"/>
      <point x="131" y="777"/>
    </contour>
    <contour>
      <point x="130" y="0" type="curve"/>
      <point x="171" y="0"/>
      <point x="211" y="0"/>
      <point x="252" y="0" type="curve"/>
      <point x="252" y="23"/>
      <point x="252" y="0"/>
      <point x="252" y="23" type="curve"/>
      <point x="130" y="23"/>
      <point x="252" y="23"/>
      <point x="130" y="23" type="curve"/>
      <point x="130" y="0"/>
      <point x="130" y="23"/>
    </contour>
    <contour>
      <point x="142" y="0" type="curve"/>
      <point x="142" y="267"/>
      <point x="142" y="533"/>
      <point x="142" y="800" type="curve"/>
      <point x="117" y="800"/>
      <point x="142" y="800"/>
      <point x="117" y="800" type="curve"/>
      <point x="117" y="533"/>
      <point x="117" y="267"/>
      <point x="117" y="0" type="curve"/>
      <point x="142" y="0"/>
      <point x="117" y="0"/>
    </contour>
    <contour>
      <point x="129" y="888" type="move" name="top"/>
    </contour>
    <contour>
      <point x="129" y="-79" type="move" name="bottom"/>
    </contour>
  </outline>
</glyph>
<glyph name="m" format="1">
  <advance width="729"/>
  <unicode hex="006D"/>
  <outline>
    <contour>
      <point x="380" y="0" type="curve"/>
      <point x="476" y="0"/>
      <point x="381" y="0"/>
      <point x="477" y="0" type="curve"/>
      <point x="477" y="23"/>
      <point x="477" y="0"/>
      <point x="477" y="23" type="curve"/>
      <point x="381" y="23"/>
      <point x="476" y="23"/>
      <point x="380" y="23" type="curve"/>
      <point x="380" y="0"/>
      <point x="380" y="23"/>
    </contour>
    <contour>
      <point x="613" y="0" type="curve"/>
      <point x="653" y="0"/>
      <point x="685" y="0"/>
      <point x="725" y="0" type="curve"/>
      <point x="725" y="23"/>
      <point x="725" y="0"/>
      <point x="725" y="23" type="curve"/>
      <point x="604" y="23"/>
      <point x="734" y="23"/>
      <point x="613" y="23" type="curve"/>
      <point x="613" y="0"/>
      <point x="613" y="23"/>
    </contour>
    <contour>
      <point x="146" y="23" type="curve"/>
      <point x="25" y="23"/>
      <point x="155" y="23"/>
      <point x="34" y="23" type="curve"/>
      <point x="34" y="0"/>
      <point x="34" y="23"/>
      <point x="34" y="0" type="curve"/>
      <point x="74" y="0"/>
      <point x="106" y="0"/>
      <point x="146" y="0" type="curve"/>
      <point x="146" y="23"/>
      <point x="146" y="0"/>
    </contour>
    <contour>
      <point x="146" y="0" type="curve"/>
      <point x="182" y="0"/>
      <point x="128" y="0"/>
      <point x="235" y="0" type="curve"/>
      <point x="235" y="23"/>
      <point x="235" y="0"/>
      <point x="235" y="23" type="curve"/>
      <point x="128" y="23"/>
      <point x="254" y="23"/>
      <point x="146" y="23" type="curve"/>
      <point x="146" y="0"/>
      <point x="146" y="23"/>
    </contour>
    <contour>
      <point x="146" y="533" type="curve"/>
      <point x="106" y="533"/>
      <point x="74" y="533"/>
      <point x="34" y="533" type="curve"/>
      <point x="34" y="510"/>
      <point x="34" y="533"/>
      <point x="34" y="510" type="curve"/>
      <point x="155" y="510"/>
      <point x="25" y="510"/>
      <point x="146" y="510" type="curve"/>
      <point x="146" y="533"/>
      <point x="146" y="510"/>
    </contour>
    <contour>
      <point x="386" y="353" type="curve"/>
      <point x="408" y="433"/>
      <point x="443" y="516"/>
      <point x="512" y="516" type="curve"/>
      <point x="598" y="516"/>
      <point x="599" y="442"/>
      <point x="599" y="341" type="curve"/>
      <point x="599" y="228"/>
      <point x="599" y="114"/>
      <point x="599" y="0" type="curve"/>
      <point x="624" y="0"/>
      <point x="599" y="0"/>
      <point x="624" y="0" type="curve"/>
      <point x="624" y="115"/>
      <point x="624" y="229"/>
      <point x="624" y="344" type="curve"/>
      <point x="624" y="458"/>
      <point x="615" y="538"/>
      <point x="516" y="538" type="curve"/>
      <point x="429" y="538"/>
      <point x="391" y="455"/>
      <point x="374" y="365" type="curve"/>
      <point x="386" y="353"/>
      <point x="374" y="365"/>
    </contour>
    <contour>
      <point x="154" y="353" type="curve"/>
      <point x="172" y="430"/>
      <point x="207" y="517"/>
      <point x="278" y="517" type="curve"/>
      <point x="365" y="517"/>
      <point x="367" y="442"/>
      <point x="367" y="341" type="curve"/>
      <point x="367" y="228"/>
      <point x="367" y="114"/>
      <point x="367" y="0" type="curve"/>
      <point x="392" y="0"/>
      <point x="367" y="0"/>
      <point x="392" y="0" type="curve"/>
      <point x="392" y="115"/>
      <point x="392" y="229"/>
      <point x="392" y="344" type="curve"/>
      <point x="392" y="458"/>
      <point x="383" y="539"/>
      <point x="284" y="539" type="curve"/>
      <point x="194" y="539"/>
      <point x="159" y="456"/>
      <point x="141" y="365" type="curve"/>
      <point x="154" y="353"/>
      <point x="141" y="365"/>
    </contour>
    <contour>
      <point x="159" y="0" type="curve"/>
      <point x="159" y="178"/>
      <point x="159" y="355"/>
      <point x="159" y="533" type="curve"/>
      <point x="134" y="533"/>
      <point x="159" y="533"/>
      <point x="134" y="533" type="curve"/>
      <point x="134" y="355"/>
      <point x="134" y="178"/>
      <point x="134" y="0" type="curve"/>
      <point x="159" y="0"/>
      <point x="134" y="0"/>
    </contour>
  </outline>
</glyph>
<glyph name="n" format="1">
  <advance width="522"/>
  <unicode hex="006E"/>
  <outline>
    <contour>
      <point x="153" y="339" type="curve"/>
      <point x="161" y="435"/>
      <point x="222" y="515"/>
      <point x="292" y="515" type="curve"/>
      <point x="374" y="515"/>
      <point x="394" y="437"/>
      <point x="394" y="341" type="curve"/>
      <point x="394" y="228"/>
      <point x="394" y="114"/>
      <point x="394" y="0" type="curve"/>
      <point x="419" y="0"/>
      <point x="394" y="0"/>
      <point x="419" y="0" type="curve"/>
      <point x="419" y="115"/>
      <point x="419" y="229"/>
      <point x="419" y="344" type="curve"/>
      <point x="419" y="453"/>
      <point x="394" y="538"/>
      <point x="297" y="538" type="curve"/>
      <point x="213" y="538"/>
      <point x="146" y="462"/>
      <point x="140" y="357" type="curve"/>
      <point x="154" y="343"/>
      <point x="138" y="353"/>
    </contour>
    <contour>
      <point x="405" y="0" type="curve"/>
      <point x="445" y="0"/>
      <point x="478" y="0"/>
      <point x="518" y="0" type="curve"/>
      <point x="518" y="23"/>
      <point x="518" y="0"/>
      <point x="518" y="23" type="curve"/>
      <point x="396" y="23"/>
      <point x="527" y="23"/>
      <point x="405" y="23" type="curve"/>
      <point x="405" y="0"/>
      <point x="405" y="23"/>
    </contour>
    <contour>
      <point x="146" y="23" type="curve"/>
      <point x="25" y="23"/>
      <point x="155" y="23"/>
      <point x="34" y="23" type="curve"/>
      <point x="34" y="0"/>
      <point x="34" y="23"/>
      <point x="34" y="0" type="curve"/>
      <point x="74" y="0"/>
      <point x="106" y="0"/>
      <point x="146" y="0" type="curve"/>
      <point x="146" y="23"/>
      <point x="146" y="0"/>
    </contour>
    <contour>
      <point x="146" y="0" type="curve"/>
      <point x="180" y="0"/>
      <point x="130" y="0"/>
      <point x="235" y="0" type="curve"/>
      <point x="235" y="23"/>
      <point x="235" y="0"/>
      <point x="235" y="23" type="curve"/>
      <point x="130" y="23"/>
      <point x="250" y="23"/>
      <point x="146" y="23" type="curve"/>
      <point x="146" y="0"/>
      <point x="146" y="23"/>
    </contour>
    <contour>
      <point x="159" y="0" type="curve"/>
      <point x="159" y="178"/>
      <point x="159" y="355"/>
      <point x="159" y="533" type="curve"/>
      <point x="134" y="533"/>
      <point x="159" y="533"/>
      <point x="134" y="533" type="curve"/>
      <point x="134" y="355"/>
      <point x="134" y="178"/>
      <point x="134" y="0" type="curve"/>
      <point x="159" y="0"/>
      <point x="134" y="0"/>
    </contour>
    <contour>
      <point x="146" y="533" type="curve"/>
      <point x="106" y="533"/>
      <point x="74" y="533"/>
      <point x="34" y="533" type="curve"/>
      <point x="34" y="510"/>
      <point x="34" y="533"/>
      <point x="34" y="510" type="curve"/>
      <point x="155" y="510"/>
      <point x="25" y="510"/>
      <point x="146" y="510" type="curve"/>
      <point x="146" y="533"/>
      <point x="146" y="510"/>
    </contour>
    <contour>
      <point x="290" y="670" type="move" name="top"/>
    </contour>
    <contour>
      <point x="291" y="-79" type="move" name="bottom"/>
    </contour>
  </outline>
</glyph>
<glyph name="q" format="1">
  <advance width="489"/>
  <unicode hex="0071"/>
  <outline>
    <contour>
      <point x="377" y="510" type="curve"/>
      <point x="491" y="510"/>
      <point x="368" y="510"/>
      <point x="482" y="510" type="curve"/>
      <point x="482" y="533"/>
      <point x="482" y="510"/>
      <point x="482" y="533" type="curve"/>
      <point x="444" y="533"/>
      <point x="414" y="533"/>
      <point x="377" y="533" type="curve"/>
      <point x="377" y="510"/>
      <point x="377" y="533"/>
    </contour>
    <contour>
      <point x="377" y="-277" type="curve"/>
      <point x="255" y="-277"/>
      <point x="385" y="-277"/>
      <point x="264" y="-277" type="curve"/>
      <point x="264" y="-300"/>
      <point x="264" y="-277"/>
      <point x="264" y="-300" type="curve"/>
      <point x="304" y="-300"/>
      <point x="336" y="-300"/>
      <point x="377" y="-300" type="curve"/>
      <point x="377" y="-277"/>
      <point x="377" y="-300"/>
    </contour>
    <contour>
      <point x="377" y="-300" type="curve"/>
      <point x="414" y="-300"/>
      <point x="444" y="-300"/>
      <point x="482" y="-300" type="curve"/>
      <point x="482" y="-277"/>
      <point x="482" y="-300"/>
      <point x="482" y="-277" type="curve"/>
      <point x="368" y="-277"/>
      <point x="491" y="-277"/>
      <point x="377" y="-277" type="curve"/>
      <point x="377" y="-300"/>
      <point x="377" y="-277"/>
    </contour>
    <contour>
      <point x="381" y="434" type="curve"/>
      <point x="352" y="503"/>
      <point x="289" y="538"/>
      <point x="227" y="538" type="curve"/>
      <point x="96" y="538"/>
      <point x="62" y="409"/>
      <point x="62" y="264" type="curve"/>
      <point x="63" y="120"/>
      <point x="101" y="-6"/>
      <point x="231" y="-6" type="curve"/>
      <point x="301" y="-6"/>
      <point x="358" y="54"/>
      <point x="381" y="121" type="curve"/>
      <point x="367" y="135"/>
      <point x="382" y="126"/>
      <point x="368" y="139" type="curve"/>
      <point x="346" y="76"/>
      <point x="293" y="17"/>
      <point x="231" y="17" type="curve"/>
      <point x="119" y="17"/>
      <point x="88" y="135"/>
      <point x="88" y="265" type="curve"/>
      <point x="88" y="396"/>
      <point x="117" y="515"/>
      <point x="228" y="515" type="curve"/>
      <point x="285" y="515"/>
      <point x="342" y="478"/>
      <point x="370" y="413" type="curve"/>
      <point x="382" y="428"/>
      <point x="369" y="419"/>
    </contour>
    <contour>
      <point x="388" y="-300" type="curve"/>
      <point x="388" y="-22"/>
      <point x="388" y="255"/>
      <point x="388" y="533" type="curve"/>
      <point x="362" y="533"/>
      <point x="388" y="533"/>
      <point x="362" y="533" type="curve"/>
      <point x="362" y="255"/>
      <point x="362" y="-22"/>
      <point x="362" y="-300" type="curve"/>
      <point x="388" y="-300"/>
      <point x="362" y="-300"/>
    </contour>
  </outline>
</glyph>
<glyph name="w" format="1">
  <advance width="742"/>
  <unicode hex="0077"/>
  <outline>
    <contour>
      <point x="627" y="510" type="curve"/>
      <point x="748" y="510"/>
      <point x="618" y="510"/>
      <point x="739" y="510" type="curve"/>
      <point x="739" y="533"/>
      <point x="739" y="510"/>
      <point x="739" y="533" type="curve"/>
      <point x="699" y="533"/>
      <point x="667" y="533"/>
      <point x="627" y="533" type="curve"/>
      <point x="627" y="510"/>
      <point x="627" y="533"/>
    </contour>
    <contour>
      <point x="627" y="533" type="curve"/>
      <point x="587" y="533"/>
      <point x="575" y="533"/>
      <point x="535" y="533" type="curve"/>
      <point x="535" y="510"/>
      <point x="535" y="533"/>
      <point x="535" y="510" type="curve"/>
      <point x="654" y="510"/>
      <point x="508" y="510"/>
      <point x="627" y="510" type="curve"/>
      <point x="627" y="533"/>
      <point x="627" y="510"/>
    </contour>
    <contour>
      <point x="113" y="533" type="curve"/>
      <point x="73" y="533"/>
      <point x="41" y="533"/>
      <point x="1" y="533" type="curve"/>
      <point x="1" y="510"/>
      <point x="1" y="533"/>
      <point x="1" y="510" type="curve"/>
      <point x="122" y="510"/>
      <point x="-8" y="510"/>
      <point x="113" y="510" type="curve"/>
      <point x="113" y="533"/>
      <point x="113" y="510"/>
    </contour>
    <contour>
      <point x="113" y="510" type="curve"/>
      <point x="233" y="510"/>
      <point x="95" y="510"/>
      <point x="215" y="510" type="curve"/>
      <point x="215" y="533"/>
      <point x="215" y="510"/>
      <point x="215" y="533" type="curve"/>
      <point x="175" y="533"/>
      <point x="153" y="533"/>
      <point x="113" y="533" type="curve"/>
      <point x="113" y="510"/>
      <point x="113" y="533"/>
    </contour>
    <contour>
      <point x="244" y="0" type="curve"/>
      <point x="292" y="178"/>
      <point x="339" y="355"/>
      <point x="387" y="533" type="curve"/>
      <point x="359" y="533"/>
      <point x="387" y="533"/>
      <point x="359" y="533" type="curve"/>
      <point x="313" y="355"/>
      <point x="266" y="178"/>
      <point x="220" y="0" type="curve"/>
      <point x="244" y="0"/>
      <point x="220" y="0"/>
    </contour>
    <contour>
      <point x="623" y="533" type="curve"/>
      <point x="580" y="355"/>
      <point x="536" y="178"/>
      <point x="493" y="0" type="curve"/>
      <point x="517" y="0"/>
      <point x="493" y="0"/>
      <point x="517" y="0" type="curve"/>
      <point x="562" y="178"/>
      <point x="606" y="355"/>
      <point x="651" y="533" type="curve"/>
      <point x="623" y="533"/>
      <point x="651" y="533"/>
    </contour>
    <contour>
      <point x="364" y="533" type="curve"/>
      <point x="407" y="355"/>
      <point x="449" y="178"/>
      <point x="492" y="0" type="curve"/>
      <point x="516" y="0"/>
      <point x="492" y="0"/>
      <point x="516" y="0" type="curve"/>
      <point x="474" y="178"/>
      <point x="432" y="355"/>
      <point x="390" y="533" type="curve"/>
      <point x="364" y="533"/>
      <point x="390" y="533"/>
    </contour>
    <contour>
      <point x="91" y="533" type="curve"/>
      <point x="134" y="355"/>
      <point x="177" y="178"/>
      <point x="219" y="0" type="curve"/>
      <point x="243" y="0"/>
      <point x="219" y="0"/>
      <point x="243" y="0" type="curve"/>
      <point x="201" y="178"/>
      <point x="160" y="355"/>
      <point x="118" y="533" type="curve"/>
      <point x="91" y="533"/>
      <point x="118" y="533"/>
    </contour>
  </outline>
</glyph>
<glyph name="x" format="1">
  <advance width="524"/>
  <unicode hex="0078"/>
  <outline>
    <contour>
      <point x="117" y="23" type="curve"/>
      <point x="-4" y="23"/>
      <point x="126" y="23"/>
      <point x="5" y="23" type="curve"/>
      <point x="5" y="0"/>
      <point x="5" y="23"/>
      <point x="5" y="0" type="curve"/>
      <point x="45" y="0"/>
      <point x="77" y="0"/>
      <point x="117" y="0" type="curve"/>
      <point x="117" y="23"/>
      <point x="117" y="0"/>
    </contour>
    <contour>
      <point x="407" y="23" type="curve"/>
      <point x="297" y="23"/>
      <point x="423" y="23"/>
      <point x="314" y="23" type="curve"/>
      <point x="314" y="0"/>
      <point x="314" y="23"/>
      <point x="314" y="0" type="curve"/>
      <point x="350" y="0"/>
      <point x="371" y="0"/>
      <point x="407" y="0" type="curve"/>
      <point x="407" y="23"/>
      <point x="407" y="0"/>
    </contour>
    <contour>
      <point x="406" y="0" type="curve"/>
      <point x="446" y="0"/>
      <point x="478" y="0"/>
      <point x="518" y="0" type="curve"/>
      <point x="518" y="23"/>
      <point x="518" y="0"/>
      <point x="518" y="23" type="curve"/>
      <point x="398" y="23"/>
      <point x="527" y="23"/>
      <point x="406" y="23" type="curve"/>
      <point x="406" y="0"/>
      <point x="406" y="23"/>
    </contour>
    <contour>
      <point x="117" y="0" type="curve"/>
      <point x="153" y="0"/>
      <point x="100" y="0"/>
      <point x="209" y="0" type="curve"/>
      <point x="209" y="23"/>
      <point x="209" y="0"/>
      <point x="209" y="23" type="curve"/>
      <point x="100" y="23"/>
      <point x="226" y="23"/>
      <point x="117" y="23" type="curve"/>
      <point x="117" y="0"/>
      <point x="117" y="23"/>
    </contour>
    <contour>
      <point x="394" y="510" type="curve"/>
      <point x="516" y="510"/>
      <point x="386" y="510"/>
      <point x="507" y="510" type="curve"/>
      <point x="507" y="533"/>
      <point x="507" y="510"/>
      <point x="507" y="533" type="curve"/>
      <point x="466" y="533"/>
      <point x="434" y="533"/>
      <point x="394" y="533" type="curve"/>
      <point x="394" y="510"/>
      <point x="394" y="533"/>
    </contour>
    <contour>
      <point x="131" y="533" type="curve"/>
      <point x="91" y="533"/>
      <point x="59" y="533"/>
      <point x="19" y="533" type="curve"/>
      <point x="19" y="510"/>
      <point x="19" y="533"/>
      <point x="19" y="510" type="curve"/>
      <point x="140" y="510"/>
      <point x="11" y="510"/>
      <point x="131" y="510" type="curve"/>
      <point x="131" y="533"/>
      <point x="131" y="510"/>
    </contour>
    <contour>
      <point x="131" y="510" type="curve"/>
      <point x="238" y="510"/>
      <point x="106" y="510"/>
      <point x="214" y="510" type="curve"/>
      <point x="214" y="533"/>
      <point x="214" y="510"/>
      <point x="214" y="533" type="curve"/>
      <point x="177" y="533"/>
      <point x="167" y="533"/>
      <point x="131" y="533" type="curve"/>
      <point x="131" y="510"/>
      <point x="131" y="533"/>
    </contour>
    <contour>
      <point x="395" y="533" type="curve"/>
      <point x="359" y="533"/>
      <point x="348" y="533"/>
      <point x="312" y="533" type="curve"/>
      <point x="312" y="510"/>
      <point x="312" y="533"/>
      <point x="312" y="510" type="curve"/>
      <point x="419" y="510"/>
      <point x="287" y="510"/>
      <point x="395" y="510" type="curve"/>
      <point x="395" y="533"/>
      <point x="395" y="510"/>
    </contour>
    <contour>
      <point x="431" y="0" type="curve"/>
      <point x="334" y="177"/>
      <point x="234" y="357"/>
      <point x="137" y="533" type="curve"/>
      <point x="110" y="533"/>
      <point x="137" y="533"/>
      <point x="110" y="533" type="curve"/>
      <point x="206" y="356"/>
      <point x="305" y="176"/>
      <point x="400" y="0" type="curve"/>
      <point x="431" y="0"/>
      <point x="400" y="0"/>
    </contour>
    <contour>
      <point x="390" y="533" type="curve"/>
      <point x="292" y="357"/>
      <point x="191" y="177"/>
      <point x="94" y="1" type="curve"/>
      <point x="124" y="1"/>
      <point x="94" y="0"/>
      <point x="124" y="0" type="curve"/>
      <point x="221" y="176"/>
      <point x="321" y="356"/>
      <point x="418" y="533" type="curve"/>
      <point x="390" y="533"/>
      <point x="418" y="533"/>
    </contour>
  </outline>
</glyph>
<glyph name="z" format="1">
  <advance width="408"/>
  <unicode hex="007A"/>
  <outline>
    <contour>
      <point x="67" y="510" type="curve"/>
      <point x="155" y="510"/>
      <point x="237" y="510"/>
      <point x="325" y="510" type="curve"/>
      <point x="323" y="513"/>
      <point x="321" y="515"/>
      <point x="318" y="517" type="curve"/>
      <point x="315" y="518"/>
      <point x="315" y="521"/>
      <point x="313" y="523" type="curve"/>
      <point x="310" y="519"/>
      <point x="307" y="516"/>
      <point x="305" y="512" type="curve"/>
      <point x="53" y="23" type="line"/>
      <point x="53" y="10"/>
      <point x="53" y="23"/>
      <point x="53" y="10" type="curve"/>
      <point x="53" y="0"/>
      <point x="53" y="10"/>
      <point x="53" y="0" type="curve"/>
      <point x="61" y="0"/>
      <point x="53" y="0"/>
      <point x="61" y="0" type="curve"/>
      <point x="360" y="0"/>
      <point x="258" y="0"/>
      <point x="358" y="0" type="curve"/>
      <point x="358" y="23"/>
      <point x="358" y="0"/>
      <point x="358" y="23" type="curve"/>
      <point x="258" y="23"/>
      <point x="161" y="23"/>
      <point x="61" y="23" type="curve"/>
      <point x="63" y="21"/>
      <point x="66" y="19"/>
      <point x="68" y="17" type="curve"/>
      <point x="70" y="16"/>
      <point x="71" y="12"/>
      <point x="73" y="10" type="curve"/>
      <point x="76" y="15"/>
      <point x="77" y="17"/>
      <point x="79" y="21" type="curve"/>
      <point x="332" y="510" type="line"/>
      <point x="332" y="523"/>
      <point x="332" y="510"/>
      <point x="332" y="523" type="curve"/>
      <point x="332" y="533"/>
      <point x="332" y="523"/>
      <point x="332" y="533" type="curve"/>
      <point x="325" y="533"/>
      <point x="332" y="533"/>
      <point x="325" y="533" type="curve"/>
      <point x="237" y="533"/>
      <point x="155" y="533"/>
      <point x="67" y="533" type="curve"/>
      <point x="67" y="510"/>
      <point x="67" y="533"/>
    </contour>
    <contour>
      <point x="67" y="522" type="curve"/>
      <point x="67" y="402"/>
      <point x="67" y="531"/>
      <point x="67" y="411" type="curve"/>
      <point x="89" y="411"/>
      <point x="67" y="411"/>
      <point x="89" y="411" type="curve"/>
      <point x="89" y="531"/>
      <point x="89" y="402"/>
      <point x="89" y="522" type="curve"/>
      <point x="67" y="522"/>
      <point x="89" y="522"/>
    </contour>
    <contour>
      <point x="358" y="11" type="curve"/>
      <point x="358" y="131"/>
      <point x="358" y="2"/>
      <point x="358" y="122" type="curve"/>
      <point x="335" y="122"/>
      <point x="358" y="122"/>
      <point x="335" y="122" type="curve"/>
      <point x="335" y="2"/>
      <point x="335" y="131"/>
      <point x="335" y="11" type="curve"/>
      <point x="358" y="11"/>
      <point x="335" y="11"/>
    </contour>
    <contour>
      <point x="204" y="670" type="move" name="top"/>
    </contour>
  </outline>
</glyph>
<glyph name="braceleft" format="1">
  <advance width="248"/>
  <unicode hex="007B"/>
  <outline>
    <contour>
      <point x="201" y="-101" type="curve"/>
      <point x="141" y="-101"/>
      <point x="132" y="-42"/>
      <point x="132" y="26" type="curve"/>
      <point x="132" y="85"/>
      <point x="132" y="144"/>
      <point x="132" y="203" type="curve"/>
      <point x="132" y="283"/>
      <point x="110" y="350"/>
      <point x="39" y="350" type="curve"/>
      <point x="39" y="327"/>
      <point x="39" y="350"/>
      <point x="39" y="327" type="curve"/>
      <point x="96" y="327"/>
      <point x="108" y="271"/>
      <point x="108" y="205" type="curve"/>
      <point x="108" y="146"/>
      <point x="108" y="86"/>
      <point x="108" y="27" type="curve"/>
      <point x="108" y="-56"/>
      <point x="129" y="-124"/>
      <point x="201" y="-124" type="curve"/>
      <point x="201" y="-101"/>
      <point x="201" y="-124"/>
    </contour>
    <contour>
      <point x="201" y="800" type="curve"/>
      <point x="129" y="800"/>
      <point x="108" y="733"/>
      <point x="108" y="650" type="curve"/>
      <point x="108" y="590"/>
      <point x="108" y="530"/>
      <point x="108" y="470" type="curve"/>
      <point x="108" y="404"/>
      <point x="96" y="350"/>
      <point x="39" y="350" type="curve"/>
      <point x="39" y="327"/>
      <point x="39" y="350"/>
      <point x="39" y="327" type="curve"/>
      <point x="110" y="327"/>
      <point x="132" y="392"/>
      <point x="132" y="473" type="curve"/>
      <point x="132" y="532"/>
      <point x="132" y="591"/>
      <point x="132" y="650" type="curve"/>
      <point x="132" y="718"/>
      <point x="141" y="777"/>
      <point x="201" y="777" type="curve"/>
      <point x="201" y="800"/>
      <point x="201" y="777"/>
    </contour>
  </outline>
</glyph>
<glyph name="bar" format="1">
  <advance width="189"/>
  <unicode hex="007C"/>
  <outline>
    <contour>
      <point x="107" y="-300" type="curve"/>
      <point x="107" y="67"/>
      <point x="107" y="433"/>
      <point x="107" y="800" type="curve"/>
      <point x="82" y="800"/>
      <point x="107" y="800"/>
      <point x="82" y="800" type="curve"/>
      <point x="82" y="433"/>
      <point x="82" y="67"/>
      <point x="82" y="-300" type="curve"/>
      <point x="107" y="-300"/>
      <point x="82" y="-300"/>
    </contour>
  </outline>
</glyph>
<glyph name="asciitilde" format="1">
  <advance width="533"/>
  <unicode hex="007E"/>
  <outline>
    <contour>
      <point x="423" y="344" type="curve"/>
      <point x="412" y="299"/>
      <point x="405" y="242"/>
      <point x="354" y="242" type="curve"/>
      <point x="318" y="242"/>
      <point x="299" y="262"/>
      <point x="276" y="290" type="curve"/>
      <point x="250" y="322"/>
      <point x="226" y="345"/>
      <point x="186" y="345" type="curve"/>
      <point x="118" y="345"/>
      <point x="101" y="292"/>
      <point x="89" y="224" type="curve"/>
      <point x="109" y="219"/>
      <point x="89" y="224"/>
      <point x="110" y="219" type="curve"/>
      <point x="120" y="271"/>
      <point x="130" y="323"/>
      <point x="184" y="323" type="curve"/>
      <point x="216" y="323"/>
      <point x="233" y="304"/>
      <point x="253" y="279" type="curve"/>
      <point x="282" y="244"/>
      <point x="307" y="220"/>
      <point x="352" y="220" type="curve"/>
      <point x="419" y="220"/>
      <point x="431" y="277"/>
      <point x="445" y="340" type="curve"/>
      <point x="424" y="344"/>
      <point x="444" y="340"/>
    </contour>
  </outline>
</glyph>
<glyph name="exclamdown" format="1">
  <advance width="215"/>
  <unicode hex="00A1"/>
  <outline>
    <contour>
      <point x="95" y="295" type="line"/>
      <point x="92" y="-198" type="line"/>
      <point x="124" y="-198" type="line"/>
      <point x="121" y="295" type="line"/>
    </contour>
    <contour>
      <point x="89" y="512" type="curve"/>
      <point x="89" y="500"/>
      <point x="96" y="494"/>
      <point x="107" y="494" type="curve"/>
      <point x="119" y="494"/>
      <point x="125" y="501"/>
      <point x="125" y="512" type="curve"/>
      <point x="89" y="512"/>
      <point x="125" y="512"/>
      <point x="89" y="512" type="curve"/>
      <point x="89" y="523"/>
      <point x="96" y="529"/>
      <point x="107" y="529" type="curve"/>
      <point x="119" y="529"/>
      <point x="125" y="523"/>
      <point x="125" y="512" type="curve"/>
      <point x="89" y="512"/>
      <point x="125" y="512"/>
    </contour>
  </outline>
</glyph>
<glyph name="cent" format="1">
  <advance width="479"/>
  <unicode hex="00A2"/>
  <outline>
    <contour>
      <point x="261" y="-53" type="curve"/>
      <point x="261" y="-13"/>
      <point x="261" y="27"/>
      <point x="261" y="67" type="curve"/>
      <point x="235" y="67"/>
      <point x="261" y="67"/>
      <point x="235" y="67" type="curve"/>
      <point x="235" y="27"/>
      <point x="235" y="-13"/>
      <point x="235" y="-53" type="curve"/>
      <point x="261" y="-53"/>
      <point x="235" y="-53"/>
    </contour>
    <contour>
      <point x="250" y="778" type="curve"/>
      <point x="250" y="742"/>
      <point x="250" y="706"/>
      <point x="250" y="670" type="curve"/>
      <point x="275" y="670"/>
      <point x="250" y="670"/>
      <point x="275" y="670" type="curve"/>
      <point x="275" y="706"/>
      <point x="275" y="742"/>
      <point x="275" y="778" type="curve"/>
      <point x="250" y="778"/>
      <point x="275" y="778"/>
    </contour>
    <contour>
      <point x="418" y="603" type="curve"/>
      <point x="373" y="655"/>
      <point x="330" y="679"/>
      <point x="266" y="679" type="curve"/>
      <point x="112" y="679"/>
      <point x="60" y="540"/>
      <point x="60" y="366" type="curve"/>
      <point x="60" y="196"/>
      <point x="97" y="54"/>
      <point x="247" y="54" type="curve"/>
      <point x="321" y="54"/>
      <point x="368" y="89"/>
      <point x="418" y="149" type="curve"/>
      <point x="400" y="165"/>
      <point x="418" y="149"/>
      <point x="400" y="165" type="curve"/>
      <point x="357" y="112"/>
      <point x="316" y="77"/>
      <point x="249" y="77" type="curve"/>
      <point x="117" y="77"/>
      <point x="85" y="210"/>
      <point x="85" y="367" type="curve"/>
      <point x="85" y="526"/>
      <point x="130" y="655"/>
      <point x="264" y="655" type="curve"/>
      <point x="323" y="655"/>
      <point x="362" y="632"/>
      <point x="401" y="589" type="curve"/>
      <point x="418" y="603"/>
      <point x="401" y="589"/>
    </contour>
    <contour>
      <point x="395" y="603" type="curve"/>
      <point x="395" y="483"/>
      <point x="395" y="603"/>
      <point x="395" y="483" type="curve"/>
      <point x="418" y="483"/>
      <point x="395" y="483"/>
      <point x="418" y="483" type="curve"/>
      <point x="418" y="603"/>
      <point x="418" y="483"/>
      <point x="418" y="603" type="curve"/>
      <point x="395" y="603"/>
      <point x="418" y="603"/>
    </contour>
  </outline>
</glyph>
<glyph name="currency" format="1">
  <advance width="545"/>
  <unicode hex="00A4"/>
  <outline>
    <contour>
      <point x="182" y="310" type="curve"/>
      <point x="182" y="390"/>
      <point x="203" y="457"/>
      <point x="273" y="457" type="curve"/>
      <point x="344" y="457"/>
      <point x="362" y="391"/>
      <point x="362" y="310" type="curve"/>
      <point x="362" y="227"/>
      <point x="347" y="157"/>
      <point x="275" y="157" type="curve"/>
      <point x="202" y="157"/>
      <point x="182" y="226"/>
      <point x="182" y="310" type="curve"/>
      <point x="157" y="310"/>
      <point x="182" y="310"/>
      <point x="157" y="310" type="curve"/>
      <point x="157" y="212"/>
      <point x="187" y="135"/>
      <point x="274" y="135" type="curve"/>
      <point x="361" y="135"/>
      <point x="388" y="215"/>
      <point x="388" y="311" type="curve"/>
      <point x="388" y="404"/>
      <point x="358" y="480"/>
      <point x="275" y="480" type="curve"/>
      <point x="189" y="480"/>
      <point x="157" y="405"/>
      <point x="157" y="310" type="curve"/>
      <point x="182" y="310"/>
      <point x="157" y="310"/>
    </contour>
    <contour>
      <point x="342" y="430" type="line"/>
      <point x="477" y="561" type="line"/>
      <point x="455" y="583" type="line"/>
      <point x="324" y="448" type="line"/>
    </contour>
    <contour>
      <point x="326" y="172" type="line"/>
      <point x="457" y="37" type="line"/>
      <point x="479" y="59" type="line"/>
      <point x="344" y="190" type="line"/>
    </contour>
    <contour>
      <point x="200" y="191" type="line"/>
      <point x="65" y="60" type="line"/>
      <point x="87" y="38" type="line"/>
      <point x="218" y="173" type="line"/>
    </contour>
    <contour>
      <point x="222" y="449" type="line"/>
      <point x="91" y="584" type="line"/>
      <point x="69" y="562" type="line"/>
      <point x="204" y="431" type="line"/>
    </contour>
  </outline>
</glyph>
<glyph name="yen" format="1">
  <advance width="613"/>
  <unicode hex="00A5"/>
  <outline>
    <contour>
      <point x="465" y="371" type="curve"/>
      <point x="415" y="371"/>
      <point x="366" y="371"/>
      <point x="317" y="371" type="curve"/>
      <point x="317" y="347"/>
      <point x="317" y="371"/>
      <point x="317" y="347" type="curve"/>
      <point x="366" y="347"/>
      <point x="415" y="347"/>
      <point x="465" y="347" type="curve"/>
      <point x="465" y="371"/>
      <point x="465" y="347"/>
    </contour>
    <contour>
      <point x="297" y="371" type="curve"/>
      <point x="248" y="371"/>
      <point x="200" y="371"/>
      <point x="152" y="371" type="curve"/>
      <point x="152" y="347"/>
      <point x="152" y="371"/>
      <point x="152" y="347" type="curve"/>
      <point x="200" y="347"/>
      <point x="248" y="347"/>
      <point x="297" y="347" type="curve"/>
      <point x="297" y="371"/>
      <point x="297" y="347"/>
    </contour>
    <contour>
      <point x="465" y="252" type="curve"/>
      <point x="360" y="252"/>
      <point x="256" y="252"/>
      <point x="152" y="252" type="curve"/>
      <point x="152" y="227"/>
      <point x="152" y="252"/>
      <point x="152" y="227" type="curve"/>
      <point x="256" y="227"/>
      <point x="360" y="227"/>
      <point x="465" y="227" type="curve"/>
      <point x="465" y="252"/>
      <point x="465" y="227"/>
    </contour>
    <contour>
      <point x="302" y="23" type="curve"/>
      <point x="181" y="23"/>
      <point x="311" y="23"/>
      <point x="190" y="23" type="curve"/>
      <point x="190" y="0"/>
      <point x="190" y="23"/>
      <point x="190" y="0" type="curve"/>
      <point x="230" y="0"/>
      <point x="262" y="0"/>
      <point x="302" y="0" type="curve"/>
      <point x="302" y="23"/>
      <point x="302" y="0"/>
    </contour>
    <contour>
      <point x="302" y="0" type="curve"/>
      <point x="342" y="0"/>
      <point x="374" y="0"/>
      <point x="414" y="0" type="curve"/>
      <point x="414" y="23"/>
      <point x="414" y="0"/>
      <point x="414" y="23" type="curve"/>
      <point x="293" y="23"/>
      <point x="423" y="23"/>
      <point x="302" y="23" type="curve"/>
      <point x="302" y="0"/>
      <point x="302" y="23"/>
    </contour>
    <contour>
      <point x="467" y="722" type="curve"/>
      <point x="427" y="722"/>
      <point x="395" y="722"/>
      <point x="355" y="722" type="curve"/>
      <point x="355" y="699"/>
      <point x="355" y="722"/>
      <point x="355" y="699" type="curve"/>
      <point x="476" y="699"/>
      <point x="346" y="699"/>
      <point x="467" y="699" type="curve"/>
      <point x="467" y="722"/>
      <point x="467" y="699"/>
    </contour>
    <contour>
      <point x="146" y="722" type="curve"/>
      <point x="106" y="722"/>
      <point x="74" y="722"/>
      <point x="34" y="722" type="curve"/>
      <point x="34" y="699"/>
      <point x="34" y="722"/>
      <point x="34" y="699" type="curve"/>
      <point x="155" y="699"/>
      <point x="25" y="699"/>
      <point x="146" y="699" type="curve"/>
      <point x="146" y="722"/>
      <point x="146" y="699"/>
    </contour>
    <contour>
      <point x="146" y="699" type="curve"/>
      <point x="267" y="699"/>
      <point x="137" y="699"/>
      <point x="258" y="699" type="curve"/>
      <point x="258" y="722"/>
      <point x="258" y="699"/>
      <point x="258" y="722" type="curve"/>
      <point x="218" y="722"/>
      <point x="186" y="722"/>
      <point x="146" y="722" type="curve"/>
      <point x="146" y="699"/>
      <point x="146" y="722"/>
    </contour>
    <contour>
      <point x="467" y="699" type="curve"/>
      <point x="588" y="699"/>
      <point x="458" y="699"/>
      <point x="579" y="699" type="curve"/>
      <point x="579" y="722"/>
      <point x="579" y="699"/>
      <point x="579" y="722" type="curve"/>
      <point x="539" y="722"/>
      <point x="507" y="722"/>
      <point x="467" y="722" type="curve"/>
      <point x="467" y="699"/>
      <point x="467" y="722"/>
    </contour>
    <contour>
      <point x="123" y="722" type="curve"/>
      <point x="178" y="594"/>
      <point x="233" y="465"/>
      <point x="288" y="337" type="curve"/>
      <point x="316" y="337"/>
      <point x="288" y="337"/>
      <point x="315" y="337" type="curve"/>
      <point x="260" y="465"/>
      <point x="205" y="594"/>
      <point x="151" y="722" type="curve"/>
      <point x="123" y="722"/>
      <point x="151" y="722"/>
    </contour>
    <contour>
      <point x="462" y="722" type="curve"/>
      <point x="405" y="594"/>
      <point x="347" y="465"/>
      <point x="289" y="337" type="curve"/>
      <point x="316" y="337"/>
      <point x="288" y="337"/>
      <point x="316" y="337" type="curve"/>
      <point x="374" y="465"/>
      <point x="432" y="594"/>
      <point x="490" y="722" type="curve"/>
      <point x="462" y="722"/>
      <point x="490" y="722"/>
    </contour>
    <contour>
      <point x="316" y="0" type="curve"/>
      <point x="316" y="115"/>
      <point x="316" y="231"/>
      <point x="316" y="346" type="curve"/>
      <point x="288" y="346"/>
      <point x="316" y="346"/>
      <point x="288" y="346" type="curve"/>
      <point x="288" y="231"/>
      <point x="288" y="115"/>
      <point x="288" y="0" type="curve"/>
      <point x="316" y="0"/>
      <point x="288" y="0"/>
    </contour>
  </outline>
</glyph>
<glyph name="section" format="1">
  <advance width="385"/>
  <unicode hex="00A7"/>
  <outline>
    <contour>
      <point x="299" y="709" type="curve"/>
      <point x="265" y="736"/>
      <point x="238" y="752"/>
      <point x="195" y="752" type="curve"/>
      <point x="125" y="752"/>
      <point x="92" y="698"/>
      <point x="92" y="627" type="curve"/>
      <point x="92" y="560"/>
      <point x="121" y="514"/>
      <point x="180" y="484" type="curve"/>
      <point x="243" y="454"/>
      <point x="297" y="429"/>
      <point x="297" y="361" type="curve"/>
      <point x="297" y="295"/>
      <point x="274" y="246"/>
      <point x="212" y="229" type="curve"/>
      <point x="227" y="211"/>
      <point x="212" y="229"/>
      <point x="227" y="211" type="curve"/>
      <point x="296" y="234"/>
      <point x="322" y="288"/>
      <point x="322" y="361" type="curve"/>
      <point x="321" y="438"/>
      <point x="265" y="472"/>
      <point x="193" y="505" type="curve"/>
      <point x="142" y="530"/>
      <point x="117" y="570"/>
      <point x="117" y="627" type="curve"/>
      <point x="117" y="683"/>
      <point x="138" y="729"/>
      <point x="193" y="729" type="curve"/>
      <point x="231" y="729"/>
      <point x="256" y="714"/>
      <point x="285" y="692" type="curve"/>
      <point x="299" y="709"/>
      <point x="285" y="692"/>
    </contour>
    <contour>
      <point x="158" y="513" type="curve"/>
      <point x="95" y="485"/>
      <point x="68" y="436"/>
      <point x="68" y="367" type="curve"/>
      <point x="68" y="292"/>
      <point x="116" y="252"/>
      <point x="186" y="220" type="curve"/>
      <point x="240" y="193"/>
      <point x="277" y="160"/>
      <point x="277" y="100" type="curve"/>
      <point x="277" y="39"/>
      <point x="252" y="-7"/>
      <point x="195" y="-7" type="curve"/>
      <point x="150" y="-7"/>
      <point x="123" y="13"/>
      <point x="91" y="45" type="curve"/>
      <point x="74" y="28"/>
      <point x="91" y="45"/>
      <point x="74" y="28" type="curve"/>
      <point x="111" y="-9"/>
      <point x="144" y="-30"/>
      <point x="194" y="-30" type="curve"/>
      <point x="265" y="-30"/>
      <point x="302" y="24"/>
      <point x="302" y="100" type="curve"/>
      <point x="301" y="168"/>
      <point x="265" y="212"/>
      <point x="202" y="241" type="curve"/>
      <point x="141" y="270"/>
      <point x="93" y="301"/>
      <point x="93" y="367" type="curve"/>
      <point x="93" y="428"/>
      <point x="115" y="472"/>
      <point x="171" y="496" type="curve"/>
      <point x="158" y="513"/>
      <point x="171" y="496"/>
    </contour>
    <contour>
      <point x="97" y="28" type="curve"/>
      <point x="97" y="148"/>
      <point x="97" y="28"/>
      <point x="97" y="148" type="curve"/>
      <point x="74" y="148"/>
      <point x="97" y="148"/>
      <point x="74" y="148" type="curve"/>
      <point x="74" y="28"/>
      <point x="74" y="148"/>
      <point x="74" y="28" type="curve"/>
      <point x="97" y="28"/>
      <point x="74" y="28"/>
    </contour>
    <contour>
      <point x="299" y="589" type="curve"/>
      <point x="299" y="709"/>
      <point x="299" y="589"/>
      <point x="299" y="709" type="curve"/>
      <point x="276" y="709"/>
      <point x="299" y="709"/>
      <point x="276" y="709" type="curve"/>
      <point x="276" y="589"/>
      <point x="276" y="709"/>
      <point x="276" y="589" type="curve"/>
      <point x="299" y="589"/>
      <point x="276" y="589"/>
    </contour>
  </outline>
</glyph>
<glyph name="dieresis" format="1">
  <advance width="325"/>
  <unicode hex="00A8"/>
  <outline>
    <contour>
      <point x="89" y="669" type="curve"/>
      <point x="89" y="680"/>
      <point x="82" y="687"/>
      <point x="70" y="687" type="curve"/>
      <point x="59" y="687"/>
      <point x="53" y="679"/>
      <point x="53" y="669" type="curve"/>
      <point x="89" y="669"/>
      <point x="53" y="669"/>
      <point x="89" y="669" type="curve"/>
      <point x="89" y="658"/>
      <point x="82" y="651"/>
      <point x="70" y="651" type="curve"/>
      <point x="59" y="651"/>
      <point x="53" y="658"/>
      <point x="53" y="669" type="curve"/>
      <point x="89" y="669"/>
      <point x="53" y="669"/>
    </contour>
    <contour>
      <point x="174" y="669" type="curve"/>
      <point x="174" y="680"/>
      <point x="167" y="687"/>
      <point x="155" y="687" type="curve"/>
      <point x="144" y="687"/>
      <point x="138" y="679"/>
      <point x="138" y="669" type="curve"/>
      <point x="174" y="669"/>
      <point x="138" y="669"/>
      <point x="174" y="669" type="curve"/>
      <point x="174" y="658"/>
      <point x="167" y="651"/>
      <point x="155" y="651" type="curve"/>
      <point x="144" y="651"/>
      <point x="138" y="658"/>
      <point x="138" y="669" type="curve"/>
      <point x="174" y="669"/>
      <point x="138" y="669"/>
    </contour>
    <contour>
      <point x="114" y="655" type="move" name="_top"/>
    </contour>
  </outline>
</glyph>
<glyph name="ordfeminine" format="1">
  <advance width="371"/>
  <unicode hex="00AA"/>
  <outline>
    <contour>
      <point x="92" y="718" type="curve"/>
      <point x="92" y="698"/>
      <point x="92" y="685"/>
      <point x="92" y="665" type="curve"/>
      <point x="100" y="665"/>
      <point x="105" y="665"/>
      <point x="113" y="665" type="curve"/>
      <point x="113" y="685"/>
      <point x="113" y="698"/>
      <point x="113" y="718" type="curve"/>
      <point x="105" y="718"/>
      <point x="100" y="718"/>
    </contour>
    <contour>
      <point x="260" y="430" type="curve"/>
      <point x="260" y="523"/>
      <point x="260" y="589"/>
      <point x="260" y="682" type="curve"/>
      <point x="260" y="733"/>
      <point x="228" y="766"/>
      <point x="177" y="766" type="curve"/>
      <point x="139" y="766"/>
      <point x="116" y="747"/>
      <point x="92" y="718" type="curve"/>
      <point x="97" y="711"/>
      <point x="101" y="707"/>
      <point x="107" y="700" type="curve"/>
      <point x="123" y="721"/>
      <point x="141" y="744"/>
      <point x="174" y="744" type="curve"/>
      <point x="213" y="744"/>
      <point x="236" y="716"/>
      <point x="236" y="675" type="curve"/>
      <point x="236" y="584"/>
      <point x="236" y="521"/>
      <point x="236" y="430" type="curve"/>
      <point x="246" y="430"/>
      <point x="251" y="430"/>
    </contour>
    <contour>
      <point x="249" y="430" type="curve"/>
      <point x="266" y="430"/>
      <point x="276" y="430"/>
      <point x="293" y="430" type="curve"/>
      <point x="293" y="439"/>
      <point x="293" y="444"/>
      <point x="293" y="452" type="curve"/>
      <point x="276" y="452"/>
      <point x="267" y="452"/>
      <point x="249" y="452" type="curve"/>
      <point x="249" y="444"/>
      <point x="249" y="439"/>
    </contour>
    <contour>
      <point x="247" y="632" type="curve"/>
      <point x="216" y="626"/>
      <point x="195" y="623"/>
      <point x="164" y="617" type="curve"/>
      <point x="113" y="606"/>
      <point x="79" y="574"/>
      <point x="79" y="520" type="curve"/>
      <point x="79" y="467"/>
      <point x="108" y="429"/>
      <point x="162" y="429" type="curve"/>
      <point x="210" y="429"/>
      <point x="232" y="464"/>
      <point x="254" y="508" type="curve"/>
      <point x="250" y="513"/>
      <point x="246" y="516"/>
      <point x="242" y="520" type="curve"/>
      <point x="223" y="483"/>
      <point x="207" y="451"/>
      <point x="167" y="451" type="curve"/>
      <point x="125" y="451"/>
      <point x="103" y="481"/>
      <point x="103" y="522" type="curve"/>
      <point x="103" y="563"/>
      <point x="126" y="589"/>
      <point x="163" y="597" type="curve"/>
      <point x="194" y="603"/>
      <point x="217" y="607"/>
      <point x="248" y="613" type="curve"/>
      <point x="248" y="620"/>
      <point x="247" y="625"/>
    </contour>
  </outline>
</glyph>
<glyph name="registered" format="1">
  <advance width="579"/>
  <unicode hex="00AE"/>
  <outline>
    <contour>
      <point x="91" y="319" type="curve"/>
      <point x="91" y="483"/>
      <point x="147" y="624"/>
      <point x="293" y="624" type="curve"/>
      <point x="435" y="624"/>
      <point x="490" y="482"/>
      <point x="490" y="318" type="curve"/>
      <point x="490" y="158"/>
      <point x="437" y="18"/>
      <point x="297" y="18" type="curve"/>
      <point x="153" y="18"/>
      <point x="91" y="155"/>
      <point x="91" y="319" type="curve"/>
      <point x="65" y="319"/>
      <point x="90" y="319"/>
      <point x="65" y="319" type="curve"/>
      <point x="65" y="144"/>
      <point x="137" y="-5"/>
      <point x="296" y="-5" type="curve"/>
      <point x="451" y="-5"/>
      <point x="514" y="145"/>
      <point x="514" y="319" type="curve"/>
      <point x="514" y="495"/>
      <point x="449" y="646"/>
      <point x="293" y="646" type="curve"/>
      <point x="134" y="646"/>
      <point x="65" y="496"/>
      <point x="65" y="319" type="curve"/>
      <point x="90" y="319"/>
      <point x="65" y="319"/>
    </contour>
    <contour>
      <point x="358" y="149" type="curve"/>
      <point x="376" y="149"/>
      <point x="393" y="149"/>
      <point x="411" y="149" type="curve"/>
      <point x="411" y="171"/>
      <point x="411" y="149"/>
      <point x="411" y="171" type="curve"/>
      <point x="399" y="171"/>
      <point x="388" y="171"/>
      <point x="376" y="171" type="curve"/>
      <point x="358" y="150"/>
      <point x="375" y="171"/>
    </contour>
    <contour>
      <point x="252" y="491" type="curve"/>
      <point x="229" y="491"/>
      <point x="207" y="491"/>
      <point x="183" y="491" type="curve"/>
      <point x="183" y="469"/>
      <point x="183" y="491"/>
      <point x="183" y="469" type="curve"/>
      <point x="198" y="469"/>
      <point x="212" y="469"/>
      <point x="226" y="469" type="curve"/>
      <point x="252" y="491"/>
      <point x="226" y="469"/>
    </contour>
    <contour>
      <point x="252" y="171" type="curve"/>
      <point x="229" y="171"/>
      <point x="207" y="171"/>
      <point x="183" y="171" type="curve"/>
      <point x="183" y="149"/>
      <point x="183" y="171"/>
      <point x="183" y="149" type="curve"/>
      <point x="198" y="149"/>
      <point x="212" y="149"/>
      <point x="226" y="149" type="curve"/>
      <point x="252" y="171"/>
      <point x="226" y="149"/>
    </contour>
    <contour>
      <point x="226" y="149" type="curve"/>
      <point x="247" y="149"/>
      <point x="266" y="149"/>
      <point x="288" y="149" type="curve"/>
      <point x="288" y="171"/>
      <point x="288" y="149"/>
      <point x="288" y="171" type="curve"/>
      <point x="275" y="171"/>
      <point x="264" y="171"/>
      <point x="252" y="171" type="curve"/>
      <point x="226" y="149"/>
      <point x="252" y="171"/>
    </contour>
    <contour>
      <point x="293" y="309" type="curve"/>
      <point x="314" y="256"/>
      <point x="337" y="201"/>
      <point x="358" y="149" type="curve"/>
      <point x="376" y="170"/>
      <point x="358" y="149"/>
      <point x="376" y="171" type="curve"/>
      <point x="320" y="310" type="line"/>
      <point x="293" y="309"/>
      <point x="320" y="310"/>
    </contour>
    <contour>
      <point x="252" y="171" type="curve"/>
      <point x="252" y="277"/>
      <point x="252" y="384"/>
      <point x="252" y="491" type="curve"/>
      <point x="226" y="469"/>
      <point x="252" y="491"/>
      <point x="226" y="469" type="curve"/>
      <point x="226" y="362"/>
      <point x="226" y="255"/>
      <point x="226" y="149" type="curve"/>
      <point x="252" y="171"/>
      <point x="226" y="149"/>
    </contour>
    <contour>
      <point x="241" y="295" type="curve"/>
      <point x="255" y="295"/>
      <point x="269" y="295"/>
      <point x="283" y="295" type="curve"/>
      <point x="340" y="295"/>
      <point x="369" y="331"/>
      <point x="369" y="392" type="curve"/>
      <point x="369" y="449"/>
      <point x="343" y="491"/>
      <point x="291" y="491" type="curve"/>
      <point x="278" y="491"/>
      <point x="265" y="491"/>
      <point x="252" y="491" type="curve"/>
      <point x="226" y="469"/>
      <point x="252" y="491"/>
      <point x="226" y="469" type="curve"/>
      <point x="246" y="469"/>
      <point x="266" y="469"/>
      <point x="286" y="469" type="curve"/>
      <point x="326" y="469"/>
      <point x="344" y="435"/>
      <point x="344" y="390" type="curve"/>
      <point x="344" y="345"/>
      <point x="326" y="317"/>
      <point x="288" y="317" type="curve"/>
      <point x="272" y="317"/>
      <point x="256" y="317"/>
      <point x="241" y="317" type="curve"/>
      <point x="241" y="295"/>
      <point x="241" y="317"/>
    </contour>
  </outline>
</glyph>
<glyph name="macron" format="1">
  <advance width="285"/>
  <unicode hex="00AF"/>
  <outline>
    <contour>
      <point x="179" y="680" type="curve"/>
      <point x="127" y="680"/>
      <point x="74" y="680"/>
      <point x="22" y="680" type="curve"/>
      <point x="22" y="658"/>
      <point x="22" y="680"/>
      <point x="22" y="658" type="curve"/>
      <point x="74" y="658"/>
      <point x="127" y="658"/>
      <point x="179" y="658" type="curve"/>
      <point x="179" y="680"/>
      <point x="179" y="658"/>
    </contour>
    <contour>
      <point x="102" y="658" type="move" name="_top"/>
    </contour>
  </outline>
</glyph>
<glyph name="degree" format="1">
  <advance width="380"/>
  <unicode hex="00B0"/>
  <outline>
    <contour>
      <point x="309" y="433" type="curve"/>
      <point x="309" y="545"/>
      <point x="287" y="640"/>
      <point x="190" y="640" type="curve"/>
      <point x="93" y="640"/>
      <point x="72" y="546"/>
      <point x="72" y="435" type="curve"/>
      <point x="95" y="435"/>
      <point x="73" y="435"/>
      <point x="96" y="435" type="curve"/>
      <point x="96" y="531"/>
      <point x="104" y="618"/>
      <point x="187" y="618" type="curve"/>
      <point x="272" y="618"/>
      <point x="285" y="531"/>
      <point x="285" y="433" type="curve"/>
      <point x="285" y="331"/>
      <point x="277" y="241"/>
      <point x="190" y="241" type="curve"/>
      <point x="103" y="241"/>
      <point x="96" y="333"/>
      <point x="96" y="435" type="curve"/>
      <point x="73" y="435"/>
      <point x="95" y="435"/>
      <point x="72" y="435" type="curve"/>
      <point x="72" y="318"/>
      <point x="89" y="219"/>
      <point x="189" y="219" type="curve"/>
      <point x="289" y="219"/>
      <point x="309" y="317"/>
    </contour>
  </outline>
</glyph>
<glyph name="plusminus" format="1">
  <advance width="628"/>
  <unicode hex="00B1"/>
  <outline>
    <contour>
      <point x="73" y="17" type="line"/>
      <point x="555" y="17" type="line"/>
      <point x="555" y="42" type="line"/>
      <point x="73" y="42" type="line"/>
    </contour>
    <contour>
      <point x="73" y="297" type="curve"/>
      <point x="555" y="297" type="line"/>
      <point x="555" y="322"/>
      <point x="555" y="297"/>
      <point x="555" y="322" type="curve"/>
      <point x="73" y="322" type="line"/>
      <point x="73" y="297"/>
      <point x="73" y="322"/>
    </contour>
    <contour>
      <point x="327" y="18" type="curve"/>
      <point x="327" y="588" type="line"/>
      <point x="301" y="588"/>
      <point x="327" y="588"/>
      <point x="301" y="588" type="curve"/>
      <point x="301" y="18" type="line"/>
      <point x="327" y="18"/>
      <point x="301" y="18"/>
    </contour>
  </outline>
</glyph>
<glyph name="threesuperior" format="1">
  <advance width="357"/>
  <unicode hex="00B3"/>
  <outline>
    <contour>
      <point x="106" y="630" type="curve"/>
      <point x="121" y="652"/>
      <point x="141" y="674"/>
      <point x="170" y="674" type="curve"/>
      <point x="218" y="674"/>
      <point x="242" y="639"/>
      <point x="242" y="588" type="curve"/>
      <point x="242" y="536"/>
      <point x="197" y="505"/>
      <point x="140" y="500" type="curve"/>
      <point x="140" y="480"/>
      <point x="140" y="500"/>
      <point x="140" y="480" type="curve"/>
      <point x="213" y="483"/>
      <point x="267" y="521"/>
      <point x="267" y="590" type="curve"/>
      <point x="267" y="653"/>
      <point x="234" y="695"/>
      <point x="173" y="695" type="curve"/>
      <point x="137" y="695"/>
      <point x="107" y="671"/>
      <point x="89" y="642" type="curve"/>
      <point x="106" y="630"/>
      <point x="89" y="642"/>
    </contour>
    <contour>
      <point x="85" y="309" type="curve"/>
      <point x="108" y="288"/>
      <point x="134" y="276"/>
      <point x="165" y="276" type="curve"/>
      <point x="235" y="272"/>
      <point x="279" y="317"/>
      <point x="278" y="388" type="curve"/>
      <point x="278" y="460"/>
      <point x="217" y="489"/>
      <point x="140" y="493" type="curve"/>
      <point x="140" y="476"/>
      <point x="140" y="493"/>
      <point x="140" y="476" type="curve"/>
      <point x="206" y="471"/>
      <point x="253" y="441"/>
      <point x="253" y="387" type="curve"/>
      <point x="253" y="333"/>
      <point x="222" y="296"/>
      <point x="168" y="298" type="curve"/>
      <point x="141" y="298"/>
      <point x="118" y="309"/>
      <point x="97" y="326" type="curve"/>
      <point x="85" y="309"/>
      <point x="97" y="326"/>
    </contour>
    <contour>
      <point x="196" y="695" type="move" name="_top"/>
    </contour>
    <contour>
      <point x="178" y="276" type="move" name="_bottom"/>
    </contour>
  </outline>
</glyph>
<glyph name="acute" format="1">
  <advance width="170"/>
  <unicode hex="00B4"/>
  <outline>
    <contour>
      <point x="31" y="590" type="line"/>
      <point x="104" y="756" type="line"/>
      <point x="72" y="756" type="line"/>
      <point x="5" y="590" type="line"/>
    </contour>
    <contour>
      <point x="19" y="590" type="move" name="_top"/>
    </contour>
  </outline>
</glyph>
<glyph name="periodcentered" format="1">
  <advance width="207"/>
  <unicode hex="00B7"/>
  <outline>
    <contour>
      <point x="122" y="440" type="curve"/>
      <point x="122" y="451"/>
      <point x="115" y="458"/>
      <point x="103" y="458" type="curve"/>
      <point x="92" y="458"/>
      <point x="86" y="450"/>
      <point x="86" y="440" type="curve"/>
      <point x="122" y="440"/>
      <point x="86" y="440"/>
      <point x="122" y="440" type="curve"/>
      <point x="122" y="429"/>
      <point x="115" y="422"/>
      <point x="103" y="422" type="curve"/>
      <point x="92" y="422"/>
      <point x="86" y="429"/>
      <point x="86" y="440" type="curve"/>
      <point x="122" y="440"/>
      <point x="86" y="440"/>
    </contour>
  </outline>
</glyph>
<glyph name="cedilla" format="1">
  <advance width="287"/>
  <unicode hex="00B8"/>
  <outline>
    <contour>
      <point x="102" y="18" type="curve"/>
      <point x="91" y="-8"/>
      <point x="81" y="-36"/>
      <point x="71" y="-62" type="curve"/>
      <point x="89" y="-81"/>
      <point x="71" y="-62"/>
      <point x="89" y="-81" type="curve"/>
      <point x="99" y="-53"/>
      <point x="111" y="-24"/>
      <point x="121" y="3" type="curve"/>
      <point x="102" y="18"/>
      <point x="121" y="3"/>
    </contour>
    <contour>
      <point x="89" y="-81" type="curve"/>
      <point x="98" y="-72"/>
      <point x="105" y="-68"/>
      <point x="118" y="-68" type="curve"/>
      <point x="144" y="-68"/>
      <point x="150" y="-94"/>
      <point x="150" y="-124" type="curve"/>
      <point x="150" y="-156"/>
      <point x="137" y="-179"/>
      <point x="109" y="-179" type="curve"/>
      <point x="90" y="-179"/>
      <point x="76" y="-175"/>
      <point x="62" y="-162" type="curve"/>
      <point x="51" y="-180"/>
      <point x="62" y="-162"/>
      <point x="51" y="-180" type="curve"/>
      <point x="68" y="-195"/>
      <point x="84" y="-202"/>
      <point x="107" y="-202" type="curve"/>
      <point x="152" y="-202"/>
      <point x="176" y="-170"/>
      <point x="176" y="-124" type="curve"/>
      <point x="176" y="-80"/>
      <point x="159" y="-45"/>
      <point x="119" y="-45" type="curve"/>
      <point x="100" y="-45"/>
      <point x="87" y="-51"/>
      <point x="71" y="-62" type="curve"/>
      <point x="89" y="-81"/>
      <point x="71" y="-62"/>
    </contour>
    <contour>
      <point x="121" y="3" type="move" name="_bottom"/>
    </contour>
  </outline>
</glyph>
<glyph name="onesuperior" format="1">
  <advance width="314"/>
  <unicode hex="00B9"/>
  <outline>
    <contour>
      <point x="174" y="280" type="curve"/>
      <point x="208" y="280"/>
      <point x="212" y="280"/>
      <point x="245" y="280" type="curve"/>
      <point x="245" y="303"/>
      <point x="245" y="280"/>
      <point x="245" y="303" type="curve"/>
      <point x="221" y="303"/>
      <point x="224" y="303"/>
      <point x="199" y="303" type="curve"/>
      <point x="174" y="280"/>
      <point x="199" y="303"/>
    </contour>
    <contour>
      <point x="199" y="303" type="curve"/>
      <point x="166" y="303"/>
      <point x="161" y="303"/>
      <point x="126" y="303" type="curve"/>
      <point x="126" y="280"/>
      <point x="126" y="303"/>
      <point x="126" y="280" type="curve"/>
      <point x="152" y="280"/>
      <point x="149" y="280"/>
      <point x="174" y="280" type="curve"/>
      <point x="199" y="303"/>
      <point x="174" y="280"/>
    </contour>
    <contour>
      <point x="98" y="558" type="line"/>
      <point x="197" y="677" type="line"/>
      <point x="174" y="686" type="line"/>
      <point x="80" y="574" type="line"/>
    </contour>
    <contour>
      <point x="199" y="303" type="curve"/>
      <point x="199" y="686" type="line"/>
      <point x="174" y="686" type="line"/>
      <point x="174" y="280" type="line"/>
      <point x="199" y="303"/>
      <point x="174" y="280"/>
    </contour>
    <contour>
      <point x="188" y="683" type="move" name="_top"/>
    </contour>
    <contour>
      <point x="189" y="285" type="move" name="_bottom"/>
    </contour>
  </outline>
</glyph>
<glyph name="guillemotright" format="1">
  <advance width="512"/>
  <unicode hex="00BB"/>
  <outline>
    <contour>
      <point x="255" y="401" type="curve"/>
      <point x="255" y="401"/>
      <point x="437" y="289"/>
      <point x="438" y="289" type="curve"/>
      <point x="438" y="264"/>
      <point x="438" y="289"/>
      <point x="438" y="264" type="curve"/>
      <point x="437" y="264"/>
      <point x="255" y="375"/>
      <point x="255" y="376" type="curve"/>
      <point x="255" y="401"/>
      <point x="255" y="376"/>
    </contour>
    <contour>
      <point x="254" y="176" type="curve"/>
      <point x="254" y="177"/>
      <point x="437" y="288"/>
      <point x="438" y="289" type="curve"/>
      <point x="438" y="264"/>
      <point x="438" y="289"/>
      <point x="438" y="264" type="curve"/>
      <point x="437" y="263"/>
      <point x="254" y="153"/>
      <point x="254" y="152" type="curve"/>
      <point x="254" y="176"/>
      <point x="254" y="152"/>
    </contour>
    <contour>
      <point x="96" y="401" type="curve"/>
      <point x="278" y="289" type="line"/>
      <point x="278" y="264"/>
      <point x="278" y="289"/>
      <point x="278" y="264" type="curve"/>
      <point x="278" y="264"/>
      <point x="96" y="375"/>
      <point x="96" y="376" type="curve"/>
      <point x="96" y="401"/>
      <point x="96" y="376"/>
    </contour>
    <contour>
      <point x="95" y="176" type="curve"/>
      <point x="95" y="177"/>
      <point x="278" y="288"/>
      <point x="278" y="289" type="curve"/>
      <point x="278" y="264"/>
      <point x="278" y="289"/>
      <point x="278" y="264" type="curve"/>
      <point x="278" y="263"/>
      <point x="95" y="153"/>
      <point x="95" y="152" type="curve"/>
      <point x="95" y="176"/>
      <point x="95" y="152"/>
    </contour>
  </outline>
</glyph>
<glyph name="onequarter" format="1">
  <advance width="666"/>
  <unicode hex="00BC"/>
  <outline>
    <contour>
      <point x="199" y="-92" type="line"/>
      <point x="499" y="757" type="line"/>
      <point x="470" y="757" type="line"/>
      <point x="171" y="-92" type="line"/>
    </contour>
    <contour>
      <point x="140" y="356" type="curve"/>
      <point x="173" y="356"/>
      <point x="178" y="356"/>
      <point x="211" y="356" type="curve"/>
      <point x="211" y="379"/>
      <point x="211" y="356"/>
      <point x="211" y="379" type="curve"/>
      <point x="186" y="379"/>
      <point x="190" y="379"/>
      <point x="165" y="379" type="curve"/>
      <point x="140" y="356"/>
      <point x="165" y="379"/>
    </contour>
    <contour>
      <point x="165" y="379" type="curve"/>
      <point x="132" y="379"/>
      <point x="126" y="379"/>
      <point x="92" y="379" type="curve"/>
      <point x="92" y="356"/>
      <point x="92" y="379"/>
      <point x="92" y="356" type="curve"/>
      <point x="118" y="356"/>
      <point x="114" y="356"/>
      <point x="140" y="356" type="curve"/>
      <point x="165" y="379"/>
      <point x="140" y="356"/>
    </contour>
    <contour>
      <point x="63" y="634" type="line"/>
      <point x="163" y="754" type="line"/>
      <point x="140" y="762" type="line"/>
      <point x="45" y="650" type="line"/>
    </contour>
    <contour>
      <point x="165" y="379" type="curve"/>
      <point x="165" y="762" type="line"/>
      <point x="140" y="762" type="line"/>
      <point x="140" y="356" type="line"/>
      <point x="165" y="379"/>
      <point x="140" y="356"/>
    </contour>
    <contour>
      <point x="643" y="46" type="line"/>
      <point x="363" y="46" type="line"/>
      <point x="363" y="26" type="line"/>
      <point x="643" y="26" type="line"/>
    </contour>
    <contour>
      <point x="377" y="26" type="line"/>
      <point x="555" y="332" type="line"/>
      <point x="531" y="341" type="line"/>
      <point x="363" y="46" type="line"/>
    </contour>
    <contour>
      <point x="555" y="-91" type="line"/>
      <point x="555" y="341" type="line"/>
      <point x="531" y="341" type="line"/>
      <point x="531" y="-91" type="line"/>
    </contour>
    <contour>
      <point x="543" y="-71" type="line"/>
      <point x="467" y="-71" type="line"/>
      <point x="467" y="-92" type="line"/>
      <point x="543" y="-92" type="line"/>
    </contour>
    <contour>
      <point x="543" y="-92" type="line"/>
      <point x="622" y="-92" type="line"/>
      <point x="622" y="-71" type="line"/>
      <point x="543" y="-71" type="line"/>
    </contour>
  </outline>
</glyph>
<glyph name="onehalf" format="1">
  <advance width="696"/>
  <unicode hex="00BD"/>
  <outline>
    <contour>
      <point x="209" y="-92" type="line"/>
      <point x="508" y="757" type="line"/>
      <point x="479" y="757" type="line"/>
      <point x="181" y="-92" type="line"/>
    </contour>
    <contour>
      <point x="137" y="356" type="curve"/>
      <point x="170" y="356"/>
      <point x="175" y="356"/>
      <point x="208" y="356" type="curve"/>
      <point x="208" y="379"/>
      <point x="208" y="356"/>
      <point x="208" y="379" type="curve"/>
      <point x="183" y="379"/>
      <point x="187" y="379"/>
      <point x="162" y="379" type="curve"/>
      <point x="137" y="356"/>
      <point x="162" y="379"/>
    </contour>
    <contour>
      <point x="162" y="379" type="curve"/>
      <point x="129" y="379"/>
      <point x="123" y="379"/>
      <point x="89" y="379" type="curve"/>
      <point x="89" y="356"/>
      <point x="89" y="379"/>
      <point x="89" y="356" type="curve"/>
      <point x="115" y="356"/>
      <point x="111" y="356"/>
      <point x="137" y="356" type="curve"/>
      <point x="162" y="379"/>
      <point x="137" y="356"/>
    </contour>
    <contour>
      <point x="60" y="634" type="line"/>
      <point x="160" y="754" type="line"/>
      <point x="137" y="762" type="line"/>
      <point x="42" y="650" type="line"/>
    </contour>
    <contour>
      <point x="162" y="379" type="curve"/>
      <point x="162" y="762" type="line"/>
      <point x="137" y="762" type="line"/>
      <point x="137" y="356" type="line"/>
      <point x="162" y="379"/>
      <point x="137" y="356"/>
    </contour>
    <contour>
      <point x="653" y="-91" type="curve"/>
      <point x="653" y="-54"/>
      <point x="653" y="-48"/>
      <point x="653" y="-10" type="curve"/>
      <point x="630" y="-10"/>
      <point x="653" y="-10"/>
      <point x="630" y="-10" type="curve"/>
      <point x="630" y="-40"/>
      <point x="630" y="-39"/>
      <point x="630" y="-69" type="curve"/>
      <point x="653" y="-91"/>
      <point x="630" y="-69"/>
    </contour>
    <contour>
      <point x="426" y="-91" type="curve"/>
      <point x="502" y="-91"/>
      <point x="578" y="-91"/>
      <point x="653" y="-91" type="curve"/>
      <point x="630" y="-69"/>
      <point x="653" y="-91"/>
      <point x="630" y="-69" type="curve"/>
      <point x="562" y="-69"/>
      <point x="494" y="-69"/>
      <point x="426" y="-69" type="curve"/>
      <point x="426" y="-91"/>
      <point x="426" y="-69"/>
    </contour>
    <contour>
      <point x="469" y="226" type="curve"/>
      <point x="484" y="267"/>
      <point x="501" y="301"/>
      <point x="545" y="301" type="curve"/>
      <point x="595" y="301"/>
      <point x="616" y="258"/>
      <point x="616" y="204" type="curve"/>
      <point x="616" y="154"/>
      <point x="593" y="123"/>
      <point x="562" y="84" type="curve"/>
      <point x="517" y="33"/>
      <point x="471" y="-18"/>
      <point x="426" y="-69" type="curve"/>
      <point x="437" y="-91"/>
      <point x="426" y="-69"/>
      <point x="437" y="-91" type="curve"/>
      <point x="484" y="-38"/>
      <point x="531" y="14"/>
      <point x="579" y="66" type="curve"/>
      <point x="614" y="112"/>
      <point x="640" y="147"/>
      <point x="640" y="205" type="curve"/>
      <point x="640" y="273"/>
      <point x="608" y="324"/>
      <point x="546" y="324" type="curve"/>
      <point x="494" y="324"/>
      <point x="466" y="290"/>
      <point x="448" y="236" type="curve"/>
      <point x="469" y="226"/>
      <point x="448" y="236"/>
    </contour>
  </outline>
</glyph>
<glyph name="questiondown" format="1">
  <advance width="398"/>
  <unicode hex="00BF"/>
  <outline>
    <contour>
      <point x="227" y="374" type="curve"/>
      <point x="227" y="411"/>
      <point x="227" y="450"/>
      <point x="227" y="487" type="curve"/>
      <point x="202" y="487"/>
      <point x="227" y="487"/>
      <point x="202" y="487" type="curve"/>
      <point x="202" y="450"/>
      <point x="202" y="411"/>
      <point x="202" y="374" type="curve"/>
      <point x="227" y="374"/>
      <point x="202" y="374"/>
    </contour>
    <contour>
      <point x="316" y="88" type="line"/>
      <point x="296" y="52"/>
      <point x="265" y="22"/>
      <point x="214" y="22" type="curve"/>
      <point x="127" y="22"/>
      <point x="91" y="97"/>
      <point x="91" y="189" type="curve"/>
      <point x="91" y="290"/>
      <point x="130" y="374"/>
      <point x="222" y="374" type="curve"/>
      <point x="222" y="397"/>
      <point x="222" y="375"/>
      <point x="222" y="398" type="curve"/>
      <point x="115" y="398"/>
      <point x="65" y="305"/>
      <point x="65" y="189" type="curve"/>
      <point x="65" y="84"/>
      <point x="113" y="-2"/>
      <point x="212" y="-2" type="curve"/>
      <point x="277" y="-2"/>
      <point x="311" y="33"/>
      <point x="334" y="75" type="curve"/>
    </contour>
    <contour>
      <point x="197" y="696" type="curve"/>
      <point x="197" y="685"/>
      <point x="204" y="678"/>
      <point x="215" y="678" type="curve"/>
      <point x="227" y="678"/>
      <point x="233" y="686"/>
      <point x="233" y="696" type="curve"/>
      <point x="197" y="696"/>
      <point x="233" y="696"/>
      <point x="197" y="696" type="curve"/>
      <point x="197" y="707"/>
      <point x="204" y="713"/>
      <point x="215" y="713" type="curve"/>
      <point x="227" y="713"/>
      <point x="233" y="707"/>
      <point x="233" y="696" type="curve"/>
      <point x="197" y="696"/>
      <point x="233" y="696"/>
    </contour>
  </outline>
</glyph>
<glyph name="Atilde" format="1">
  <advance width="599"/>
  <unicode hex="00C3"/>
  <outline>
    <contour>
      <point x="89" y="23" type="curve"/>
      <point x="-43" y="23"/>
      <point x="109" y="23"/>
      <point x="-23" y="23" type="curve"/>
      <point x="-23" y="0"/>
      <point x="-23" y="23"/>
      <point x="-23" y="0" type="curve"/>
      <point x="21" y="0"/>
      <point x="45" y="0"/>
      <point x="89" y="0" type="curve"/>
      <point x="89" y="23"/>
      <point x="89" y="0"/>
    </contour>
    <contour>
      <point x="89" y="0" type="curve"/>
      <point x="135" y="0"/>
      <point x="70" y="0"/>
      <point x="207" y="0" type="curve"/>
      <point x="207" y="23"/>
      <point x="207" y="0"/>
      <point x="207" y="23" type="curve"/>
      <point x="70" y="23"/>
      <point x="227" y="23"/>
      <point x="89" y="23" type="curve"/>
      <point x="89" y="0"/>
      <point x="89" y="23"/>
    </contour>
    <contour>
      <point x="473" y="0" type="curve"/>
      <point x="517" y="0"/>
      <point x="541" y="0"/>
      <point x="585" y="0" type="curve"/>
      <point x="585" y="23"/>
      <point x="585" y="0"/>
      <point x="585" y="23" type="curve"/>
      <point x="453" y="23"/>
      <point x="605" y="23"/>
      <point x="473" y="23" type="curve"/>
      <point x="473" y="0"/>
      <point x="473" y="23"/>
    </contour>
    <contour>
      <point x="473" y="23" type="curve"/>
      <point x="334" y="23"/>
      <point x="492" y="23"/>
      <point x="354" y="23" type="curve"/>
      <point x="354" y="0"/>
      <point x="354" y="23"/>
      <point x="354" y="0" type="curve"/>
      <point x="400" y="0"/>
      <point x="427" y="0"/>
      <point x="473" y="0" type="curve"/>
      <point x="473" y="23"/>
      <point x="473" y="0"/>
    </contour>
    <contour>
      <point x="407" y="277" type="curve"/>
      <point x="326" y="277"/>
      <point x="247" y="277"/>
      <point x="166" y="277" type="curve"/>
      <point x="155" y="253"/>
      <point x="166" y="277"/>
      <point x="155" y="253" type="curve"/>
      <point x="242" y="253"/>
      <point x="329" y="253"/>
      <point x="416" y="253" type="curve"/>
      <point x="407" y="277"/>
      <point x="416" y="253"/>
    </contour>
    <contour>
      <point x="493" y="0" type="curve"/>
      <point x="430" y="241"/>
      <point x="367" y="481"/>
      <point x="304" y="722" type="curve"/>
      <point x="281" y="722"/>
      <point x="304" y="722"/>
      <point x="281" y="722" type="curve"/>
      <point x="343" y="481"/>
      <point x="405" y="241"/>
      <point x="467" y="0" type="curve"/>
      <point x="493" y="0"/>
      <point x="467" y="0"/>
    </contour>
    <contour>
      <point x="95" y="0" type="curve"/>
      <point x="164" y="241"/>
      <point x="233" y="481"/>
      <point x="302" y="722" type="curve"/>
      <point x="279" y="722"/>
      <point x="302" y="722"/>
      <point x="279" y="722" type="curve"/>
      <point x="209" y="481"/>
      <point x="138" y="241"/>
      <point x="67" y="0" type="curve"/>
      <point x="95" y="0"/>
      <point x="67" y="0"/>
    </contour>
    <contour>
      <point x="407" y="949" type="curve"/>
      <point x="398" y="899"/>
      <point x="393" y="847"/>
      <point x="359" y="847" type="curve"/>
      <point x="329" y="847"/>
      <point x="316" y="869"/>
      <point x="300" y="896" type="curve" smooth="yes"/>
      <point x="281" y="925"/>
      <point x="266" y="950"/>
      <point x="231" y="950" type="curve"/>
      <point x="174" y="950"/>
      <point x="166" y="894"/>
      <point x="157" y="831" type="curve"/>
      <point x="178" y="825"/>
      <point x="157" y="831"/>
      <point x="178" y="825" type="curve"/>
      <point x="186" y="877"/>
      <point x="190" y="927"/>
      <point x="232" y="927" type="curve"/>
      <point x="260" y="927"/>
      <point x="269" y="904"/>
      <point x="283" y="880" type="curve" smooth="yes"/>
      <point x="303" y="848"/>
      <point x="321" y="825"/>
      <point x="358" y="825" type="curve"/>
      <point x="415" y="825"/>
      <point x="418" y="884"/>
      <point x="429" y="945" type="curve"/>
      <point x="407" y="949"/>
      <point x="429" y="945"/>
    </contour>
  </outline>
</glyph>
<glyph name="AE" format="1">
  <advance width="737"/>
  <unicode hex="00C6"/>
  <outline>
    <contour>
      <point x="83" y="23" type="curve"/>
      <point x="-27" y="23"/>
      <point x="91" y="23"/>
      <point x="-19" y="23" type="curve"/>
      <point x="-19" y="0"/>
      <point x="-19" y="23"/>
      <point x="-19" y="0" type="curve"/>
      <point x="18" y="0"/>
      <point x="46" y="0"/>
      <point x="83" y="0" type="curve"/>
      <point x="83" y="23"/>
      <point x="83" y="0"/>
    </contour>
    <contour>
      <point x="83" y="0" type="curve"/>
      <point x="121" y="0"/>
      <point x="68" y="0"/>
      <point x="183" y="0" type="curve"/>
      <point x="183" y="23"/>
      <point x="183" y="0"/>
      <point x="183" y="23" type="curve"/>
      <point x="68" y="23"/>
      <point x="198" y="23"/>
      <point x="83" y="23" type="curve"/>
      <point x="83" y="0"/>
      <point x="83" y="23"/>
    </contour>
    <contour>
      <point x="384" y="277" type="curve"/>
      <point x="304" y="277"/>
      <point x="274" y="277"/>
      <point x="193" y="277" type="curve"/>
      <point x="183" y="253"/>
      <point x="193" y="277"/>
      <point x="183" y="253" type="curve"/>
      <point x="270" y="253"/>
      <point x="306" y="253"/>
      <point x="393" y="253" type="curve"/>
      <point x="384" y="277"/>
      <point x="393" y="253"/>
    </contour>
    <contour>
      <point x="89" y="0" type="curve"/>
      <point x="397" y="722" type="line"/>
      <point x="373" y="722"/>
      <point x="397" y="722"/>
      <point x="373" y="722" type="curve"/>
      <point x="61" y="0" type="line"/>
      <point x="89" y="0"/>
      <point x="61" y="0"/>
    </contour>
    <contour>
      <point x="688" y="11" type="curve"/>
      <point x="688" y="131"/>
      <point x="688" y="2"/>
      <point x="688" y="122" type="curve"/>
      <point x="665" y="122"/>
      <point x="688" y="122"/>
      <point x="665" y="122" type="curve"/>
      <point x="665" y="2"/>
      <point x="665" y="131"/>
      <point x="665" y="11" type="curve"/>
      <point x="688" y="11"/>
      <point x="665" y="11"/>
    </contour>
    <contour>
      <point x="641" y="711" type="curve"/>
      <point x="641" y="591"/>
      <point x="641" y="720"/>
      <point x="641" y="600" type="curve"/>
      <point x="664" y="600"/>
      <point x="641" y="600"/>
      <point x="664" y="600" type="curve"/>
      <point x="664" y="720"/>
      <point x="664" y="591"/>
      <point x="664" y="711" type="curve"/>
      <point x="641" y="711"/>
      <point x="664" y="711"/>
    </contour>
    <contour>
      <point x="388" y="23" type="curve"/>
      <point x="256" y="23"/>
      <point x="408" y="23"/>
      <point x="276" y="23" type="curve"/>
      <point x="276" y="0"/>
      <point x="276" y="23"/>
      <point x="276" y="0" type="curve"/>
      <point x="320" y="0"/>
      <point x="344" y="0"/>
      <point x="388" y="0" type="curve"/>
      <point x="388" y="23"/>
      <point x="388" y="0"/>
    </contour>
    <contour>
      <point x="388" y="722" type="curve"/>
      <point x="344" y="722"/>
      <point x="320" y="722"/>
      <point x="276" y="722" type="curve"/>
      <point x="276" y="699"/>
      <point x="276" y="722"/>
      <point x="276" y="699" type="curve"/>
      <point x="408" y="699"/>
      <point x="256" y="699"/>
      <point x="388" y="699" type="curve"/>
      <point x="388" y="722"/>
      <point x="388" y="699"/>
    </contour>
    <contour>
      <point x="390" y="363" type="curve"/>
      <point x="467" y="363"/>
      <point x="543" y="363"/>
      <point x="620" y="363" type="curve"/>
      <point x="620" y="385"/>
      <point x="620" y="363"/>
      <point x="620" y="385" type="curve"/>
      <point x="543" y="385"/>
      <point x="467" y="385"/>
      <point x="390" y="385" type="curve"/>
      <point x="390" y="363"/>
      <point x="390" y="385"/>
    </contour>
    <contour>
      <point x="380" y="699" type="curve"/>
      <point x="475" y="699"/>
      <point x="569" y="699"/>
      <point x="664" y="699" type="curve"/>
      <point x="664" y="722"/>
      <point x="664" y="699"/>
      <point x="664" y="722" type="curve"/>
      <point x="569" y="722"/>
      <point x="475" y="722"/>
      <point x="380" y="722" type="curve"/>
      <point x="380" y="699"/>
      <point x="380" y="722"/>
    </contour>
    <contour>
      <point x="400" y="0" type="curve"/>
      <point x="400" y="722" type="line"/>
      <point x="375" y="722"/>
      <point x="400" y="722"/>
      <point x="375" y="722" type="curve"/>
      <point x="375" y="481"/>
      <point x="375" y="241"/>
      <point x="375" y="0" type="curve"/>
      <point x="400" y="0"/>
      <point x="375" y="0"/>
    </contour>
    <contour>
      <point x="380" y="0" type="curve"/>
      <point x="483" y="0"/>
      <point x="585" y="0"/>
      <point x="688" y="0" type="curve"/>
      <point x="688" y="23"/>
      <point x="688" y="0"/>
      <point x="688" y="23" type="curve"/>
      <point x="585" y="23"/>
      <point x="483" y="23"/>
      <point x="380" y="23" type="curve"/>
      <point x="380" y="0"/>
      <point x="380" y="23"/>
    </contour>
  </outline>
</glyph>
<glyph name="Ccedilla" format="1">
  <advance width="517"/>
  <unicode hex="00C7"/>
  <outline>
    <contour>
      <point x="434" y="655" type="curve"/>
      <point x="434" y="535"/>
      <point x="434" y="655"/>
      <point x="434" y="535" type="curve"/>
      <point x="457" y="535"/>
      <point x="434" y="535"/>
      <point x="457" y="535" type="curve"/>
      <point x="457" y="655"/>
      <point x="457" y="535"/>
      <point x="457" y="655" type="curve"/>
      <point x="434" y="655"/>
      <point x="457" y="655"/>
    </contour>
    <contour>
      <point x="457" y="655" type="curve"/>
      <point x="413" y="694"/>
      <point x="361" y="727"/>
      <point x="297" y="727" type="curve"/>
      <point x="112" y="727"/>
      <point x="67" y="558"/>
      <point x="67" y="344" type="curve"/>
      <point x="67" y="149"/>
      <point x="111" y="-5"/>
      <point x="282" y="-5" type="curve"/>
      <point x="367" y="-5"/>
      <point x="417" y="34"/>
      <point x="471" y="96" type="curve"/>
      <point x="454" y="114"/>
      <point x="470" y="96"/>
      <point x="453" y="114" type="curve"/>
      <point x="405" y="58"/>
      <point x="359" y="22"/>
      <point x="283" y="22" type="curve"/>
      <point x="128" y="22"/>
      <point x="92" y="166"/>
      <point x="92" y="345" type="curve"/>
      <point x="92" y="542"/>
      <point x="131" y="702"/>
      <point x="295" y="702" type="curve"/>
      <point x="354" y="702"/>
      <point x="403" y="673"/>
      <point x="443" y="637" type="curve"/>
      <point x="457" y="655"/>
      <point x="443" y="637"/>
    </contour>
    <contour>
      <point x="263" y="11" type="curve"/>
      <point x="252" y="-16"/>
      <point x="242" y="-44"/>
      <point x="232" y="-70" type="curve"/>
      <point x="250" y="-89"/>
      <point x="232" y="-70"/>
      <point x="250" y="-89" type="curve"/>
      <point x="260" y="-61"/>
      <point x="272" y="-32"/>
      <point x="282" y="-5" type="curve"/>
      <point x="263" y="11"/>
      <point x="282" y="-5"/>
    </contour>
    <contour>
      <point x="250" y="-89" type="curve"/>
      <point x="259" y="-80"/>
      <point x="266" y="-76"/>
      <point x="278" y="-76" type="curve"/>
      <point x="305" y="-76"/>
      <point x="311" y="-101"/>
      <point x="311" y="-132" type="curve"/>
      <point x="311" y="-164"/>
      <point x="298" y="-187"/>
      <point x="269" y="-187" type="curve"/>
      <point x="250" y="-187"/>
      <point x="236" y="-183"/>
      <point x="222" y="-170" type="curve"/>
      <point x="212" y="-187"/>
      <point x="222" y="-170"/>
      <point x="212" y="-187" type="curve"/>
      <point x="229" y="-203"/>
      <point x="245" y="-210"/>
      <point x="268" y="-210" type="curve"/>
      <point x="313" y="-210"/>
      <point x="337" y="-177"/>
      <point x="337" y="-132" type="curve"/>
      <point x="337" y="-88"/>
      <point x="320" y="-53"/>
      <point x="280" y="-53" type="curve"/>
      <point x="261" y="-53"/>
      <point x="248" y="-59"/>
      <point x="232" y="-70" type="curve"/>
      <point x="250" y="-89"/>
      <point x="232" y="-70"/>
    </contour>
  </outline>
</glyph>
<glyph name="Egrave" format="1">
  <advance width="502"/>
  <unicode hex="00C8"/>
  <outline>
    <contour>
      <point x="453" y="11" type="curve"/>
      <point x="453" y="131"/>
      <point x="453" y="2"/>
      <point x="453" y="122" type="curve"/>
      <point x="430" y="122"/>
      <point x="453" y="122"/>
      <point x="430" y="122" type="curve"/>
      <point x="430" y="2"/>
      <point x="430" y="131"/>
      <point x="430" y="11" type="curve"/>
      <point x="453" y="11"/>
      <point x="430" y="11"/>
    </contour>
    <contour>
      <point x="406" y="711" type="curve"/>
      <point x="406" y="591"/>
      <point x="406" y="720"/>
      <point x="406" y="600" type="curve"/>
      <point x="429" y="600"/>
      <point x="406" y="600"/>
      <point x="429" y="600" type="curve"/>
      <point x="429" y="720"/>
      <point x="429" y="591"/>
      <point x="429" y="711" type="curve"/>
      <point x="406" y="711"/>
      <point x="429" y="711"/>
    </contour>
    <contour>
      <point x="152" y="23" type="curve"/>
      <point x="20" y="23"/>
      <point x="172" y="23"/>
      <point x="40" y="23" type="curve"/>
      <point x="40" y="0"/>
      <point x="40" y="23"/>
      <point x="40" y="0" type="curve"/>
      <point x="84" y="0"/>
      <point x="108" y="0"/>
      <point x="152" y="0" type="curve"/>
      <point x="152" y="23"/>
      <point x="152" y="0"/>
    </contour>
    <contour>
      <point x="152" y="722" type="curve"/>
      <point x="108" y="722"/>
      <point x="84" y="722"/>
      <point x="40" y="722" type="curve"/>
      <point x="40" y="699"/>
      <point x="40" y="722"/>
      <point x="40" y="699" type="curve"/>
      <point x="172" y="699"/>
      <point x="20" y="699"/>
      <point x="152" y="699" type="curve"/>
      <point x="152" y="722"/>
      <point x="152" y="699"/>
    </contour>
    <contour>
      <point x="154" y="363" type="curve"/>
      <point x="232" y="363"/>
      <point x="308" y="363"/>
      <point x="385" y="363" type="curve"/>
      <point x="385" y="385"/>
      <point x="385" y="363"/>
      <point x="385" y="385" type="curve"/>
      <point x="308" y="385"/>
      <point x="232" y="385"/>
      <point x="154" y="385" type="curve"/>
      <point x="154" y="363"/>
      <point x="154" y="385"/>
    </contour>
    <contour>
      <point x="144" y="699" type="curve"/>
      <point x="240" y="699"/>
      <point x="334" y="699"/>
      <point x="429" y="699" type="curve"/>
      <point x="429" y="722"/>
      <point x="429" y="699"/>
      <point x="429" y="722" type="curve"/>
      <point x="334" y="722"/>
      <point x="240" y="722"/>
      <point x="144" y="722" type="curve"/>
      <point x="144" y="699"/>
      <point x="144" y="722"/>
    </contour>
    <contour>
      <point x="165" y="0" type="curve"/>
      <point x="165" y="722" type="line"/>
      <point x="140" y="722"/>
      <point x="165" y="722"/>
      <point x="140" y="722" type="curve"/>
      <point x="140" y="481"/>
      <point x="140" y="241"/>
      <point x="140" y="0" type="curve"/>
      <point x="165" y="0"/>
      <point x="140" y="0"/>
    </contour>
    <contour>
      <point x="144" y="0" type="curve"/>
      <point x="248" y="0"/>
      <point x="350" y="0"/>
      <point x="453" y="0" type="curve"/>
      <point x="453" y="23"/>
      <point x="453" y="0"/>
      <point x="453" y="23" type="curve"/>
      <point x="350" y="23"/>
      <point x="248" y="23"/>
      <point x="144" y="23" type="curve"/>
      <point x="144" y="0"/>
      <point x="144" y="23"/>
    </contour>
    <contour>
      <point x="267" y="825" type="line"/>
      <point x="201" y="991" type="line"/>
      <point x="168" y="991" type="line"/>
      <point x="242" y="825" type="line"/>
    </contour>
  </outline>
</glyph>
<glyph name="Igrave" format="1">
  <advance width="304"/>
  <unicode hex="00CC"/>
  <outline>
    <contour>
      <point x="152" y="722" type="curve"/>
      <point x="108" y="722"/>
      <point x="84" y="722"/>
      <point x="40" y="722" type="curve"/>
      <point x="40" y="699"/>
      <point x="40" y="722"/>
      <point x="40" y="699" type="curve"/>
      <point x="172" y="699"/>
      <point x="20" y="699"/>
      <point x="152" y="699" type="curve"/>
      <point x="152" y="722"/>
      <point x="152" y="699"/>
    </contour>
    <contour>
      <point x="152" y="699" type="curve"/>
      <point x="285" y="699"/>
      <point x="132" y="699"/>
      <point x="265" y="699" type="curve"/>
      <point x="265" y="722"/>
      <point x="265" y="699"/>
      <point x="265" y="722" type="curve"/>
      <point x="220" y="722"/>
      <point x="196" y="722"/>
      <point x="152" y="722" type="curve"/>
      <point x="152" y="699"/>
      <point x="152" y="722"/>
    </contour>
    <contour>
      <point x="152" y="0" type="curve"/>
      <point x="196" y="0"/>
      <point x="220" y="0"/>
      <point x="265" y="0" type="curve"/>
      <point x="265" y="23"/>
      <point x="265" y="0"/>
      <point x="265" y="23" type="curve"/>
      <point x="132" y="23"/>
      <point x="285" y="23"/>
      <point x="152" y="23" type="curve"/>
      <point x="152" y="0"/>
      <point x="152" y="23"/>
    </contour>
    <contour>
      <point x="152" y="23" type="curve"/>
      <point x="20" y="23"/>
      <point x="172" y="23"/>
      <point x="40" y="23" type="curve"/>
      <point x="40" y="0"/>
      <point x="40" y="23"/>
      <point x="40" y="0" type="curve"/>
      <point x="84" y="0"/>
      <point x="108" y="0"/>
      <point x="152" y="0" type="curve"/>
      <point x="152" y="23"/>
      <point x="152" y="0"/>
    </contour>
    <contour>
      <point x="165" y="0" type="curve"/>
      <point x="165" y="241"/>
      <point x="165" y="481"/>
      <point x="165" y="722" type="curve"/>
      <point x="140" y="722"/>
      <point x="165" y="722"/>
      <point x="140" y="722" type="curve"/>
      <point x="140" y="481"/>
      <point x="140" y="241"/>
      <point x="140" y="0" type="curve"/>
      <point x="165" y="0"/>
      <point x="140" y="0"/>
    </contour>
    <contour>
      <point x="168" y="825" type="line"/>
      <point x="102" y="991" type="line"/>
      <point x="69" y="991" type="line"/>
      <point x="143" y="825" type="line"/>
    </contour>
  </outline>
</glyph>
<glyph name="Icircumflex" format="1">
  <advance width="299"/>
  <unicode hex="00CE"/>
  <outline>
    <contour>
      <point x="151" y="722" type="curve"/>
      <point x="107" y="722"/>
      <point x="83" y="722"/>
      <point x="39" y="722" type="curve"/>
      <point x="39" y="699"/>
      <point x="39" y="722"/>
      <point x="39" y="699" type="curve"/>
      <point x="171" y="699"/>
      <point x="19" y="699"/>
      <point x="151" y="699" type="curve"/>
      <point x="151" y="722"/>
      <point x="151" y="699"/>
    </contour>
    <contour>
      <point x="151" y="699" type="curve"/>
      <point x="284" y="699"/>
      <point x="132" y="699"/>
      <point x="265" y="699" type="curve"/>
      <point x="265" y="722"/>
      <point x="265" y="699"/>
      <point x="265" y="722" type="curve"/>
      <point x="220" y="722"/>
      <point x="195" y="722"/>
      <point x="151" y="722" type="curve"/>
      <point x="151" y="699"/>
      <point x="151" y="722"/>
    </contour>
    <contour>
      <point x="151" y="0" type="curve"/>
      <point x="195" y="0"/>
      <point x="220" y="0"/>
      <point x="265" y="0" type="curve"/>
      <point x="265" y="23"/>
      <point x="265" y="0"/>
      <point x="265" y="23" type="curve"/>
      <point x="132" y="23"/>
      <point x="284" y="23"/>
      <point x="151" y="23" type="curve"/>
      <point x="151" y="0"/>
      <point x="151" y="23"/>
    </contour>
    <contour>
      <point x="151" y="23" type="curve"/>
      <point x="19" y="23"/>
      <point x="171" y="23"/>
      <point x="39" y="23" type="curve"/>
      <point x="39" y="0"/>
      <point x="39" y="23"/>
      <point x="39" y="0" type="curve"/>
      <point x="83" y="0"/>
      <point x="107" y="0"/>
      <point x="151" y="0" type="curve"/>
      <point x="151" y="23"/>
      <point x="151" y="0"/>
    </contour>
    <contour>
      <point x="164" y="0" type="curve"/>
      <point x="164" y="241"/>
      <point x="164" y="481"/>
      <point x="164" y="722" type="curve"/>
      <point x="139" y="722"/>
      <point x="164" y="722"/>
      <point x="139" y="722" type="curve"/>
      <point x="139" y="481"/>
      <point x="139" y="241"/>
      <point x="139" y="0" type="curve"/>
      <point x="164" y="0"/>
      <point x="139" y="0"/>
    </contour>
    <contour>
      <point x="89" y="825" type="line"/>
      <point x="163" y="991" type="line"/>
      <point x="130" y="991" type="line"/>
      <point x="64" y="825" type="line"/>
    </contour>
    <contour>
      <point x="240" y="825" type="line"/>
      <point x="173" y="991" type="line"/>
      <point x="141" y="991" type="line"/>
      <point x="214" y="825" type="line"/>
    </contour>
  </outline>
</glyph>
<glyph name="Idieresis" format="1">
  <advance width="304"/>
  <unicode hex="00CF"/>
  <outline>
    <contour>
      <point x="152" y="722" type="curve"/>
      <point x="108" y="722"/>
      <point x="84" y="722"/>
      <point x="40" y="722" type="curve"/>
      <point x="40" y="699"/>
      <point x="40" y="722"/>
      <point x="40" y="699" type="curve"/>
      <point x="172" y="699"/>
      <point x="20" y="699"/>
      <point x="152" y="699" type="curve"/>
      <point x="152" y="722"/>
      <point x="152" y="699"/>
    </contour>
    <contour>
      <point x="152" y="699" type="curve"/>
      <point x="285" y="699"/>
      <point x="132" y="699"/>
      <point x="266" y="699" type="curve"/>
      <point x="266" y="722"/>
      <point x="266" y="699"/>
      <point x="266" y="722" type="curve"/>
      <point x="220" y="722"/>
      <point x="196" y="722"/>
      <point x="152" y="722" type="curve"/>
      <point x="152" y="699"/>
      <point x="152" y="722"/>
    </contour>
    <contour>
      <point x="152" y="0" type="curve"/>
      <point x="196" y="0"/>
      <point x="220" y="0"/>
      <point x="266" y="0" type="curve"/>
      <point x="266" y="23"/>
      <point x="266" y="0"/>
      <point x="266" y="23" type="curve"/>
      <point x="132" y="23"/>
      <point x="285" y="23"/>
      <point x="152" y="23" type="curve"/>
      <point x="152" y="0"/>
      <point x="152" y="23"/>
    </contour>
    <contour>
      <point x="152" y="23" type="curve"/>
      <point x="20" y="23"/>
      <point x="172" y="23"/>
      <point x="40" y="23" type="curve"/>
      <point x="40" y="0"/>
      <point x="40" y="23"/>
      <point x="40" y="0" type="curve"/>
      <point x="84" y="0"/>
      <point x="108" y="0"/>
      <point x="152" y="0" type="curve"/>
      <point x="152" y="23"/>
      <point x="152" y="0"/>
    </contour>
    <contour>
      <point x="165" y="0" type="curve"/>
      <point x="165" y="241"/>
      <point x="165" y="481"/>
      <point x="165" y="722" type="curve"/>
      <point x="140" y="722"/>
      <point x="165" y="722"/>
      <point x="140" y="722" type="curve"/>
      <point x="140" y="481"/>
      <point x="140" y="241"/>
      <point x="140" y="0" type="curve"/>
      <point x="165" y="0"/>
      <point x="140" y="0"/>
    </contour>
    <contour>
      <point x="128" y="839" type="curve"/>
      <point x="128" y="850"/>
      <point x="121" y="857"/>
      <point x="110" y="857" type="curve"/>
      <point x="98" y="857"/>
      <point x="92" y="849"/>
      <point x="92" y="839" type="curve"/>
      <point x="128" y="839"/>
      <point x="92" y="839"/>
      <point x="128" y="839" type="curve"/>
      <point x="128" y="828"/>
      <point x="121" y="822"/>
      <point x="110" y="822" type="curve"/>
      <point x="98" y="822"/>
      <point x="92" y="828"/>
      <point x="92" y="839" type="curve"/>
      <point x="128" y="839"/>
      <point x="92" y="839"/>
    </contour>
    <contour>
      <point x="213" y="839" type="curve"/>
      <point x="213" y="850"/>
      <point x="206" y="857"/>
      <point x="195" y="857" type="curve"/>
      <point x="184" y="857"/>
      <point x="177" y="849"/>
      <point x="177" y="839" type="curve"/>
      <point x="213" y="839"/>
      <point x="177" y="839"/>
      <point x="213" y="839" type="curve"/>
      <point x="213" y="828"/>
      <point x="206" y="822"/>
      <point x="195" y="822" type="curve"/>
      <point x="184" y="822"/>
      <point x="177" y="828"/>
      <point x="177" y="839" type="curve"/>
      <point x="213" y="839"/>
      <point x="177" y="839"/>
    </contour>
  </outline>
</glyph>
<glyph name="Eth" format="1">
  <advance width="581"/>
  <unicode hex="00D0"/>
  <outline>
    <contour>
      <point x="153" y="23" type="curve"/>
      <point x="21" y="23"/>
      <point x="173" y="23"/>
      <point x="41" y="23" type="curve"/>
      <point x="41" y="0"/>
      <point x="41" y="23"/>
      <point x="41" y="0" type="curve"/>
      <point x="85" y="0"/>
      <point x="109" y="0"/>
      <point x="153" y="0" type="curve"/>
      <point x="153" y="23"/>
      <point x="153" y="0"/>
    </contour>
    <contour>
      <point x="153" y="722" type="curve"/>
      <point x="109" y="722"/>
      <point x="85" y="722"/>
      <point x="41" y="722" type="curve"/>
      <point x="41" y="699"/>
      <point x="41" y="722"/>
      <point x="41" y="699" type="curve"/>
      <point x="173" y="699"/>
      <point x="21" y="699"/>
      <point x="153" y="699" type="curve"/>
      <point x="153" y="722"/>
      <point x="153" y="699"/>
    </contour>
    <contour>
      <point x="140" y="722" type="curve"/>
      <point x="140" y="481"/>
      <point x="140" y="241"/>
      <point x="140" y="0" type="curve"/>
      <point x="165" y="0"/>
      <point x="140" y="0"/>
      <point x="165" y="0" type="curve"/>
      <point x="165" y="241"/>
      <point x="165" y="481"/>
      <point x="165" y="722" type="curve"/>
      <point x="140" y="722"/>
      <point x="165" y="722"/>
    </contour>
    <contour>
      <point x="153" y="0" type="curve"/>
      <point x="199" y="0"/>
      <point x="227" y="0"/>
      <point x="272" y="0" type="curve"/>
      <point x="454" y="0"/>
      <point x="518" y="153"/>
      <point x="518" y="356" type="curve"/>
      <point x="518" y="565"/>
      <point x="450" y="722"/>
      <point x="263" y="722" type="curve"/>
      <point x="222" y="722"/>
      <point x="195" y="722"/>
      <point x="153" y="722" type="curve"/>
      <point x="153" y="713"/>
      <point x="153" y="708"/>
      <point x="153" y="699" type="curve"/>
      <point x="195" y="699"/>
      <point x="221" y="699"/>
      <point x="262" y="699" type="curve"/>
      <point x="435" y="699"/>
      <point x="493" y="551"/>
      <point x="493" y="355" type="curve"/>
      <point x="493" y="167"/>
      <point x="440" y="23"/>
      <point x="274" y="23" type="curve"/>
      <point x="229" y="23"/>
      <point x="199" y="23"/>
      <point x="153" y="23" type="curve"/>
      <point x="153" y="14"/>
      <point x="153" y="9"/>
    </contour>
    <contour>
      <point x="64" y="403" type="curve"/>
      <point x="134" y="403"/>
      <point x="203" y="403"/>
      <point x="271" y="403" type="curve"/>
      <point x="271" y="428"/>
      <point x="271" y="403"/>
      <point x="271" y="428" type="curve"/>
      <point x="203" y="428"/>
      <point x="134" y="428"/>
      <point x="64" y="428" type="curve"/>
      <point x="64" y="403"/>
      <point x="64" y="428"/>
    </contour>
  </outline>
</glyph>
<glyph name="Ntilde" format="1">
  <advance width="667"/>
  <unicode hex="00D1"/>
  <outline>
    <contour>
      <point x="153" y="722" type="curve"/>
      <point x="109" y="722"/>
      <point x="85" y="722"/>
      <point x="41" y="722" type="curve"/>
      <point x="41" y="699"/>
      <point x="41" y="722"/>
      <point x="41" y="699" type="curve"/>
      <point x="173" y="699"/>
      <point x="21" y="699"/>
      <point x="153" y="699" type="curve"/>
      <point x="153" y="722"/>
      <point x="153" y="699"/>
    </contour>
    <contour>
      <point x="531" y="699" type="curve"/>
      <point x="663" y="699"/>
      <point x="512" y="699"/>
      <point x="644" y="699" type="curve"/>
      <point x="644" y="722"/>
      <point x="644" y="699"/>
      <point x="644" y="722" type="curve"/>
      <point x="600" y="722"/>
      <point x="575" y="722"/>
      <point x="531" y="722" type="curve"/>
      <point x="531" y="699"/>
      <point x="531" y="722"/>
    </contour>
    <contour>
      <point x="531" y="722" type="curve"/>
      <point x="487" y="722"/>
      <point x="463" y="722"/>
      <point x="419" y="722" type="curve"/>
      <point x="419" y="699"/>
      <point x="419" y="722"/>
      <point x="419" y="699" type="curve"/>
      <point x="551" y="699"/>
      <point x="400" y="699"/>
      <point x="531" y="699" type="curve"/>
      <point x="531" y="722"/>
      <point x="531" y="699"/>
    </contour>
    <contour>
      <point x="152" y="23" type="curve"/>
      <point x="20" y="23"/>
      <point x="172" y="23"/>
      <point x="40" y="23" type="curve"/>
      <point x="40" y="0"/>
      <point x="40" y="23"/>
      <point x="40" y="0" type="curve"/>
      <point x="84" y="0"/>
      <point x="108" y="0"/>
      <point x="152" y="0" type="curve"/>
      <point x="152" y="23"/>
      <point x="152" y="0"/>
    </contour>
    <contour>
      <point x="152" y="0" type="curve"/>
      <point x="196" y="0"/>
      <point x="132" y="0"/>
      <point x="264" y="0" type="curve"/>
      <point x="264" y="23"/>
      <point x="264" y="0"/>
      <point x="264" y="23" type="curve"/>
      <point x="132" y="23"/>
      <point x="284" y="23"/>
      <point x="152" y="23" type="curve"/>
      <point x="152" y="0"/>
      <point x="152" y="23"/>
    </contour>
    <contour>
      <point x="543" y="0" type="curve"/>
      <point x="418" y="241"/>
      <point x="293" y="481"/>
      <point x="168" y="722" type="curve"/>
      <point x="138" y="722"/>
      <point x="169" y="722"/>
      <point x="139" y="722" type="curve"/>
      <point x="264" y="481"/>
      <point x="389" y="241"/>
      <point x="514" y="0" type="curve"/>
      <point x="544" y="0"/>
      <point x="513" y="0"/>
    </contour>
    <contour>
      <point x="518" y="722" type="curve"/>
      <point x="518" y="481"/>
      <point x="518" y="241"/>
      <point x="518" y="0" type="curve"/>
      <point x="543" y="0"/>
      <point x="518" y="0"/>
      <point x="543" y="0" type="curve"/>
      <point x="543" y="241"/>
      <point x="543" y="481"/>
      <point x="543" y="722" type="curve"/>
      <point x="518" y="722"/>
      <point x="543" y="722"/>
    </contour>
    <contour>
      <point x="165" y="0" type="curve"/>
      <point x="165" y="241"/>
      <point x="165" y="481"/>
      <point x="165" y="722" type="curve"/>
      <point x="140" y="722"/>
      <point x="165" y="722"/>
      <point x="140" y="722" type="curve"/>
      <point x="140" y="481"/>
      <point x="140" y="241"/>
      <point x="140" y="0" type="curve"/>
      <point x="165" y="0"/>
      <point x="140" y="0"/>
    </contour>
    <contour>
      <point x="465" y="949" type="curve"/>
      <point x="456" y="899"/>
      <point x="451" y="847"/>
      <point x="417" y="847" type="curve"/>
      <point x="387" y="847"/>
      <point x="374" y="869"/>
      <point x="358" y="896" type="curve"/>
      <point x="339" y="925"/>
      <point x="324" y="950"/>
      <point x="289" y="950" type="curve"/>
      <point x="232" y="950"/>
      <point x="224" y="894"/>
      <point x="215" y="831" type="curve"/>
      <point x="235" y="825"/>
      <point x="215" y="831"/>
      <point x="235" y="825" type="curve"/>
      <point x="244" y="877"/>
      <point x="248" y="927"/>
      <point x="289" y="927" type="curve"/>
      <point x="317" y="927"/>
      <point x="326" y="904"/>
      <point x="340" y="880" type="curve"/>
      <point x="361" y="848"/>
      <point x="378" y="825"/>
      <point x="415" y="825" type="curve"/>
      <point x="473" y="825"/>
      <point x="476" y="884"/>
      <point x="487" y="945" type="curve"/>
      <point x="465" y="949"/>
      <point x="487" y="945"/>
    </contour>
  </outline>
</glyph>
<glyph name="Ocircumflex" format="1">
  <advance width="564"/>
  <unicode hex="00D4"/>
  <outline>
    <contour>
      <point x="93" y="360" type="curve"/>
      <point x="93" y="543"/>
      <point x="123" y="703"/>
      <point x="281" y="703" type="curve"/>
      <point x="438" y="703"/>
      <point x="472" y="545"/>
      <point x="472" y="363" type="curve"/>
      <point x="472" y="183"/>
      <point x="441" y="19"/>
      <point x="284" y="19" type="curve"/>
      <point x="125" y="19"/>
      <point x="93" y="177"/>
      <point x="93" y="360" type="curve"/>
      <point x="67" y="360"/>
      <point x="93" y="360"/>
      <point x="67" y="360" type="curve"/>
      <point x="67" y="162"/>
      <point x="110" y="-5"/>
      <point x="283" y="-5" type="curve"/>
      <point x="455" y="-5"/>
      <point x="497" y="164"/>
      <point x="497" y="363" type="curve"/>
      <point x="497" y="560"/>
      <point x="455" y="727"/>
      <point x="283" y="727" type="curve"/>
      <point x="109" y="727"/>
      <point x="67" y="558"/>
      <point x="67" y="360" type="curve"/>
      <point x="93" y="360"/>
      <point x="67" y="360"/>
    </contour>
    <contour>
      <point x="219" y="825" type="line"/>
      <point x="292" y="991" type="line"/>
      <point x="260" y="991" type="line"/>
      <point x="193" y="825" type="line"/>
    </contour>
    <contour>
      <point x="369" y="825" type="line"/>
      <point x="303" y="991" type="line"/>
      <point x="270" y="991" type="line"/>
      <point x="344" y="825" type="line"/>
    </contour>
  </outline>
</glyph>
<glyph name="Odieresis" format="1">
  <advance width="564"/>
  <unicode hex="00D6"/>
  <outline>
    <contour>
      <point x="93" y="360" type="curve"/>
      <point x="93" y="543"/>
      <point x="123" y="703"/>
      <point x="281" y="703" type="curve"/>
      <point x="438" y="703"/>
      <point x="472" y="545"/>
      <point x="472" y="363" type="curve"/>
      <point x="472" y="183"/>
      <point x="441" y="19"/>
      <point x="284" y="19" type="curve"/>
      <point x="125" y="19"/>
      <point x="93" y="177"/>
      <point x="93" y="360" type="curve"/>
      <point x="67" y="360"/>
      <point x="93" y="360"/>
      <point x="67" y="360" type="curve"/>
      <point x="67" y="162"/>
      <point x="110" y="-5"/>
      <point x="283" y="-5" type="curve"/>
      <point x="455" y="-5"/>
      <point x="497" y="164"/>
      <point x="497" y="363" type="curve"/>
      <point x="497" y="560"/>
      <point x="455" y="727"/>
      <point x="283" y="727" type="curve"/>
      <point x="109" y="727"/>
      <point x="67" y="558"/>
      <point x="67" y="360" type="curve"/>
      <point x="93" y="360"/>
      <point x="67" y="360"/>
    </contour>
    <contour>
      <point x="257" y="839" type="curve"/>
      <point x="257" y="850"/>
      <point x="249" y="857"/>
      <point x="238" y="857" type="curve"/>
      <point x="227" y="857"/>
      <point x="220" y="849"/>
      <point x="220" y="839" type="curve"/>
      <point x="257" y="839"/>
      <point x="220" y="839"/>
      <point x="257" y="839" type="curve"/>
      <point x="257" y="828"/>
      <point x="249" y="822"/>
      <point x="238" y="822" type="curve"/>
      <point x="227" y="822"/>
      <point x="220" y="828"/>
      <point x="220" y="839" type="curve"/>
      <point x="257" y="839"/>
      <point x="220" y="839"/>
    </contour>
    <contour>
      <point x="342" y="839" type="curve"/>
      <point x="342" y="850"/>
      <point x="334" y="857"/>
      <point x="323" y="857" type="curve"/>
      <point x="312" y="857"/>
      <point x="306" y="849"/>
      <point x="306" y="839" type="curve"/>
      <point x="342" y="839"/>
      <point x="306" y="839"/>
      <point x="342" y="839" type="curve"/>
      <point x="342" y="828"/>
      <point x="334" y="822"/>
      <point x="323" y="822" type="curve"/>
      <point x="312" y="822"/>
      <point x="306" y="828"/>
      <point x="306" y="839" type="curve"/>
      <point x="342" y="839"/>
      <point x="306" y="839"/>
    </contour>
  </outline>
</glyph>
<glyph name="Yacute" format="1">
  <advance width="552"/>
  <unicode hex="00DD"/>
  <outline>
    <contour>
      <point x="259" y="23" type="curve"/>
      <point x="138" y="23"/>
      <point x="268" y="23"/>
      <point x="147" y="23" type="curve"/>
      <point x="147" y="0"/>
      <point x="147" y="23"/>
      <point x="147" y="0" type="curve"/>
      <point x="187" y="0"/>
      <point x="219" y="0"/>
      <point x="259" y="0" type="curve"/>
      <point x="259" y="23"/>
      <point x="259" y="0"/>
    </contour>
    <contour>
      <point x="259" y="0" type="curve"/>
      <point x="299" y="0"/>
      <point x="331" y="0"/>
      <point x="371" y="0" type="curve"/>
      <point x="371" y="23"/>
      <point x="371" y="0"/>
      <point x="371" y="23" type="curve"/>
      <point x="250" y="23"/>
      <point x="380" y="23"/>
      <point x="259" y="23" type="curve"/>
      <point x="259" y="0"/>
      <point x="259" y="23"/>
    </contour>
    <contour>
      <point x="424" y="722" type="curve"/>
      <point x="384" y="722"/>
      <point x="352" y="722"/>
      <point x="312" y="722" type="curve"/>
      <point x="312" y="699"/>
      <point x="312" y="722"/>
      <point x="312" y="699" type="curve"/>
      <point x="433" y="699"/>
      <point x="303" y="699"/>
      <point x="424" y="699" type="curve"/>
      <point x="424" y="722"/>
      <point x="424" y="699"/>
    </contour>
    <contour>
      <point x="103" y="722" type="curve"/>
      <point x="63" y="722"/>
      <point x="31" y="722"/>
      <point x="-9" y="722" type="curve"/>
      <point x="-9" y="699"/>
      <point x="-9" y="722"/>
      <point x="-9" y="699" type="curve"/>
      <point x="112" y="699"/>
      <point x="-18" y="699"/>
      <point x="103" y="699" type="curve"/>
      <point x="103" y="722"/>
      <point x="103" y="699"/>
    </contour>
    <contour>
      <point x="103" y="699" type="curve"/>
      <point x="224" y="699"/>
      <point x="94" y="699"/>
      <point x="215" y="699" type="curve"/>
      <point x="215" y="722"/>
      <point x="215" y="699"/>
      <point x="215" y="722" type="curve"/>
      <point x="175" y="722"/>
      <point x="143" y="722"/>
      <point x="103" y="722" type="curve"/>
      <point x="103" y="699"/>
      <point x="103" y="722"/>
    </contour>
    <contour>
      <point x="424" y="699" type="curve"/>
      <point x="545" y="699"/>
      <point x="415" y="699"/>
      <point x="536" y="699" type="curve"/>
      <point x="536" y="722"/>
      <point x="536" y="699"/>
      <point x="536" y="722" type="curve"/>
      <point x="496" y="722"/>
      <point x="464" y="722"/>
      <point x="424" y="722" type="curve"/>
      <point x="424" y="699"/>
      <point x="424" y="722"/>
    </contour>
    <contour>
      <point x="81" y="722" type="curve"/>
      <point x="136" y="594"/>
      <point x="191" y="465"/>
      <point x="246" y="337" type="curve"/>
      <point x="273" y="337"/>
      <point x="245" y="337"/>
      <point x="273" y="337" type="curve"/>
      <point x="218" y="465"/>
      <point x="163" y="594"/>
      <point x="109" y="722" type="curve"/>
      <point x="81" y="722"/>
      <point x="109" y="722"/>
    </contour>
    <contour>
      <point x="419" y="722" type="curve"/>
      <point x="362" y="594"/>
      <point x="304" y="465"/>
      <point x="246" y="337" type="curve"/>
      <point x="273" y="337"/>
      <point x="246" y="337"/>
      <point x="273" y="337" type="curve"/>
      <point x="331" y="465"/>
      <point x="389" y="594"/>
      <point x="447" y="722" type="curve"/>
      <point x="419" y="722"/>
      <point x="447" y="722"/>
    </contour>
    <contour>
      <point x="273" y="0" type="curve"/>
      <point x="273" y="115"/>
      <point x="273" y="231"/>
      <point x="273" y="346" type="curve"/>
      <point x="246" y="346"/>
      <point x="273" y="346"/>
      <point x="246" y="346" type="curve"/>
      <point x="246" y="231"/>
      <point x="246" y="115"/>
      <point x="246" y="0" type="curve"/>
      <point x="273" y="0"/>
      <point x="246" y="0"/>
    </contour>
    <contour>
      <point x="273" y="825" type="line"/>
      <point x="346" y="991" type="line"/>
      <point x="314" y="991" type="line"/>
      <point x="248" y="825" type="line"/>
    </contour>
  </outline>
</glyph>
